<?xml version="1.0" standalone="no"?>
<!DOCTYPE svg PUBLIC "-//W3C//DTD SVG 1.1//EN" "http://www.w3.org/Graphics/SVG/1.1/DTD/svg11.dtd" >
<svg>
<metadata>
Created by FontForge 20090914 at Fri Jul 26 19:27:42 2019
 By www-data
This typeface is for exclusive use by Toyota Motor Corporation only. The typeface may only be used in projects relating to Toyota Motor Corporation. All rights reserved.
</metadata>
<defs>
<font id="ToyotaText-Regular" horiz-adv-x="420" >
  <font-face 
    font-family="Toyota Text"
    font-weight="400"
    font-stretch="normal"
    units-per-em="1000"
    panose-1="2 11 5 3 4 2 2 2 2 3"
    ascent="800"
    descent="-200"
    x-height="500.999"
    cap-height="721"
    bbox="-217 -272.006 1043 1017"
    underline-thickness="50"
    underline-position="-50"
    unicode-range="U+0020-U+FB04"
  />
<missing-glyph horiz-adv-x="560" 
d="M50 700h460v-700h-460v700zM445 54v592h-330v-592h330z" />
    <glyph glyph-name="ff" unicode="ff" horiz-adv-x="657" 
d="M99 433h-70.998v68h71v52c0 24.667 2.66699 48.167 8 70.5s14.5 41.833 27.5 58.5s30.333 29.834 52 39.501s48.834 14.5 81.501 14.5c17.333 0 35.666 -2.33301 54.999 -7s37.333 -11 54 -19l-24 -59c-6.66699 3.33301 -17 7.16602 -31 11.499s-29.667 6.5 -47 6.5
c-18.667 0 -33.5 -3 -44.5 -9s-19.333 -14.5 -25 -25.5s-9.33398 -24.333 -11.001 -40s-2.5 -33.167 -2.5 -52.5v-41h212v52c0 24.667 2.66699 48.167 8 70.5s14.5 41.833 27.5 58.5s30.333 29.834 52 39.501s48.834 14.5 81.501 14.5c17.333 0 35.666 -2.33301 54.999 -7
s37.333 -11 54 -19l-24 -59c-6.66699 3.33301 -17 7.16602 -31 11.499s-29.667 6.5 -47 6.5c-18.667 0 -33.5 -3 -44.5 -9s-19.333 -14.5 -25 -25.5s-9.33398 -24.333 -11.001 -40s-2.5 -33.167 -2.5 -52.5v-41h144v-68h-144v-433h-93v433h-212v-433h-93v433z" />
    <glyph glyph-name="fi" unicode="fi" horiz-adv-x="577" 
d="M99 433l-70.998 -0.00195312v68h71v52c0 24.667 3.16699 48.167 9.5 70.5s17.333 41.833 33 58.5s36.167 29.834 61.5 39.501s57 14.5 95 14.5c42 0 77.167 -4.83301 105.5 -14.5s51.166 -19.5 68.499 -29.5l-29 -60c-14 8.66699 -32.833 17 -56.5 25
s-49.834 12 -78.501 12c-23.333 0 -42.5 -2.66699 -57.5 -8s-26.833 -13.166 -35.5 -23.499s-14.667 -23 -18 -38s-5 -32.167 -5 -51.5v-47h305v-501h-93v433h-212v-433h-93v433z" />
    <glyph glyph-name="fl" unicode="fl" horiz-adv-x="577" 
d="M99 433l-71 -0.000976562v68h71v52c0 24.667 3.16699 48.167 9.5 70.5s17.333 41.833 33 58.5s36.167 29.834 61.5 39.501s57 14.5 95 14.5c40.667 0 77.167 -3.83301 109.5 -11.5s62.166 -17.167 89.499 -28.5v-696h-93v651c-13.333 5.33301 -28.333 9.66602 -45 12.999
s-34 5 -52 5c-23.333 0 -42.5 -2.66699 -57.5 -8s-26.667 -13.166 -35 -23.499s-14.166 -23 -17.499 -38s-5 -32.167 -5 -51.5v-47h144v-68h-144v-433h-93v433z" />
    <glyph glyph-name="ffi" unicode="ffi" horiz-adv-x="885" 
d="M99 433l-70.9971 -0.00195312v68h71v52c0 24.667 2.66699 48.167 8 70.5s14.5 41.833 27.5 58.5s30.333 29.834 52 39.501s48.834 14.5 81.501 14.5c17.333 0 35.666 -2.33301 54.999 -7s37.333 -11 54 -19l-24 -59c-6.66699 3.33301 -17 7.16602 -31 11.499
s-29.667 6.5 -47 6.5c-18.667 0 -33.5 -3 -44.5 -9s-19.333 -14.5 -25 -25.5s-9.33398 -24.333 -11.001 -40s-2.5 -33.167 -2.5 -52.5v-41h215v52c0 24.667 3.16699 48.167 9.5 70.5s17.333 41.833 33 58.5s36.167 29.834 61.5 39.501s57 14.5 95 14.5
c42 0 77.167 -4.83301 105.5 -14.5s51.166 -19.5 68.499 -29.5l-29 -60c-14 8.66699 -32.833 17 -56.5 25s-49.834 12 -78.501 12c-23.333 0 -42.5 -2.66699 -57.5 -8s-26.833 -13.166 -35.5 -23.499s-14.667 -23 -18 -38s-5 -32.167 -5 -51.5v-47h305v-501h-93v433h-212
v-433h-93v433h-215v-433h-93v433z" />
    <glyph glyph-name="ffl" unicode="ffl" horiz-adv-x="883" 
d="M99 433l-70.999 -0.000976562v68h71v52c0 24.667 2.66699 48.167 8 70.5s14.5 41.833 27.5 58.5s30.333 29.834 52 39.501s48.834 14.5 81.501 14.5c17.333 0 35.666 -2.33301 54.999 -7s37.333 -11 54 -19l-24 -59c-6.66699 3.33301 -17 7.16602 -31 11.499
s-29.667 6.5 -47 6.5c-18.667 0 -33.5 -3 -44.5 -9s-19.333 -14.5 -25 -25.5s-9.33398 -24.333 -11.001 -40s-2.5 -33.167 -2.5 -52.5v-41h213v52c0 24.667 3.16699 48.167 9.5 70.5s17.333 41.833 33 58.5s36.167 29.834 61.5 39.501s57 14.5 95 14.5
c40.667 0 77.167 -3.83301 109.5 -11.5s62.166 -17.167 89.499 -28.5v-696h-93v651c-13.333 5.33301 -28.333 9.66602 -45 12.999s-34 5 -52 5c-23.333 0 -42.5 -2.66699 -57.5 -8s-26.667 -13.166 -35 -23.499s-14.166 -23 -17.499 -38s-5 -32.167 -5 -51.5v-47h144v-68
h-144v-433h-93v433h-213v-433h-93v433z" />
    <glyph glyph-name=".notdef" horiz-adv-x="560" 
d="M50 700h460v-700h-460v700zM445 54v592h-330v-592h330z" />
    <glyph glyph-name="space" unicode=" " horiz-adv-x="194" 
 />
    <glyph glyph-name="exclam" unicode="!" horiz-adv-x="276" 
d="M87 721h104l-13 -516h-78zM139 -17c-22 0 -38 6.5 -48 19.5s-15 29.5 -15 49.5s5 36.5 15 49.5s26 19.5 48 19.5c21.333 0 37 -6.5 47 -19.5s15 -29.5 15 -49.5s-5 -36.5 -15 -49.5s-25.667 -19.5 -47 -19.5z" />
    <glyph glyph-name="quotedbl" unicode="&#x22;" horiz-adv-x="338" 
d="M51 721h84l-8 -289h-68zM202 721h84l-8 -289h-68z" />
    <glyph glyph-name="numbersign" unicode="#" horiz-adv-x="723" 
d="M155 201h-113v72h128l36 181h-112v73h127l28 143h80l-28 -143h170l30 143h78l-28 -143h118v-73h-134l-35 -181h116v-72h-131l-32 -162h-79l31 162h-170l-31 -162h-81zM421 273l36 181h-171l-36 -181h171z" />
    <glyph glyph-name="dollar" unicode="$" horiz-adv-x="594" 
d="M85 126c14 -8 27.832 -15.3311 41.499 -21.998s27.834 -12.334 42.501 -17.001s30.167 -8.33398 46.5 -11.001s34.5 -4 54.5 -4c53.333 0 93.666 11.333 120.999 34s41 52 41 88c0 22.667 -3.83301 41.334 -11.5 56.001s-18.334 26.834 -32.001 36.501
s-30.167 17.667 -49.5 24s-40.666 12.5 -63.999 18.5c-26.667 6.66699 -52.167 13.5 -76.5 20.5s-45.833 16.833 -64.5 29.5s-33.667 30 -45 52s-17 51.667 -17 89c0 50.667 15 94 45 130s76.667 58.667 140 68v89h80v-86c33.333 -2 66 -8.16699 98 -18.5
s56.667 -21.5 74 -33.5l-33 -66c-21.333 13.333 -45.833 24.5 -73.5 33.5s-56.167 13.5 -85.5 13.5c-49.333 0 -87.166 -8.66699 -113.499 -26s-39.5 -48.333 -39.5 -93c0 -20 4.16699 -36.333 12.5 -49s19.5 -23 33.5 -31s29.833 -14.5 47.5 -19.5
s36.167 -9.83301 55.5 -14.5c25.333 -6.66699 50.833 -14.167 76.5 -22.5s48.667 -19.833 69 -34.5s36.833 -33.834 49.5 -57.501s19 -54.167 19 -91.5c0 -56.667 -16.833 -103.334 -50.5 -140.001s-80.167 -60 -139.5 -70v-95h-80v90c-42 1.33301 -80 7.33301 -114 18
s-65 25 -93 43z" />
    <glyph glyph-name="percent" unicode="%" horiz-adv-x="868" 
d="M205 325c-29.333 0 -54.3311 5.16504 -74.998 15.498s-37.5 24.333 -50.5 42s-22.333 38.334 -28 62.001s-8.5 49.167 -8.5 76.5c0 28 3.33301 54 10 78s17 45 31 63s31.667 32.167 53 42.5s46.666 15.5 75.999 15.5c26 0 48.667 -5 68 -15s35.5 -23.833 48.5 -41.5
s22.667 -38.667 29 -63s9.5 -50.5 9.5 -78.5s-3.5 -54.167 -10.5 -78.5s-17.167 -45.166 -30.5 -62.499s-30.333 -31 -51 -41s-44.334 -15 -71.001 -15zM207.002 385.998c26 0 45.667 11.667 59 35s20 57 20 101s-6.66699 77.833 -20 101.5s-33 35.5 -59 35.5
c-28 0 -48.333 -11.833 -61 -35.5s-19 -57.5 -19 -101.5s6.33301 -77.667 19 -101s33 -35 61 -35zM662.002 -9.00195c-29.333 0 -54.3311 5.16504 -74.998 15.498s-37.5 24.333 -50.5 42s-22.333 38.334 -28 62.001s-8.5 49.167 -8.5 76.5c0 28 3.33301 54 10 78
s17 45 31 63s31.667 32.167 53 42.5s46.666 15.5 75.999 15.5c26 0 48.667 -5 68 -15s35.5 -23.833 48.5 -41.5s22.667 -38.667 29 -63s9.5 -50.5 9.5 -78.5s-3.5 -54.167 -10.5 -78.5s-17.167 -45.166 -30.5 -62.499s-30.333 -31 -51 -41s-44.334 -15 -71.001 -15z
M664.004 51.9961c26 0 45.5 11.667 58.5 35s19.5 57 19.5 101s-6.5 77.833 -19.5 101.5s-32.5 35.5 -58.5 35.5c-28 0 -48.5 -11.833 -61.5 -35.5s-19.5 -57.5 -19.5 -101.5s6.5 -77.667 19.5 -101s33.5 -35 61.5 -35zM614.004 711.996h91l-459 -712h-90z" />
    <glyph glyph-name="ampersand" unicode="&#x26;" horiz-adv-x="695" 
d="M488 101c-14 -17.333 -28.499 -33.3359 -43.499 -48.0029s-31.333 -27.167 -49 -37.5s-37.334 -18.5 -59.001 -24.5s-45.834 -9 -72.501 -9c-43.333 0 -78.833 5.83301 -106.5 17.5s-49.5 26.5 -65.5 44.5s-27 38 -33 60s-9 43.333 -9 64c0 28 4.33301 54 13 78
s20.5 46.5 35.5 67.5s32.833 40.833 53.5 59.5s43 37.334 67 56.001c-19.333 26 -33.166 49.5 -41.499 70.5s-12.5 43.5 -12.5 67.5c0 22.667 4.5 44.167 13.5 64.5s22 38 39 53s37.667 27 62 36s51.833 13.5 82.5 13.5c38 0 70 -4.83301 96 -14.5s47 -20.167 63 -31.5
l-36 -63c-15.333 10.667 -32 20 -50 28s-40.667 12 -68 12c-33.333 0 -59.166 -8.16699 -77.499 -24.5s-27.5 -39.833 -27.5 -70.5c0 -21.333 6.16699 -42.166 18.5 -62.499s26.166 -40.166 41.499 -59.499l175 -214l87 140l68 -21l-109 -175l132 -167l-90 -29z
M267.001 373.997l-47.998 -42.499c-14.667 -13 -27.334 -26.5 -38.001 -40.5s-18.834 -29.167 -24.501 -45.5s-8.5 -35.5 -8.5 -57.5c0 -16.667 2.33301 -32.834 7 -48.501s12.167 -29.5 22.5 -41.5s23.5 -21.667 39.5 -29s35.333 -11 58 -11c20 0 38 2.83301 54 8.5
s30.667 13.167 44 22.5s25.5 20 36.5 32l32.5 37z" />
    <glyph glyph-name="quotesingle" unicode="'" horiz-adv-x="186" 
d="M51 721h84l-8 -289h-68z" />
    <glyph glyph-name="parenleft" unicode="(" horiz-adv-x="353" 
d="M286 -160c-30 23.333 -58.5 51.498 -85.5 84.498s-50.667 69.167 -71 108.5s-36.333 81.333 -48 126s-17.5 90.667 -17.5 138c0 46.667 5.83301 92.334 17.5 137.001s27.667 86.834 48 126.501s44 76 71 109s55.5 61.167 85.5 84.5l51 -47
c-32 -30.667 -59.333 -63.5 -82 -98.5s-41 -70.5 -55 -106.5s-24.333 -71.5 -31 -106.5s-10 -67.833 -10 -98.5s3.33301 -63.5 10 -98.5s17 -70.5 31 -106.5s32.333 -71.5 55 -106.5s50 -67.833 82 -98.5z" />
    <glyph glyph-name="parenright" unicode=")" horiz-adv-x="353" 
d="M16 -114c32 30.667 59.3311 63.502 81.998 98.502s41 70.5 55 106.5s24.333 71.5 31 106.5s10 67.833 10 98.5s-3.16699 63.5 -9.5 98.5s-16.666 70.5 -30.999 106.5s-32.666 71.5 -54.999 106.5s-49.5 67.833 -81.5 98.5l51 47c30 -23.333 58.5 -51.5 85.5 -84.5
s50.5 -69.333 70.5 -109s35.833 -81.834 47.5 -126.501s17.5 -90.334 17.5 -137.001c0 -47.333 -5.83301 -93.333 -17.5 -138s-27.667 -86.667 -48 -126s-44 -75.5 -71 -108.5s-55.5 -61.167 -85.5 -84.5z" />
    <glyph glyph-name="asterisk" unicode="*" horiz-adv-x="504" 
d="M204 499l-146 35l25 83l139 -62l-12 166h84l-11 -166l138 60l26 -81l-148 -35l106 -122l-69 -51l-84 135l-85 -136l-69 51z" />
    <glyph glyph-name="plus" unicode="+" horiz-adv-x="590" 
d="M254 300h-183v80h183v193h81v-193h183v-80h-183v-193h-81v193z" />
    <glyph glyph-name="comma" unicode="," horiz-adv-x="211" 
d="M78 105l97 -22l-74 -230l-63 17z" />
    <glyph glyph-name="hyphen" unicode="-" horiz-adv-x="451" 
d="M74 359h303v-89h-303v89z" />
    <glyph glyph-name="period" unicode="." horiz-adv-x="247" 
d="M124 -17c-22 0 -38 6.5 -48 19.5s-15 29.5 -15 49.5s5 36.5 15 49.5s26 19.5 48 19.5c21.333 0 37 -6.5 47 -19.5s15 -29.5 15 -49.5s-5 -36.5 -15 -49.5s-25.667 -19.5 -47 -19.5z" />
    <glyph glyph-name="slash" unicode="/" horiz-adv-x="451" 
d="M346 764h94l-333 -842h-94z" />
    <glyph glyph-name="zero" unicode="0" horiz-adv-x="594" 
d="M297 -13c-46.667 0 -86 8.99805 -118 26.998s-58 43 -78 75s-34.5 70.333 -43.5 115s-13.5 93.667 -13.5 147c0 52.667 4.66699 101.5 14 146.5s24 84 44 117s46 59 78 78s71 28.5 117 28.5c46.667 0 86 -9.33301 118 -28s58 -44.5 78 -77.5s34.5 -72 43.5 -117
s13.5 -94.167 13.5 -147.5c0 -52.667 -4.66699 -101.167 -14 -145.5s-24 -82.666 -44 -114.999s-46 -57.666 -78 -75.999s-71 -27.5 -117 -27.5zM297 58.998c30 0 54.6689 6.66797 74.002 20.001s34.833 32.666 46.5 57.999s19.834 56.166 24.501 92.499s7 77.5 7 123.5
c0 45.333 -2.5 86.166 -7.5 122.499s-13.333 67.333 -25 93s-27.334 45.5 -47.001 59.5s-43.834 21 -72.501 21c-30 0 -54.833 -6.83301 -74.5 -20.5s-35.167 -33.167 -46.5 -58.5s-19.333 -56.333 -24 -93s-7 -78 -7 -124c0 -45.333 2.5 -86.166 7.5 -122.499
s13.333 -67.166 25 -92.499s27.167 -44.833 46.5 -58.5s43.666 -20.5 72.999 -20.5z" />
    <glyph glyph-name="one" unicode="1" horiz-adv-x="594" 
d="M115 71h166.998v540c0 6.66699 -0.333008 11.5 -1 14.5s-3.33398 4.5 -8.00098 4.5c-3.33301 0 -6.16602 -0.833008 -8.49902 -2.5l-10.5 -7.5l-130 -102l-42 54l143 117c11.333 10 22.833 17.833 34.5 23.5s25.834 8.5 42.501 8.5
c8.66699 0 17.334 -0.833008 26.001 -2.5s16.5 -5 23.5 -10s12.5 -11.833 16.5 -20.5s6 -19.667 6 -33v-584h158v-71h-417v71z" />
    <glyph glyph-name="two" unicode="2" horiz-adv-x="594" 
d="M522 74l0.00390625 -73.998h-366c-32 0 -55.333 6.5 -70 19.5s-22 31.5 -22 55.5c0 13.333 2.5 26.666 7.5 39.999s16.833 28.666 35.5 45.999l170 161l64.5 63c17.667 18 32 35 43 51s19 32 24 48s7.5 33.667 7.5 53c0 39.333 -11.333 67.666 -34 84.999
s-51.667 26 -87 26c-20.667 0 -39.667 -2.16699 -57 -6.5s-33.333 -9.83301 -48 -16.5s-28.167 -14 -40.5 -22s-23.5 -15.667 -33.5 -23l-40 60c27.333 21.333 59.666 40.166 96.999 56.499s80.333 24.5 129 24.5c35.333 0 66.166 -4.83301 92.499 -14.5
s48.166 -22.667 65.499 -39s30.333 -35.666 39 -57.999s13 -46.166 13 -71.499c0 -24.667 -3.66699 -47.834 -11 -69.501s-18 -43 -32 -64s-31.167 -42.167 -51.5 -63.5s-43.5 -44.333 -69.5 -69l-184 -171c-2.66699 -2.66699 -4.83398 -5.16699 -6.50098 -7.5
s-2.5 -5.16602 -2.5 -8.49902c0 -7.33301 5.33301 -11 16 -11h351z" />
    <glyph glyph-name="three" unicode="3" horiz-adv-x="594" 
d="M76 117c20.667 -14.667 47.332 -27.835 79.999 -39.502s69.334 -17.5 110.001 -17.5c46 0 82.667 12.667 110 38s41 61 41 107c0 48.667 -13.333 84.334 -40 107.001s-72 34 -136 34h-49v58l208 209c5.33301 6 8 11.333 8 16c0 7.33301 -5.33301 11 -16 11h-323v72h332
c29.333 0 51.5 -5.5 66.5 -16.5s22.5 -29.167 22.5 -54.5c0 -14.667 -2.5 -28 -7.5 -40s-16.5 -26.667 -34.5 -44l-152 -148c68 -2 121.167 -19.333 159.5 -52s57.5 -81.667 57.5 -147c0 -29.333 -4.66699 -57.5 -14 -84.5s-24.166 -50.667 -44.499 -71
s-46.333 -36.666 -78 -48.999s-69.834 -18.5 -114.501 -18.5c-45.333 0 -87.833 6 -127.5 18s-71.167 27 -94.5 45z" />
    <glyph glyph-name="four" unicode="4" horiz-adv-x="594" 
d="M364 184l-228.001 0.000976562c-32 0 -55.333 6 -70 18s-22 29.333 -22 52c0 16 3.33301 30.667 10 44s17.334 29.666 32.001 48.999l283 365h85v-455h105v-73h-105v-184h-90v184zM363.999 257.001v327l-217 -281c-2.66699 -3.33301 -5 -7 -7 -11s-3 -8.66699 -3 -14
c0 -14 8.66699 -21 26 -21h201z" />
    <glyph glyph-name="five" unicode="5" horiz-adv-x="594" 
d="M96 110c25.333 -16 52.498 -28.335 81.498 -37.002s58.5 -13 88.5 -13c52.667 0 90.834 15 114.501 45s35.5 69 35.5 117c0 26.667 -3.33301 49.334 -10 68.001s-16.167 33.834 -28.5 45.501s-27 20.167 -44 25.5s-35.833 8 -56.5 8c-19.333 0 -40 -2 -62 -6
s-43.667 -11 -65 -21l-45 31l28 339h351v-72h-279l-18 -217c30.667 12.667 68.334 19 113.001 19c24.667 0 49.667 -3.66699 75 -11s48.166 -19.166 68.499 -35.499s36.833 -38 49.5 -65s19 -59.833 19 -98.5c0 -33.333 -4.5 -64.833 -13.5 -94.5s-23.5 -55.667 -43.5 -78
s-45.833 -40 -77.5 -53s-70.167 -19.5 -115.5 -19.5c-46 0 -86.167 6.16699 -120.5 18.5s-61.166 25.166 -80.499 38.499z" />
    <glyph glyph-name="six" unicode="6" horiz-adv-x="594" 
d="M472 614c-23.333 13.333 -44.332 22.4951 -62.999 27.4951s-40.667 7.5 -66 7.5c-31.333 0 -57.333 -6.83301 -78 -20.5s-37.834 -31.667 -51.501 -54s-24 -48.166 -31 -77.499s-12.167 -59.666 -15.5 -90.999c19.333 14.667 40.333 26.5 63 35.5s52 13.5 88 13.5
c34 0 64.667 -5.83301 92 -17.5s50.333 -27.667 69 -48s33 -44.166 43 -71.499s15 -56.666 15 -87.999c0 -36.667 -5.5 -70 -16.5 -100s-26.5 -55.5 -46.5 -76.5s-44.333 -37.333 -73 -49s-60.667 -17.5 -96 -17.5c-81.333 0 -140.666 27.167 -177.999 81.5
s-56 134.166 -56 239.499c0 51.333 4.16699 101.833 12.5 151.5s22.666 93.834 42.999 132.501s48 69.834 83 93.501s79.167 35.5 132.5 35.5c36 0 66.5 -3.83301 91.5 -11.5s49.167 -18.167 72.5 -31.5zM163.001 326.995c0 -29.333 1.33008 -59.666 3.99707 -90.999
s8.83398 -60 18.501 -86s23.834 -47.5 42.501 -64.5s44.334 -25.5 77.001 -25.5c46.667 0 81.167 14.5 103.5 43.5s33.5 69.167 33.5 120.5c0 54 -12.667 94.167 -38 120.5s-60 39.5 -104 39.5c-26 0 -51.333 -5.33301 -76 -16s-45 -24.334 -61 -41.001z" />
    <glyph glyph-name="seven" unicode="7" horiz-adv-x="594" 
d="M401 610c1.33301 3.33301 2.83301 6.83203 4.5 10.499s2.5 7.16699 2.5 10.5c0 6 -5 9 -15 9h-334v72h380c26 0 44.167 -5.16699 54.5 -15.5s15.5 -25.166 15.5 -44.499c0 -11.333 -1.83301 -21.833 -5.5 -31.5s-8.5 -21.167 -14.5 -34.5l-250 -586h-102z" />
    <glyph glyph-name="eight" unicode="8" horiz-adv-x="594" 
d="M178 367c-28 16.667 -50.166 38.001 -66.499 64.001s-24.5 57 -24.5 93c0 30 5.16699 57 15.5 81s25 44.667 44 62s42 30.666 69 39.999s57.167 14 90.5 14c34.667 0 65 -4.66699 91 -14s47.667 -22.166 65 -38.499s30.333 -35.333 39 -57s13 -44.5 13 -68.5
c0 -22.667 -2.83301 -43.167 -8.5 -61.5s-13 -34.833 -22 -49.5s-19.167 -27.334 -30.5 -38.001s-22.666 -19.667 -33.999 -27c36.667 -16.667 65.334 -38.667 86.001 -66s31 -62.333 31 -105c0 -30 -5.5 -57.833 -16.5 -83.5s-27 -47.834 -48 -66.501
s-46.833 -33.167 -77.5 -43.5s-65.334 -15.5 -104.001 -15.5c-41.333 0 -76.833 5 -106.5 15s-53.834 23.833 -72.501 41.5s-32.334 38.5 -41.001 62.5s-13 49.667 -13 77c0 24.667 3.83301 46.834 11.5 66.501s17.334 37 29.001 52s24.667 27.833 39 38.5
s28.166 19.667 41.499 27zM246.001 337.001c-28.667 -12.667 -52.502 -31.168 -71.502 -55.501s-28.5 -56.166 -28.5 -95.499c0 -38.667 11.333 -69.834 34 -93.501s59.334 -35.5 110.001 -35.5c51.333 0 89.333 12.667 114 38s37.334 59.333 38.001 102
c0 34 -9.16699 59.833 -27.5 77.5s-44.5 30.834 -78.5 39.501zM348.999 393c23.333 11.333 42.333 28.832 57 52.499s22.334 52.834 23.001 87.501c0 34 -9.83301 62.333 -29.5 85s-51.834 34 -96.501 34c-44 0 -76.5 -10.667 -97.5 -32s-31.5 -50 -31.5 -86
c0 -30 8.33301 -55.833 25 -77.5s44 -37.167 82 -46.5z" />
    <glyph glyph-name="nine" unicode="9" horiz-adv-x="594" 
d="M115 101c20 -13.333 42.9951 -23.832 68.9951 -31.499s51.667 -11.5 77 -11.5c32.667 0 58.834 6.33301 78.501 19s35.334 30 47.001 52s20 47.833 25 77.5s9.16699 61.5 12.5 95.5c-13.333 -11.333 -32.666 -22.333 -57.999 -33s-55.666 -16 -90.999 -16
c-37.333 0 -69.666 5.83301 -96.999 17.5s-50 27.667 -68 48s-31.333 44.166 -40 71.499s-13 56.666 -13 87.999c0 36.667 5.33301 70 16 100s26 55.5 46 76.5s44.333 37.333 73 49s60.667 17.5 96 17.5c81.333 0 140.333 -27.167 177 -81.5s55 -134.166 55 -239.499
c0 -55.333 -3 -108 -9 -158s-18.167 -93.833 -36.5 -131.5s-44.333 -67.667 -78 -90s-77.834 -33.5 -132.501 -33.5c-36 0 -70.667 5 -104 15s-59.666 22 -78.999 36zM427.995 375.001c0 30.667 -1.16602 62.166 -3.49902 94.499s-8.16602 61.833 -17.499 88.5
s-23.333 48.334 -42 65.001s-44.334 25 -77.001 25c-46.667 0 -81 -14.5 -103 -43.5s-33 -69.167 -33 -120.5c0 -54 12.5 -94.167 37.5 -120.5s59.5 -39.5 103.5 -39.5c26 0 51.167 5 75.5 15s44.166 22 59.499 36z" />
    <glyph glyph-name="colon" unicode=":" horiz-adv-x="247" 
d="M124 -17c-22 0 -38 6.5 -48 19.5s-15 29.5 -15 49.5s5 36.5 15 49.5s26 19.5 48 19.5c21.333 0 37 -6.5 47 -19.5s15 -29.5 15 -49.5s-5 -36.5 -15 -49.5s-25.667 -19.5 -47 -19.5zM124 372c-22 0 -38 6.5 -48 19.5s-15 29.5 -15 49.5s5 36.5 15 49.5s26 19.5 48 19.5
c21.333 0 37 -6.5 47 -19.5s15 -29.5 15 -49.5s-5 -36.5 -15 -49.5s-25.667 -19.5 -47 -19.5z" />
    <glyph glyph-name="semicolon" unicode=";" horiz-adv-x="247" 
d="M124 372c-22 0 -38 6.5 -48 19.5s-15 29.5 -15 49.5s5 36.5 15 49.5s26 19.5 48 19.5c21.333 0 37 -6.5 47 -19.5s15 -29.5 15 -49.5s-5 -36.5 -15 -49.5s-25.667 -19.5 -47 -19.5zM78 105l97 -22l-74 -230l-63 17z" />
    <glyph glyph-name="less" unicode="&#x3c;" horiz-adv-x="590" 
d="M527 160l-52.999 -69.001l-316 134c-32 13.333 -56 27.833 -72 43.5s-24 38.5 -24 68.5c0 27.333 9 50 27 68s43.333 34 76 48l316 137l46 -68l-342 -147c-22.667 -9.33301 -34 -21.666 -34 -36.999c0 -10 3.16699 -17.5 9.5 -22.5s15.166 -9.83301 26.499 -14.5z" />
    <glyph glyph-name="equal" unicode="=" horiz-adv-x="590" 
d="M71 470h447v-80h-447v80zM71 290h447v-80h-447v80z" />
    <glyph glyph-name="greater" unicode="&#x3e;" horiz-adv-x="590" 
d="M62 159l340.999 148.001c22.667 9.33301 34 21.666 34 36.999c0 10 -3.16699 17.5 -9.5 22.5s-15.166 9.83301 -26.499 14.5l-339 140l53 69l316 -134c32 -13.333 56 -27.833 72 -43.5s24 -38.5 24 -68.5c0 -27.333 -9 -50 -27 -68s-43.333 -34 -76 -48l-316 -137z" />
    <glyph glyph-name="question" unicode="?" horiz-adv-x="569" 
d="M210 257c0 16 1.33008 29.8359 3.99707 41.5029s6.5 22.167 11.5 31.5s11.167 18.166 18.5 26.499s15.666 16.5 24.999 24.5l62 56c20.667 18 35.834 35.5 45.501 52.5s14.5 35.167 14.5 54.5c0 34.667 -10.167 62.667 -30.5 84s-53.5 32 -99.5 32
c-36.667 0 -69 -6 -97 -18s-52.333 -27 -73 -45l-39 60c28 22.667 60.333 41 97 55s76.334 21 119.001 21c36.667 0 68.834 -4.83301 96.501 -14.5s50.5 -22.667 68.5 -39s31.5 -35.333 40.5 -57s13.5 -44.834 13.5 -69.501c0 -38.667 -8.33301 -70.834 -25 -96.501
s-38 -49.5 -64 -71.5l-48 -40c-11.333 -9.33301 -21 -17.833 -29 -25.5s-14.667 -15.5 -20 -23.5s-9.16602 -16.667 -11.499 -26s-3.5 -20.333 -3.5 -33v-32h-76v52zM249.997 -16.9971c-22 0 -38 6.5 -48 19.5s-15 29.5 -15 49.5s5 36.5 15 49.5s26 19.5 48 19.5
c21.333 0 37 -6.5 47 -19.5s15 -29.5 15 -49.5s-5 -36.5 -15 -49.5s-25.667 -19.5 -47 -19.5z" />
    <glyph glyph-name="at" unicode="@" horiz-adv-x="962" 
d="M606 33c-17.333 -14 -37.1729 -25.999 -59.5059 -35.999s-48.166 -15 -77.499 -15c-127.333 0 -191 81.333 -191 244c0 36 4.83301 69 14.5 99s24 55.833 43 77.5s42.5 38.5 70.5 50.5s60.667 18 98 18c32 0 62.667 -3 92 -9s52.333 -12.667 69 -20v-356l20 -28
c40 11.333 70.833 38.166 92.5 80.499s32.5 94.166 32.5 155.499c0 46.667 -6.5 89.334 -19.5 128.001s-32.333 71.667 -58 99s-58 48.666 -97 63.999s-84.5 23 -136.5 23c-53.333 0 -101.166 -9.66699 -143.499 -29s-78.166 -46 -107.499 -80s-51.833 -74.333 -67.5 -121
s-23.5 -97.667 -23.5 -153c0 -63.333 8.83301 -118.166 26.5 -164.499s42.667 -84.833 75 -115.5s71.333 -53.334 117 -68.001s96.834 -22 153.501 -22c30 0 56.167 1.5 78.5 4.5s41.833 6.66699 58.5 11s30.834 9 42.501 14l31.5 13.5l27 -57c-6 -4 -16.167 -9 -30.5 -15
s-32 -12 -53 -18s-45 -11.167 -72 -15.5s-55.833 -6.5 -86.5 -6.5c-70 0 -133.5 8.83301 -190.5 26.5s-105.667 44.5 -146 80.5s-71.666 81.5 -93.999 136.5s-33.5 120.167 -33.5 195.5c0 68 11.667 130 35 186s54.833 103.667 94.5 143s86 69.833 139 91.5
s109.5 32.5 169.5 32.5s115 -8.66699 165 -26s93 -42.5 129 -75.5s63.833 -73.167 83.5 -120.5s29.5 -100.666 29.5 -159.999c0 -47.333 -7.33301 -89.5 -22 -126.5s-34.167 -68.833 -58.5 -95.5s-52 -47.667 -83 -63s-62.5 -24.333 -94.5 -27zM572.993 395.001
c-9.33301 3.33301 -20.167 6 -32.5 8s-26.5 3 -42.5 3c-84 0 -126 -59.667 -126 -179c0 -58.667 8.16699 -103 24.5 -133s42.5 -45 78.5 -45c24.667 0 43.667 3.33301 57 10s27 16.667 41 30v306z" />
    <glyph glyph-name="A" unicode="A" horiz-adv-x="646" 
d="M211 627c10.667 34 23.499 60.167 38.499 78.5s37.5 27.5 67.5 27.5c18 0 33 -1.33301 45 -4s22.333 -8 31 -16s16.334 -18.833 23.001 -32.5s13.667 -31.5 21 -53.5l196 -627l-96 -16l-79 248h-283l-76 -248l-81 17zM437.999 306l-95 313
c-4 13.333 -7.83301 22.5 -11.5 27.5s-8.5 7.5 -14.5 7.5c-7.33301 0 -12.5 -2.5 -15.5 -7.5s-6.5 -14.167 -10.5 -27.5l-95 -313h242z" />
    <glyph glyph-name="B" unicode="B" horiz-adv-x="624" 
d="M86 721l223 0.000976562c34 0 65.5 -3.5 94.5 -10.5s54 -18 75 -33s37.5 -34.5 49.5 -58.5s18 -53 18 -87c0 -30.667 -8.66699 -59.667 -26 -87s-41 -48.333 -71 -63c43.333 -15.333 75.833 -38.333 97.5 -69s32.5 -67.334 32.5 -110.001c0 -34 -6 -63.667 -18 -89
s-28.5 -46.5 -49.5 -63.5s-46 -29.667 -75 -38s-60.5 -12.5 -94.5 -12.5h-256v721zM326 71.001c52 0 90.501 11.5 115.501 34.5s37.5 56.833 37.5 101.5c0 26 -5 47.333 -15 64s-22.833 29.5 -38.5 38.5s-32.834 15.167 -51.501 18.5s-36.667 5 -54 5h-136v-262h142z
M322.001 408.001c21.333 0 39.833 3.33301 55.5 10s28.5 15.5 38.5 26.5s17.5 23.833 22.5 38.5s7.5 29.667 7.5 45c0 44.667 -12.5 76.167 -37.5 94.5s-63.5 27.5 -115.5 27.5h-109v-242h138z" />
    <glyph glyph-name="C" unicode="C" horiz-adv-x="593" 
d="M577 43c-21.333 -16 -50.499 -30.1699 -87.499 -42.5029s-77.5 -18.5 -121.5 -18.5c-57.333 0 -105.5 9.16699 -144.5 27.5s-70.667 44.166 -95 77.499s-41.833 73 -52.5 119s-16 97 -16 153c0 54 6.16699 104 18.5 150s31.166 85.833 56.499 119.5s57.5 60 96.5 79
s85.167 28.5 138.5 28.5c40.667 0 77.5 -5.33301 110.5 -16s60.167 -22.667 81.5 -36l-34 -65c-22 13.333 -45.833 23.833 -71.5 31.5s-53.5 11.5 -83.5 11.5c-28 0 -54.5 -4.33301 -79.5 -13s-47 -24.167 -66 -46.5s-34.167 -53.166 -45.5 -92.499
s-17 -89.666 -17 -150.999c0 -99.333 16.5 -174.166 49.5 -224.499s85.5 -75.5 157.5 -75.5c17.333 0 33 0.833008 47 2.5s27.5 4.33398 40.5 8.00098s26 8.5 39 14.5s26.833 13.333 41.5 22z" />
    <glyph glyph-name="D" unicode="D" horiz-adv-x="699" 
d="M86 721l228.002 0.000976562c56 0 104.333 -8.33301 145 -25s74.167 -40.5 100.5 -71.5s45.833 -68.833 58.5 -113.5s19 -95.334 19 -152.001c0 -55.333 -6.5 -105 -19.5 -149s-32.833 -81.667 -59.5 -113s-60.334 -55.333 -101.001 -72s-88.334 -25 -143.001 -25h-228
v721zM318.002 75.001c42 0 76.833 7 104.5 21s49.667 33.667 66 59s27.833 55.5 34.5 90.5s10 73.167 10 114.5c0 40 -3.5 77.5 -10.5 112.5s-18.667 65.5 -35 91.5s-38.333 46.5 -66 61.5s-62.167 22.5 -103.5 22.5h-134v-573h134z" />
    <glyph glyph-name="E" unicode="E" horiz-adv-x="577" 
d="M85 721h440v-76h-342v-231h258v-76h-258v-262h354v-76h-452v721z" />
    <glyph glyph-name="F" unicode="F" horiz-adv-x="565" 
d="M85 721h440v-76h-342v-231h258v-76h-258v-338h-98v721z" />
    <glyph glyph-name="G" unicode="G" horiz-adv-x="670" 
d="M512 300l-147 -0.00195312v76h240v-324c-19.333 -12 -38.166 -22.333 -56.499 -31s-37 -16 -56 -22s-38.833 -10.333 -59.5 -13s-42.667 -4 -66 -4c-58 0 -106.833 9.16699 -146.5 27.5s-71.667 44.166 -96 77.499s-41.666 73 -51.999 119s-15.5 97 -15.5 153
c0 54 6 104 18 150s30.833 85.833 56.5 119.5s58.667 60 99 79s89.166 28.5 146.499 28.5c39.333 0 76 -5.83301 110 -17.5s61.667 -24.167 83 -37.5l-35 -65c-22.667 14 -46.834 25.167 -72.501 33.5s-54.167 12.5 -85.5 12.5c-28 0 -55 -4.33301 -81 -13
s-48.833 -24.167 -68.5 -46.5s-35.5 -53.166 -47.5 -92.499s-18 -89.666 -18 -150.999c0 -99.333 16.5 -174.166 49.5 -224.499s85.833 -75.5 158.5 -75.5c52.667 0 100 11.333 142 34v207z" />
    <glyph glyph-name="H" unicode="H" horiz-adv-x="687" 
d="M86 721h98v-307h319v307h98v-721h-98v338h-319v-338h-98v721z" />
    <glyph glyph-name="I" unicode="I" horiz-adv-x="280" 
d="M91 721h98v-721h-98v721z" />
    <glyph glyph-name="J" unicode="J" horiz-adv-x="475" 
d="M44 93c15.333 -9.33301 33.833 -17.334 55.5 -24.001s47.167 -10 76.5 -10c39.333 0 68.5 12.833 87.5 38.5s28.5 67.834 28.5 126.501v497h98v-501c0 -77.333 -17 -136.333 -51 -177s-88.333 -61 -163 -61c-40 0 -73.333 4.33301 -100 13s-48 17.667 -64 27z" />
    <glyph glyph-name="K" unicode="K" horiz-adv-x="602" 
d="M84 721l94 -0.000976562v-315h59c13.333 0 22.833 1.33301 28.5 4s12.167 9 19.5 19l209 303l86 -18l-231 -334l247 -368l-102 -21l-208 312c-8 12.667 -15.667 20.334 -23 23.001s-16 4 -26 4h-59v-330h-94v721z" />
    <glyph glyph-name="L" unicode="L" horiz-adv-x="564" 
d="M85 721h98v-645h361v-76h-459v721z" />
    <glyph glyph-name="M" unicode="M" horiz-adv-x="807" 
d="M106 721l99.998 -0.000976562l169 -372c5.33301 -11.333 9.5 -18.833 12.5 -22.5s7.5 -5.5 13.5 -5.5c5.33301 0 9.5 2.16699 12.5 6.5s7.16699 11.5 12.5 21.5l181 372h94l37 -721h-96l-26 546l-118 -238c-6 -12 -11.833 -22.833 -17.5 -32.5s-12 -18 -19 -25
s-15.5 -12.5 -25.5 -16.5s-22.667 -6 -38 -6c-16 0 -29.167 1.83301 -39.5 5.5s-19.166 8.83398 -26.499 15.501s-13.666 15 -18.999 25s-11 21.667 -17 35l-111 241l-22 -550h-94z" />
    <glyph glyph-name="N" unicode="N" horiz-adv-x="693" 
d="M88 721l97 0.000976562l312 -615c4.66699 -9.33301 8.16699 -15.5 10.5 -18.5s5.16602 -4.5 8.49902 -4.5c5.33301 0 8 5 8 15v623h81v-621c0 -40 -8 -67.833 -24 -83.5s-37.333 -23.5 -64 -23.5c-12 0 -22.833 1 -32.5 3s-18.5 5.66699 -26.5 11
s-15.667 12.666 -23 21.999s-14.666 21.333 -21.999 36l-244 482v-547h-81v721z" />
    <glyph glyph-name="O" unicode="O" horiz-adv-x="722" 
d="M361 -18c-52 0 -97 8.83496 -135 26.502s-69.167 43 -93.5 76s-42.5 72.667 -54.5 119s-18 98.166 -18 155.499c0 54.667 6.16699 105.167 18.5 151.5s31 86.166 56 119.499s56.333 59.333 94 78s81.834 28 132.501 28c52 0 97 -9 135 -27s69.167 -43.5 93.5 -76.5
s42.5 -72.667 54.5 -119s18 -97.833 18 -154.5c0 -55.333 -6.16699 -106 -18.5 -152s-31 -85.667 -56 -119s-56.333 -59.333 -94 -78s-81.834 -28 -132.501 -28zM361 58.002c38.667 0 70.501 7.99805 95.501 23.998s45 37.667 60 65s25.5 59.333 31.5 96s9 75.667 9 117
c0 40 -3.33301 78.167 -10 114.5s-17.5 68.5 -32.5 96.5s-35.167 50.167 -60.5 66.5s-56.333 24.5 -93 24.5c-38.667 0 -70.5 -8 -95.5 -24s-45 -37.833 -60 -65.5s-25.5 -60 -31.5 -97s-9 -76.167 -9 -117.5c0 -40 3.16699 -78.167 9.5 -114.5
s17.166 -68.166 32.499 -95.499s35.5 -49.166 60.5 -65.499s56.167 -24.5 93.5 -24.5z" />
    <glyph glyph-name="P" unicode="P" horiz-adv-x="586" 
d="M85 721l218.999 -0.000976562c34 0 66 -3.33301 96 -10s56.167 -18.167 78.5 -34.5s39.833 -38 52.5 -65s19 -60.833 19 -101.5c0 -27.333 -5.16699 -54.166 -15.5 -80.499s-25.666 -49.833 -45.999 -70.5s-46 -37.5 -77 -50.5s-66.833 -19.5 -107.5 -19.5h-121v-289h-98
v721zM287.999 363.999c55.333 0 96.168 11.165 122.501 33.498s39.5 58.5 39.5 108.5c0 28.667 -3.83301 52.334 -11.5 71.001s-18.5 33.334 -32.5 44.001s-30.833 18 -50.5 22s-41.834 6 -66.501 6h-106v-285h105z" />
    <glyph glyph-name="Q" unicode="Q" horiz-adv-x="724" 
d="M468 -1c-32.667 -11.333 -68.001 -16.9971 -106.001 -16.9971c-52 0 -97 8.83301 -135 26.5s-69.167 43 -93.5 76s-42.5 72.667 -54.5 119s-18 98.166 -18 155.499c0 54.667 6.16699 105.167 18.5 151.5s31 86.166 56 119.499s56.333 59.333 94 78s81.834 28 132.501 28
c52 0 97 -9 135 -27s69.167 -43.5 93.5 -76.5s42.5 -72.667 54.5 -119s18 -97.833 18 -154.5c0 -70 -10 -132.333 -30 -187s-50 -98.334 -90 -131.001l105 -130l-75 -56zM361.999 57.0029c38.667 0 70.666 7.99805 95.999 23.998s45.5 37.667 60.5 65s25.5 59.5 31.5 96.5
s9 76.167 9 117.5c0 40 -3.33301 78.333 -10 115s-17.667 68.834 -33 96.501s-35.666 49.834 -60.999 66.501s-56.333 25 -93 25c-38.667 0 -70.667 -8.16699 -96 -24.5s-45.5 -38.333 -60.5 -66s-25.5 -60 -31.5 -97s-9 -76.167 -9 -117.5c0 -40 3.33301 -78.167 10 -114.5
s17.667 -68.333 33 -96s35.5 -49.667 60.5 -66s56.167 -24.5 93.5 -24.5z" />
    <glyph glyph-name="R" unicode="R" horiz-adv-x="608" 
d="M86 721l209.003 0.00292969c33.333 0 64.833 -3 94.5 -9s55.5 -16.5 77.5 -31.5s39.333 -35.5 52 -61.5s19 -59 19 -99c0 -26 -4.33301 -49.833 -13 -71.5s-20.334 -40.834 -35.001 -57.501s-31.334 -30.5 -50.001 -41.5s-38.334 -18.833 -59.001 -23.5
c10.667 -6.66699 21 -15.834 31 -27.501s19 -24.167 27 -37.5l153 -255l-102 -21l-152 254c-8 13.333 -15.667 24.5 -23 33.5s-15.5 16.167 -24.5 21.5s-19.167 9.16602 -30.5 11.499s-25.333 3.5 -42 3.5h-34v-309h-98v721zM282.003 384.003
c47.333 0 85.501 10.333 114.501 31s43.5 54.334 43.5 101.001c0 28 -4 50.833 -12 68.5s-19 31.167 -33 40.5s-30.833 15.666 -50.5 18.999s-40.834 5 -63.501 5h-97v-265h98z" />
    <glyph glyph-name="S" unicode="S" horiz-adv-x="573" 
d="M71 112c28.667 -17.333 58.167 -30.498 88.5 -39.498s67.166 -13.5 110.499 -13.5c54 0 93.833 11.333 119.5 34s38.5 53 38.5 91c0 24 -4.33301 43.667 -13 59s-20.334 28.166 -35.001 38.499s-31.667 18.666 -51 24.999s-39.333 12.5 -60 18.5
c-25.333 6.66699 -50.666 14.334 -75.999 23.001s-48.166 20.334 -68.499 35.001s-36.833 34 -49.5 58s-19 55 -19 93c0 27.333 5 53.166 15 77.499s25.333 45.833 46 64.5s46.667 33.334 78 44.001s68 16 110 16c19.333 0 38.833 -1.5 58.5 -4.5s38.5 -7 56.5 -12
s34.667 -10.667 50 -17s29 -13.166 41 -20.499l-35 -67c-22 14 -47.833 25.5 -77.5 34.5s-59.167 13.5 -88.5 13.5c-52 0 -91.5 -10 -118.5 -30s-40.5 -49 -40.5 -87c0 -22.667 4.66699 -41.334 14 -56.001s22 -26.834 38 -36.501s34.167 -17.834 54.5 -24.501l63.5 -20
c24.667 -7.33301 49.167 -15.5 73.5 -24.5s46.333 -21 66 -36s35.5 -34 47.5 -57s18 -52.167 18 -87.5c0 -68 -22.333 -122 -67 -162s-109 -60 -193 -60c-46 0 -88.5 5 -127.5 15s-73.5 24.667 -103.5 44z" />
    <glyph glyph-name="T" unicode="T" horiz-adv-x="549" 
d="M225 647h-205v74h509v-74h-206v-647h-98v647z" />
    <glyph glyph-name="U" unicode="U" horiz-adv-x="688" 
d="M86 721h98.0029v-433c0 -35.333 1.66699 -67.333 5 -96s10.5 -53 21.5 -73s27 -35.333 48 -46s49.167 -16 84.5 -16s64.166 5 86.499 15s39.666 24.667 51.999 44s20.833 43 25.5 71s7 60.333 7 97v437h88v-439c0 -44 -4 -84.5 -12 -121.5s-22 -68.667 -42 -95
s-46.833 -46.833 -80.5 -61.5s-76.167 -22 -127.5 -22c-50.667 0 -92.334 6.33301 -125.001 19s-58.5 31.167 -77.5 55.5s-32.333 54.5 -40 90.5s-11.5 77.333 -11.5 124v450z" />
    <glyph glyph-name="V" unicode="V" horiz-adv-x="638" 
d="M12 715l98.998 15.999l192 -635c4.66699 -13.333 8.33398 -22.5 11.001 -27.5s7 -7.5 13 -7.5c7.33301 0 12 2.5 14 7.5s5.33301 14.167 10 27.5l188 635l84 -17l-188 -626c-10 -34 -23.333 -60.167 -40 -78.5s-40 -27.5 -70 -27.5c-17.333 0 -32.166 1.5 -44.499 4.5
s-23.333 8.33301 -33 16s-18 18.334 -25 32.001s-13.833 31.5 -20.5 53.5z" />
    <glyph glyph-name="W" unicode="W" horiz-adv-x="912" 
d="M15 712l98.0029 16.002l142 -632c3.33301 -13.333 5.83301 -22.5 7.5 -27.5s5.5 -7.5 11.5 -7.5c7.33301 0 12.166 2.5 14.499 7.5s5.16602 14.167 8.49902 27.5l125 625h81l138 -625c3.33301 -13.333 6.16602 -22.5 8.49902 -27.5s6.16602 -7.5 11.499 -7.5
c7.33301 0 12 2.5 14 7.5s4.66699 14.167 8 27.5l129 632l85 -16l-129 -624c-15.333 -70.667 -52.333 -106 -111 -106c-17.333 0 -32.166 2 -44.499 6s-22.833 10.167 -31.5 18.5s-15.834 19.166 -21.501 32.499s-10.834 29.666 -15.501 48.999l-87 403l-75 -403
c-9.33301 -39.333 -22.166 -66.833 -38.499 -82.5s-40.166 -23.5 -71.499 -23.5c-35.333 0 -61.5 8.16699 -78.5 24.5s-29.833 43.5 -38.5 81.5z" />
    <glyph glyph-name="X" unicode="X" horiz-adv-x="611" 
d="M220 365l-207 338l95 28l173 -286c4 -7.33301 7.33301 -12.166 10 -14.499s6.33398 -3.5 11.001 -3.5c5.33301 0 9.33301 1.83301 12 5.5s5.66699 8.16699 9 13.5l167 288l84 -26l-193 -334l220 -358l-95 -26l-183 302c-4.66699 7.33301 -8.33398 12.666 -11.001 15.999
s-6.66699 5 -12 5s-9.5 -2 -12.5 -6l-12.5 -17l-180 -300l-85 28z" />
    <glyph glyph-name="Y" unicode="Y" horiz-adv-x="569" 
d="M233 279c-8 4 -14.667 8.66699 -20 14s-10.333 11.833 -15 19.5s-9.33398 16.5 -14.001 26.5l-16 34l-153 339l92 18l156 -349c5.33301 -12 9.5 -20.833 12.5 -26.5s6.83301 -8.5 11.5 -8.5s8.5 2.66699 11.5 8l14.5 27l160 347l81 -19l-159 -336
c-11.333 -22 -21.666 -41 -30.999 -57s-20.333 -28 -33 -36v-280h-98v279z" />
    <glyph glyph-name="Z" unicode="Z" horiz-adv-x="548" 
d="M525 74v-74h-417c-32 -0 -54.833 6.33301 -68.5 19s-20.5 30.334 -20.5 53.001c0 10 2.5 21.333 7.5 34s14.833 29.667 29.5 51l335 490h-347v74h479v-55l-394 -565c-4.66699 -6.66699 -7 -12.334 -7 -17.001c0 -6.66699 5.33301 -10 16 -10h387z" />
    <glyph glyph-name="bracketleft" unicode="[" horiz-adv-x="330" 
d="M69 741h240v-68h-147v-749h147v-69h-240v886z" />
    <glyph glyph-name="backslash" unicode="\" horiz-adv-x="451" 
d="M11 764h94l333 -842h-94z" />
    <glyph glyph-name="bracketright" unicode="]" horiz-adv-x="330" 
d="M21 -77h147v749h-147v69h240v-886h-240v68z" />
    <glyph glyph-name="asciicircum" unicode="^" horiz-adv-x="539" 
d="M164 634c8 18 15.1641 33.333 21.4971 46s13.333 23 21 31s16.334 13.833 26.001 17.5s21.834 5.5 36.501 5.5s26.834 -1.83301 36.501 -5.5s18.167 -9.5 25.5 -17.5s14.333 -18.333 21 -31s14 -28 22 -46l113 -252l-74 -29l-116 276c-4.66699 10.667 -9 18.667 -13 24
s-9 8 -15 8s-11 -2.66699 -15 -8s-8.33301 -13.333 -13 -24l-116 -276l-74 29z" />
    <glyph glyph-name="underscore" unicode="_" horiz-adv-x="517" 
d="M49 0h419v-79h-419v79z" />
    <glyph glyph-name="grave" unicode="`" horiz-adv-x="289" 
d="M50 745l73 51l116 -180l-46 -34z" />
    <glyph glyph-name="a" unicode="a" horiz-adv-x="513" 
d="M363 41c-19.333 -15.333 -41.001 -28.9971 -65.001 -40.9971s-54.667 -18 -92 -18c-49.333 0 -89 13.167 -119 39.5s-45 67.166 -45 122.499c0 29.333 5.16699 54.166 15.5 74.499s24.833 37 43.5 50s41.167 22.5 67.5 28.5s55.5 9 87.5 9h86v25
c0 42 -6.5 72.167 -19.5 90.5s-37.833 27.5 -74.5 27.5c-48 0 -97 -10 -147 -30l-23 62c19.333 8 44 16.333 74 25s66 13 108 13c39.333 0 70.333 -5.33301 93 -16s39.834 -25.334 51.501 -44.001s19.167 -40.667 22.5 -66s5 -52.333 5 -81v-215l43 -64l-65 -49z
M341.999 244.003l-79.999 0.000976562c-46 0 -78.667 -7 -98 -21s-29 -39 -29 -75c0 -32.667 7.16699 -56.834 21.5 -72.501s35.166 -23.5 62.499 -23.5c29.333 0 54.5 5.33301 75.5 16s36.833 21.667 47.5 33v143z" />
    <glyph glyph-name="b" unicode="b" horiz-adv-x="561" 
d="M82 721l92.998 0.000976562v-229c16.667 8 34.5 14.5 53.5 19.5s40.167 7.5 63.5 7.5c67.333 0 119.5 -22.333 156.5 -67s55.5 -111.334 55.5 -200.001c0 -39.333 -4.33301 -75.5 -13 -108.5s-22.667 -61.5 -42 -85.5s-44.666 -42.667 -75.999 -56
s-69.666 -20 -114.999 -20c-37.333 0 -72 2.66699 -104 8s-56 11.333 -72 18v713zM174.998 58.001c8 -3.33301 20.668 -5.83398 38.001 -7.50098s35.666 -2.5 54.999 -2.5c50 0 85.833 17.167 107.5 51.5s32.5 85.833 32.5 154.5c0 60 -9.83301 107.833 -29.5 143.5
s-53.167 53.5 -100.5 53.5c-20 0 -39.833 -2.66699 -59.5 -8s-34.167 -11.666 -43.5 -18.999v-366z" />
    <glyph glyph-name="c" unicode="c" horiz-adv-x="473" 
d="M452 22c-18 -10 -40.5 -19.165 -67.5 -27.498s-58.167 -12.5 -93.5 -12.5c-45.333 0 -83 6.5 -113 19.5s-54 31 -72 54s-30.833 50.667 -38.5 83s-11.5 68.166 -11.5 107.499c0 38.667 4.66699 74.667 14 108s23.833 62.333 43.5 87s44.667 43.834 75 57.501
s66.833 20.5 109.5 20.5c30.667 0 58.834 -4 84.501 -12s47.5 -17.333 65.5 -28l-28 -62c-18 9.33301 -37 17.166 -57 23.499s-42.667 9.5 -68 9.5c-49.333 0 -85.5 -16.833 -108.5 -50.5s-34.5 -84.834 -34.5 -153.501c0 -30 2.5 -56.833 7.5 -80.5s13.167 -44 24.5 -61
s26.333 -30 45 -39s41.667 -13.5 69 -13.5c22 0 42.167 2 60.5 6s40.166 12 65.499 24z" />
    <glyph glyph-name="d" unicode="d" horiz-adv-x="569" 
d="M392 439c-9.33301 3.33301 -22.5 6.5 -39.5 9.5s-35.167 4.5 -54.5 4.5c-50 0 -86.833 -17.333 -110.5 -52s-35.5 -85 -35.5 -151c0 -62.667 9.66699 -111.667 29 -147s51.333 -53 96 -53c28 0 50.667 4.66699 68 14s33 20.333 47 33v342zM417 38
c-19.333 -15.333 -41.3291 -28.5 -65.9961 -39.5s-54 -16.5 -88 -16.5c-68.667 0 -120.334 22.167 -155.001 66.5s-52 111.5 -52 201.5c0 40 5.16699 76.5 15.5 109.5s25.666 61.333 45.999 85s45.833 42 76.5 55s66 19.5 106 19.5c17.333 0 33.666 -1.33301 48.999 -4
s29.666 -5.66699 42.999 -9v230h93v-639l43 -64l-65 -49z" />
    <glyph glyph-name="e" unicode="e" horiz-adv-x="530" 
d="M385 291c0 53.333 -9.66895 93.668 -29.002 121.001s-48 41 -86 41c-41.333 0 -70.666 -14.333 -87.999 -43s-27.666 -68.334 -30.999 -119.001h234zM459.998 21.002c-16 -9.33301 -39.1689 -18.166 -69.502 -26.499s-62.166 -12.5 -95.499 -12.5
c-46 0 -84.333 6.5 -115 19.5s-55.167 31.167 -73.5 54.5s-31.333 51.5 -39 84.5s-11.5 69.5 -11.5 109.5c0 36.667 4.33301 71.334 13 104.001s22 61.167 40 85.5s41 43.666 69 57.999s61.667 21.5 101 21.5c37.333 0 68.833 -7.66699 94.5 -23
s46.334 -35.166 62.001 -59.499s27 -52 34 -83s10.5 -61.833 10.5 -92.5l-33 -35h-297c2.66699 -58.667 15.667 -102.334 39 -131.001s59 -43 107 -43c25.333 0 49.333 2.66699 72 8s44 12.666 64 21.999z" />
    <glyph glyph-name="f" unicode="f" horiz-adv-x="352" 
d="M99 433h-70.999v68h71v52c0 24.667 2.66699 48.167 8 70.5s14.5 41.833 27.5 58.5s30.333 29.834 52 39.501s48.834 14.5 81.501 14.5c17.333 0 35.666 -2.33301 54.999 -7s37.333 -11 54 -19l-24 -59c-6.66699 3.33301 -17 7.16602 -31 11.499s-29.667 6.5 -47 6.5
c-18.667 0 -33.5 -3 -44.5 -9s-19.333 -14.5 -25 -25.5s-9.33398 -24.333 -11.001 -40s-2.5 -33.167 -2.5 -52.5v-41h144v-68h-144v-433h-93v433z" />
    <glyph glyph-name="g" unicode="g" horiz-adv-x="564" 
d="M389 399c-10.667 11.333 -24.667 22.833 -42 34.5s-41 17.5 -71 17.5c-40 0 -70.667 -16.167 -92 -48.5s-32 -83.166 -32 -152.499c0 -62.667 10.333 -110.334 31 -143.001s54.667 -49 102 -49c21.333 0 40 2.16699 56 6.5s32 11.833 48 22.5v312zM108 -121
c18 -8.66699 38.1719 -16.668 60.5049 -24.001s49.5 -11 81.5 -11c52.667 0 89 12.167 109 36.5s30 62.5 30 114.5v22c-16.667 -8 -34.334 -14.5 -53.001 -19.5s-38.334 -7.5 -59.001 -7.5c-74 0 -129.333 20.833 -166 62.5s-55 107.5 -55 197.5c0 36 3.5 70.333 10.5 103
s18.667 61.167 35 85.5s38.166 43.833 65.499 58.5s61 22 101 22c17.333 0 33.166 -2 47.499 -6s27.166 -8.83301 38.499 -14.5s21.166 -11.667 29.499 -18s15.5 -12.166 21.5 -17.499l40 58l74 -39l-37 -85v-419c0 -64 -18.667 -113.833 -56 -149.5
s-93.666 -53.5 -168.999 -53.5c-33.333 0 -65.333 3 -96 9s-57.667 15.667 -81 29z" />
    <glyph glyph-name="h" unicode="h" horiz-adv-x="583" 
d="M82 736h93.001v-273c23.333 17.333 48.333 31 75 41s53.334 15 80.001 15c33.333 0 61.166 -5.16699 83.499 -15.5s40.166 -24.333 53.499 -42s22.666 -38.334 27.999 -62.001s8 -48.5 8 -74.5v-325h-93v320c0 42 -8.66699 72.333 -26 91s-42.666 28 -75.999 28
c-27.333 0 -51.833 -4.66699 -73.5 -14s-41.5 -20.666 -59.5 -33.999v-391h-93v736z" />
    <glyph glyph-name="i" unicode="i" horiz-adv-x="258" 
d="M85 435h-64v66h157v-501h-93v435zM121 594c-19.333 0 -34.5 6.33301 -45.5 19s-16.5 28.667 -16.5 48s5.5 35.5 16.5 48.5s26.167 19.5 45.5 19.5c20 0 35.5 -6.5 46.5 -19.5s16.5 -29.167 16.5 -48.5s-5.5 -35.333 -16.5 -48s-26.5 -19 -46.5 -19z" />
    <glyph glyph-name="j" unicode="j" horiz-adv-x="258" 
d="M-82 -136c12.667 -4.66699 25.501 -9.16895 38.501 -13.502s29.167 -6.5 48.5 -6.5c18.667 0 33.334 4.16699 44.001 12.5s18.667 19 24 32s8.66602 27.5 9.99902 43.5s2 31.333 2 46v523h93v-540c0 -23.333 -2.5 -46.166 -7.5 -68.499s-13.833 -42.166 -26.5 -59.499
s-29.667 -31.333 -51 -42s-48.333 -16 -81 -16c-16.667 0 -36.334 2.5 -59.001 7.5s-42 11.5 -58 19.5zM130.001 596.998c-20 0 -35.333 6.33301 -46 19s-16 28 -16 46s5.33301 33.5 16 46.5s26 19.5 46 19.5c20.667 0 36.167 -6.5 46.5 -19.5s15.5 -28.5 15.5 -46.5
s-5.16699 -33.333 -15.5 -46s-25.833 -19 -46.5 -19z" />
    <glyph glyph-name="k" unicode="k" horiz-adv-x="504" 
d="M81 736h93v-419h31c11.333 0 19.5 1 24.5 3s10.167 6 15.5 12l150 180l80 -21l-172 -204l201 -276l-93 -22l-166 226c-8.66699 12 -16 19.333 -22 22s-15.667 4 -29 4h-20v-241h-93v736z" />
    <glyph glyph-name="l" unicode="l" horiz-adv-x="253" 
d="M80 669h-62v66h155v-735h-93v669z" />
    <glyph glyph-name="m" unicode="m" horiz-adv-x="840" 
d="M84 398l-39.001 84.001l74 39l43 -66c27.333 24.667 53.666 41.5 78.999 50.5s49.333 13.5 72 13.5c36 0 63.5 -5.66699 82.5 -17s34.833 -27 47.5 -47c29.333 26 58.333 43.167 87 51.5s52.667 12.5 72 12.5c34 0 61.5 -5.16699 82.5 -15.5s37 -24.333 48 -42
s18.333 -38.334 22 -62.001s5.5 -48.5 5.5 -74.5v-325h-93v326c0 39.333 -5.83301 68.166 -17.5 86.499s-34.167 27.5 -67.5 27.5c-19.333 0 -39.166 -3.66699 -59.499 -11s-40.166 -19 -59.499 -35c1.33301 -10 2.5 -21.167 3.5 -33.5s1.5 -24.166 1.5 -35.499v-325h-93
v328c0 38 -5.83301 66.167 -17.5 84.5s-34.167 27.5 -67.5 27.5c-18.667 0 -37.667 -3.83301 -57 -11.5s-38 -19.167 -56 -34.5v-394h-93v398z" />
    <glyph glyph-name="n" unicode="n" horiz-adv-x="580" 
d="M84 397l-38.9971 85.001l74 39l41 -66c30 22.667 58.333 39 85 49s55 15 85 15c33.333 0 61.166 -5.16699 83.499 -15.5s40.166 -24.333 53.499 -42s22.666 -38.334 27.999 -62.001s8 -48.5 8 -74.5v-325h-93v320c0 42 -8.5 72.333 -25.5 91s-42.5 28 -76.5 28
c-25.333 0 -49.5 -4.5 -72.5 -13.5s-42.5 -20.167 -58.5 -33.5v-392h-93v397z" />
    <glyph glyph-name="o" unicode="o" horiz-adv-x="567" 
d="M284 48c48 0 81.834 17.332 101.501 51.999s29.5 85 29.5 151c0 63.333 -9.83301 112.333 -29.5 147s-53.5 52 -101.5 52c-48.667 0 -82.834 -16.667 -102.501 -50s-29.5 -83.333 -29.5 -150c0 -31.333 2.33301 -59.5 7 -84.5s12.167 -46.167 22.5 -63.5
s24 -30.666 41 -39.999s37.5 -14 61.5 -14zM281.001 -18.001c-42.667 0 -78.334 6.66602 -107.001 19.999s-51.834 32 -69.501 56s-30.167 52.333 -37.5 85s-11 68.334 -11 107.001s4.66699 74.5 14 107.5s23.333 61.5 42 85.5s42.334 42.667 71.001 56
s62.334 20 101.001 20c40 0 74.333 -6.66699 103 -20s52.167 -31.833 70.5 -55.5s31.833 -52 40.5 -85s13 -68.833 13 -107.5c0 -39.333 -4.16699 -75.333 -12.5 -108s-21.833 -61 -40.5 -85s-42.5 -42.667 -71.5 -56s-64.167 -20 -105.5 -20z" />
    <glyph glyph-name="p" unicode="p" horiz-adv-x="570" 
d="M175 63c11.333 -3.33301 25.8301 -6.66699 43.4971 -10s34.834 -5 51.501 -5c50 0 87.167 17.667 111.5 53s36.5 85.333 36.5 150c0 62.667 -9.16699 111.667 -27.5 147s-49.166 53 -92.499 53c-25.333 0 -46.666 -4.33301 -63.999 -13s-37 -22.667 -59 -42v-333z
M81.9971 396.999l-40.001 85.001l76 39l43 -64c17.333 16 37.333 30.333 60 43s50.334 19 83.001 19c68.667 0 120.834 -22.167 156.501 -66.5s53.5 -111.5 53.5 -201.5c0 -40 -5.33301 -76.5 -16 -109.5s-26.334 -61.333 -47.001 -85s-46.667 -42 -78 -55
s-67.333 -19.5 -108 -19.5c-14.667 0 -30.167 1.16699 -46.5 3.5s-30.833 5.16602 -43.5 8.49902v-212h-93v615z" />
    <glyph glyph-name="q" unicode="q" horiz-adv-x="565" 
d="M390 9c-16.667 -8 -34.167 -14.5 -52.5 -19.5s-38.5 -7.5 -60.5 -7.5c-75.333 0 -130.833 22.167 -166.5 66.5s-53.5 111.5 -53.5 201.5c0 40 5.33301 76.5 16 109.5s26.334 61.333 47.001 85s46.5 42 77.5 55s67.167 19.5 108.5 19.5
c35.333 0 69.166 -2.83301 101.499 -8.5s57.5 -12.167 75.5 -19.5v-709h-93v227zM390 443c-10.667 3.33301 -24.167 5.83301 -40.5 7.5s-32.833 2.5 -49.5 2.5c-50 0 -87 -17.167 -111 -51.5s-36 -84.833 -36 -151.5c0 -62.667 9.83301 -111.667 29.5 -147
s53.167 -53 100.5 -53c23.333 0 43 2.16699 59 6.5s32 11.833 48 22.5v364z" />
    <glyph glyph-name="r" unicode="r" horiz-adv-x="386" 
d="M89 435l-61.998 0.000976562v66h129l16 -65c8.66699 9.33301 17.667 18.333 27 27s19.666 16.167 30.999 22.5s24.166 11.333 38.499 15s30.833 5.5 49.5 5.5c24 0 45 -2.66699 63 -8l-26 -84c-8 3.33301 -17 5.66602 -27 6.99902s-19.667 2 -29 2
c-48.667 0 -87.667 -16.667 -117 -50v-373h-93v435z" />
    <glyph glyph-name="s" unicode="s" horiz-adv-x="453" 
d="M59 94c15.333 -8.66699 36.165 -18.0059 62.498 -28.0059s56.5 -15 90.5 -15c35.333 0 63.333 6 84 18s31 31.667 31 59c0 15.333 -3.33301 27.833 -10 37.5s-15.667 17.667 -27 24s-24.5 11.5 -39.5 15.5l-47.5 13c-18.667 4.66699 -37.167 10.334 -55.5 17.001
s-34.666 15.334 -48.999 26.001s-26 24.334 -35 41.001s-13.5 37.667 -13.5 63c0 22 3.83301 42.333 11.5 61s19.5 34.834 35.5 48.501s35.833 24.5 59.5 32.5s51.5 12 83.5 12s62 -3.83301 90 -11.5s51.333 -16.834 70 -27.501l-28 -61c-42 22.667 -86.333 34 -133 34
c-32.667 0 -58.167 -5.66699 -76.5 -17s-27.5 -29.666 -27.5 -54.999c0 -14.667 3 -26.667 9 -36s14.167 -17.166 24.5 -23.499s22.333 -11.666 36 -15.999s27.834 -8.5 42.501 -12.5l55 -16.5c19.333 -5.66699 37 -14 53 -25s29.167 -25.167 39.5 -42.5s15.5 -40 15.5 -68
c0 -50 -15.833 -89 -47.5 -117s-80.834 -42 -147.501 -42c-44 0 -82.167 5.66699 -114.5 17s-56.166 22 -71.499 32z" />
    <glyph glyph-name="t" unicode="t" horiz-adv-x="384" 
d="M109 433l-91.0029 -0.000976562v68h94v149h90v-149h148v-68h-148v-289c0 -19.333 1.66699 -34.833 5 -46.5s8.16602 -20.667 14.499 -27s13.833 -10.666 22.5 -12.999s18.334 -3.5 29.001 -3.5s22.834 1.33301 36.501 4s26.834 6.66699 39.501 12l20 -61
c-11.333 -6 -27.333 -11.5 -48 -16.5s-41.667 -7.5 -63 -7.5c-23.333 0 -44.166 2.33301 -62.499 7s-33.833 12.5 -46.5 23.5s-22.5 26 -29.5 45s-10.5 42.833 -10.5 71.5v301z" />
    <glyph glyph-name="u" unicode="u" horiz-adv-x="558" 
d="M70 501l93.0039 -0.00195312v-326c0 -39.333 7.5 -69.666 22.5 -90.999s40.167 -32 75.5 -32c29.333 0 53.166 4.66699 71.499 14s35.5 21 51.5 35v400h93v-406l41 -61l-67 -50l-46 56c-26.667 -20.667 -52.5 -35.5 -77.5 -44.5s-52.5 -13.5 -82.5 -13.5
c-36.667 0 -66.334 5.16699 -89.001 15.5s-40.334 24.333 -53.001 42s-21.334 38.334 -26.001 62.001s-7 48.5 -7 74.5v325z" />
    <glyph glyph-name="v" unicode="v" horiz-adv-x="518" 
d="M18 496l94 15l131 -431c3.33301 -12 6.5 -20.5 9.5 -25.5s8.16699 -7.5 15.5 -7.5c8 0 13.167 2.5 15.5 7.5s5.5 13.5 9.5 25.5l130 431l80 -16l-129 -412c-10 -32.667 -23 -57.667 -39 -75s-38.333 -26 -67 -26c-19.333 0 -35.5 2 -48.5 6s-24 10 -33 18
s-16.5 18.333 -22.5 31s-11.667 28 -17 46z" />
    <glyph glyph-name="w" unicode="w" horiz-adv-x="745" 
d="M23 499l92.002 11l89 -437c3.33301 -17.333 8.66602 -26 15.999 -26c5.33301 0 9 2 11 6s4.33301 10.667 7 20l103 428h75l102 -428c3.33301 -17.333 8.33301 -26 15 -26c5.33301 0 9 2 11 6s4 10.667 6 20l98 437l82 -11l-99 -416
c-7.33301 -33.333 -18.5 -58.5 -33.5 -75.5s-36.833 -25.5 -65.5 -25.5c-19.333 0 -34.833 1.83301 -46.5 5.5s-21.334 9.66699 -29.001 18s-13.667 18.833 -18 31.5s-8.5 28 -12.5 46l-55 235l-51 -235c-8 -33.333 -19.5 -58.5 -34.5 -75.5s-36.833 -25.5 -65.5 -25.5
c-19.333 0 -35 1.83301 -47 5.5s-21.667 9.5 -29 17.5s-13.333 18.5 -18 31.5s-9 28.5 -13 46.5z" />
    <glyph glyph-name="x" unicode="x" horiz-adv-x="468" 
d="M161 251l-145 235.001l82 24l116 -194c4 -6.66699 7.33301 -11 10 -13s5.66699 -3 9 -3c5.33301 0 11 4.66699 17 14l113 198l72 -23l-135 -228l158 -249l-82 -23l-125 202c-5.33301 7.33301 -9.33301 12.166 -12 14.499s-6 3.5 -10 3.5c-6.66699 0 -14 -6.33301 -22 -19
l-128 -203l-69 24z" />
    <glyph glyph-name="y" unicode="y" horiz-adv-x="496" 
d="M66 -138c10.667 -4 24.1719 -8.50098 40.5049 -13.501s35.166 -7.5 56.499 -7.5c25.333 0 45 7.5 59 22.5s24.667 37.5 32 67.5l21 82h-17c-21.333 0 -39.833 2.5 -55.5 7.5s-29.334 13.333 -41.001 25s-21.834 26.667 -30.501 45s-16.667 40.833 -24 67.5l-92 339l92 15
l92 -346c4.66699 -18.667 9.83398 -33.667 15.501 -45s11.667 -20.166 18 -26.499s13.166 -10.5 20.499 -12.5s15.333 -3 24 -3h14l108 433l83 -16l-150 -575c-13.333 -50 -33.5 -86.833 -60.5 -110.5s-63.5 -35.5 -109.5 -35.5c-12 0 -24 1 -36 3s-23.333 4.5 -34 7.5
s-20.334 6 -29.001 9s-15.334 5.83301 -20.001 8.5z" />
    <glyph glyph-name="z" unicode="z" horiz-adv-x="449" 
d="M300 434l-253.001 -0.000976562v67h368v-65l-279 -343c-3.33301 -4 -5.16602 -7.16699 -5.49902 -9.5s-0.5 -3.83301 -0.5 -4.5c0 -7.33301 5.66699 -11 17 -11h271v-68h-305c-28 0 -48.5 6.33301 -61.5 19s-19.5 28.667 -19.5 48c0 12.667 2 24.334 6 35.001
s11.667 23 23 37z" />
    <glyph glyph-name="braceleft" unicode="{" horiz-adv-x="407" 
d="M142 211c0 15.333 -3.33301 27.666 -10 36.999s-17 14 -31 14h-52v72h52c14 0 24.333 4.66699 31 14s10 21.666 10 36.999v171c0 60.667 14 107.5 42 140.5s72.667 49.5 134 49.5c6 0 12.5 -0.333008 19.5 -1s13.833 -1.5 20.5 -2.5s13 -2 19 -3s10.667 -2.16699 14 -3.5
l-14 -64c-9.33301 3.33301 -18.833 5.5 -28.5 6.5s-19.5 1.5 -29.5 1.5c-31.333 0 -53.333 -9.66699 -66 -29s-19 -47.666 -19 -84.999v-154c0 -29.333 -2.83301 -53.333 -8.5 -72s-18.5 -32.667 -38.5 -42c20 -9.33301 32.833 -23.333 38.5 -42s8.5 -42.667 8.5 -72v-154
c0 -37.333 6.33301 -65.666 19 -84.999s34.667 -29 66 -29c10 0 19.833 0.5 29.5 1.5s19.167 3.16699 28.5 6.5l14 -64c-3.33301 -1.33301 -8 -2.5 -14 -3.5s-12.333 -2 -19 -3s-13.5 -1.83301 -20.5 -2.5s-13.5 -1 -19.5 -1c-61.333 0 -106 16.5 -134 49.5
s-42 79.833 -42 140.5v171z" />
    <glyph glyph-name="bar" unicode="|" horiz-adv-x="241" 
d="M76 791h89v-1018h-89v1018z" />
    <glyph glyph-name="braceright" unicode="}" horiz-adv-x="407" 
d="M30 -76c9.33301 -3.33301 18.833 -5.5 28.5 -6.5s19.5 -1.5 29.5 -1.5c31.333 0 53.333 9.66699 66 29s19 47.666 19 84.999v154c0 29.333 2.83301 53.333 8.5 72s18.5 32.667 38.5 42c-20 9.33301 -32.833 23.333 -38.5 42s-8.5 42.667 -8.5 72v154
c0 37.333 -6.33301 65.666 -19 84.999s-34.667 29 -66 29c-10 0 -19.833 -0.5 -29.5 -1.5s-19.167 -3.16699 -28.5 -6.5l-14 64c6.66699 2.66699 17.667 5 33 7s28.666 3 39.999 3c61.333 0 106 -16.5 134 -49.5s42 -79.833 42 -140.5v-171
c0 -15.333 3.33301 -27.666 10 -36.999s17 -14 31 -14h52v-72h-52c-14 0 -24.333 -4.66699 -31 -14s-10 -21.666 -10 -36.999v-171c0 -60.667 -14 -107.5 -42 -140.5s-72.667 -49.5 -134 -49.5c-11.333 0 -24.666 1 -39.999 3s-26.333 4.33301 -33 7z" />
    <glyph glyph-name="asciitilde" unicode="~" horiz-adv-x="614" 
d="M80 352c6 8.66699 13.8311 17.834 23.498 27.501s20.667 18.5 33 26.5s25.833 14.5 40.5 19.5s30.334 7.5 47.001 7.5c16 0 30.5 -2.66699 43.5 -8s25.833 -11 38.5 -17s25.667 -11.667 39 -17s28.333 -8 45 -8c20.667 0 38.834 5.5 54.501 16.5s29.167 23.167 40.5 36.5
l49 -54c-6 -8.66699 -13.833 -17.834 -23.5 -27.501s-20.667 -18.5 -33 -26.5s-25.833 -14.5 -40.5 -19.5s-30.334 -7.5 -47.001 -7.5c-16 0 -30.667 2.66699 -44 8s-26.166 11 -38.499 17s-25.166 11.667 -38.499 17s-28.333 8 -45 8c-20.667 0 -38.834 -5.5 -54.501 -16.5
s-29.167 -23.167 -40.5 -36.5z" />
    <glyph glyph-name="uni00A0" unicode="&#xa0;" horiz-adv-x="194" 
 />
    <glyph glyph-name="exclamdown" unicode="&#xa1;" horiz-adv-x="276" 
d="M98 290h78l13 -516h-104zM137 374c-21.333 0 -37 6.5 -47 19.5s-15 29.5 -15 49.5s5 36.5 15 49.5s25.667 19.5 47 19.5c22 0 38 -6.5 48 -19.5s15 -29.5 15 -49.5s-5 -36.5 -15 -49.5s-26 -19.5 -48 -19.5z" />
    <glyph glyph-name="cent" unicode="&#xa2;" horiz-adv-x="594" 
d="M302 55c-37.333 4 -68.3291 13.168 -92.9961 27.501s-44.334 33 -59.001 56s-25.167 49.5 -31.5 79.5s-9.5 63 -9.5 99c0 34.667 3.66699 67.334 11 98.001s18.833 57.834 34.5 81.501s35.667 43.167 60 58.5s53.5 25.666 87.5 30.999v115h78v-112
c24.667 -2.66699 47.167 -7.66699 67.5 -15s38.166 -15.333 53.499 -24l-28 -62c-18 9.33301 -37 17.166 -57 23.499s-42.667 9.5 -68 9.5c-49.333 0 -85.5 -16.833 -108.5 -50.5s-34.5 -84.834 -34.5 -153.501c0 -30 2.5 -56.833 7.5 -80.5s13.167 -44 24.5 -61
s26.333 -30 45 -39s41.667 -13.5 69 -13.5c22 0 42.167 2 60.5 6s40.166 12 65.499 24l28 -60c-15.333 -8.66699 -33.333 -16.5 -54 -23.5s-44.334 -12.167 -71.001 -15.5v-115h-78v116z" />
    <glyph glyph-name="sterling" unicode="&#xa3;" horiz-adv-x="594" 
d="M142 320l-96.998 -0.00195312v67h114l37 145c7.33301 30 16.166 56.667 26.499 80s23.666 43 39.999 59s36.166 28.333 59.499 37s51.666 13 84.999 13c30.667 0 60 -3.83301 88 -11.5s50.333 -16.5 67 -26.5l-29 -65c-15.333 8.66699 -34.666 15.834 -57.999 21.501
s-45.666 8.5 -66.999 8.5c-12.667 0 -24.834 -1.16699 -36.501 -3.5s-22.5 -7.16602 -32.5 -14.499s-19.167 -17.666 -27.5 -30.999s-15.5 -31.333 -21.5 -54l-40 -158h197v-67h-214l-46 -185l-4 -16.5c-1.33301 -5.66699 -2 -11.167 -2 -16.5c0 -18.667 11.333 -28 34 -28
h304v-74h-366c-27.333 0 -46.166 6.16699 -56.499 18.5s-15.5 26.166 -15.5 41.499c0 10 1 20 3 30s4.33301 20.667 7 32z" />
    <glyph glyph-name="currency" unicode="&#xa4;" horiz-adv-x="594" 
d="M120 233c-14.667 19.333 -25.668 39.3301 -33.001 59.9971s-11 44.334 -11 71.001c0 25.333 3.5 48 10.5 68s17.167 39.333 30.5 58l-73 73l65 60l69 -70c18.667 12.667 38.834 22.5 60.501 29.5s44.5 10.5 68.5 10.5c23.333 0 45.666 -3.33301 66.999 -10
s41.333 -16.334 60 -29.001l67 69l66 -60l-70 -71c13.333 -19.333 23.5 -39.166 30.5 -59.499s10.5 -43.166 10.5 -68.499c0 -28 -3.66699 -52.167 -11 -72.5s-18.666 -40.166 -33.999 -59.499l74 -75l-63 -57l-72 73c-36.667 -24.667 -78.334 -37 -125.001 -37
c-23.333 0 -45.666 3.33301 -66.999 10s-41 16 -59 28l-75 -75l-62 57zM161.999 363.997c0 -20 3.83301 -38.833 11.5 -56.5s18 -33 31 -46s28.333 -23.333 46 -31s36.5 -11.5 56.5 -11.5s38.833 3.83301 56.5 11.5s33 18 46 31s23.333 28.333 31 46s11.5 36.5 11.5 56.5
s-3.83301 38.833 -11.5 56.5s-18 33 -31 46s-28.333 23.333 -46 31s-36.5 11.5 -56.5 11.5s-38.833 -3.83301 -56.5 -11.5s-33 -18 -46 -31s-23.333 -28.333 -31 -46s-11.5 -36.5 -11.5 -56.5z" />
    <glyph glyph-name="yen" unicode="&#xa5;" horiz-adv-x="594" 
d="M72 223h173.999v79h-174v66h130c-5.33301 6.66699 -9.66602 13.5 -12.999 20.5l-10 20.5l-141 303l92 18l146 -323c5.33301 -12 9.5 -20.167 12.5 -24.5s6.83301 -6.5 11.5 -6.5s8.5 2 11.5 6s7.5 12.333 13.5 25l151 321l81 -19l-147 -301
c-3.33301 -7.33301 -7 -14.5 -11 -21.5s-8.33301 -13.167 -13 -18.5h141v-66h-183v-79h183v-66h-183v-157h-98v157h-174v66z" />
    <glyph glyph-name="brokenbar" unicode="&#xa6;" horiz-adv-x="241" 
d="M76 196h89v-423h-89v423zM76 791h89v-363h-89v363z" />
    <glyph glyph-name="section" unicode="&#xa7;" horiz-adv-x="559" 
d="M128 -30c20.667 -8 42.3301 -14.9971 64.9971 -20.9971s48 -9 76 -9c32.667 0 60.5 7 83.5 21s34.5 37 34.5 69c0 17.333 -4.33301 31.5 -13 42.5s-20 20.333 -34 28s-30.167 14 -48.5 19s-37.166 9.83301 -56.499 14.5c-22.667 5.33301 -44.167 11.5 -64.5 18.5
s-38.166 16.333 -53.499 28s-27.5 26 -36.5 43s-13.5 38.167 -13.5 63.5c0 23.333 6.5 47.666 19.5 72.999s33.5 49.666 61.5 72.999c-15.333 10 -29.666 24.5 -42.999 43.5s-20 42.833 -20 71.5s5.5 53.667 16.5 75s25.833 39.333 44.5 54s40.667 25.667 66 33s52 11 80 11
c17.333 0 34.333 -1.16699 51 -3.5s32.334 -5.16602 47.001 -8.49902s27.667 -7 39 -11s20.666 -8 27.999 -12l-25 -68c-21.333 8 -43.166 15 -65.499 21s-47.5 9 -75.5 9c-15.333 0 -30 -1.33301 -44 -4s-26.667 -7.5 -38 -14.5s-20.333 -16.167 -27 -27.5
s-10 -25.666 -10 -42.999s4.33301 -31.5 13 -42.5s20.167 -20.333 34.5 -28s30.666 -14 48.999 -19l56.5 -15.5c20 -5.33301 40 -11.333 60 -18s38 -15.5 54 -26.5s28.833 -25.167 38.5 -42.5s14.5 -40 14.5 -68c0 -24 -6.5 -48 -19.5 -72s-31.5 -47.333 -55.5 -70
c15.333 -12 28.833 -26.833 40.5 -44.5s17.5 -40.5 17.5 -68.5c0 -28.667 -5.5 -53.834 -16.5 -75.501s-25.833 -39.834 -44.5 -54.501s-40.5 -25.834 -65.5 -33.501s-51.5 -11.5 -79.5 -11.5c-38 0 -71.667 4 -101 12s-51 15.667 -65 23zM357.996 190.003
c18 15.333 30.999 31.498 38.999 48.498s12 33.167 12 48.5c0 14 -3.33301 25.5 -10 34.5s-15.667 16.833 -27 23.5s-24.333 12.334 -39 17.001s-30.334 9 -47.001 13c-13.333 3.33301 -26.666 7 -39.999 11s-26.666 8.33301 -39.999 13
c-18.667 -15.333 -32.334 -31.333 -41.001 -48s-13 -32.667 -13 -48c0 -14 3.33301 -25.667 10 -35s15.5 -17.166 26.5 -23.499s23.833 -11.833 38.5 -16.5s30.334 -9 47.001 -13c14 -3.33301 28 -7 42 -11s28 -8.66699 42 -14z" />
    <glyph glyph-name="dieresis" unicode="&#xa8;" horiz-adv-x="500" 
d="M136 605c-21.333 0 -37.166 6.33301 -47.499 19s-15.5 27.667 -15.5 45c0 18 5.16699 33.333 15.5 46s26.166 19 47.499 19c20.667 0 36.167 -6.33301 46.5 -19s15.5 -28 15.5 -46c0 -17.333 -5.16699 -32.333 -15.5 -45s-25.833 -19 -46.5 -19zM362 605
c-21.333 0 -37.166 6.33301 -47.499 19s-15.5 27.667 -15.5 45c0 18 5.16699 33.333 15.5 46s26.166 19 47.499 19c20.667 0 36.167 -6.33301 46.5 -19s15.5 -28 15.5 -46c0 -17.333 -5.16699 -32.333 -15.5 -45s-25.833 -19 -46.5 -19z" />
    <glyph glyph-name="copyright" unicode="&#xa9;" horiz-adv-x="863" 
d="M433 58c46.667 0 88.334 8 125.001 24s67.834 37.667 93.501 65s45.167 59.333 58.5 96s20 75.667 20 117c0 42 -6.66699 81.167 -20 117.5s-32.833 68.166 -58.5 95.499s-56.834 48.833 -93.501 64.5s-78.334 23.5 -125.001 23.5c-46 0 -87.5 -7.83301 -124.5 -23.5
s-68.333 -37.167 -94 -64.5s-45.334 -59.166 -59.001 -95.499s-20.5 -75.5 -20.5 -117.5c0 -41.333 6.83301 -80.333 20.5 -117s33.334 -68.667 59.001 -96s57 -49 94 -65s78.5 -24 124.5 -24zM70 360c0 50 8.66602 96.833 25.999 140.5s41.833 81.667 73.5 114
s69.834 58 114.501 77s94.334 28.5 149.001 28.5s104.334 -9.5 149.001 -28.5s82.5 -44.667 113.5 -77s55 -70.333 72 -114s25.5 -90.5 25.5 -140.5s-8.66699 -96.833 -26 -140.5s-41.833 -81.667 -73.5 -114s-69.834 -58 -114.501 -77s-94.334 -28.5 -149.001 -28.5
c-56 0 -106.333 9.5 -151 28.5s-82.5 44.667 -113.5 77s-54.667 70.333 -71 114s-24.5 90.5 -24.5 140.5zM565.999 190c-12 -7.33301 -29.501 -14.832 -52.501 -22.499s-48.167 -11.5 -75.5 -11.5c-36.667 0 -67.334 5.5 -92.001 16.5s-44.5 25.833 -59.5 44.5
s-25.667 40.334 -32 65.001s-9.5 50.667 -9.5 78c0 30.667 3.83301 59 11.5 85s19.667 48.5 36 67.5s37 34 62 45s54.833 16.5 89.5 16.5c22.667 0 44.334 -3.16699 65.001 -9.5s38.667 -13.5 54 -21.5l-23 -52c-15.333 7.33301 -31.166 13.166 -47.499 17.499
s-33.5 6.5 -51.5 6.5c-40 0 -69.167 -12.333 -87.5 -37s-27.5 -64 -27.5 -118c0 -46.667 8.5 -82.334 25.5 -107.001s47.833 -37 92.5 -37c18 0 35.5 2.33301 52.5 7s33.5 11 49.5 19z" />
    <glyph glyph-name="ordfeminine" unicode="&#xaa;" horiz-adv-x="507" 
d="M322 314c-13.333 -9.33301 -28.1689 -17.832 -44.502 -25.499s-36.166 -11.5 -59.499 -11.5c-36 0 -65.333 8.83301 -88 26.5s-34 46.5 -34 86.5c0 42.667 14.333 72.167 43 88.5s66.667 24.5 114 24.5h49v22c0 25.333 -3.83301 43.666 -11.5 54.999s-22.167 17 -43.5 17
c-16 0 -33.667 -1.83301 -53 -5.5s-37.666 -8.5 -54.999 -14.5l-19 53c13.333 5.33301 32.166 11 56.499 17s50.166 9 77.499 9c28.667 0 51.334 -3.83301 68.001 -11.5s29.334 -18.167 38.001 -31.5s14.167 -29 16.5 -47s3.5 -37.333 3.5 -58v-148l32 -47l-58 -41z
M301.997 451.001l-46.998 -0.000976562c-28 0 -48 -4.33301 -60 -13s-18 -23.667 -18 -45c0 -19.333 4.5 -33.666 13.5 -42.999s21.5 -14 37.5 -14c15.333 0 29.666 2.5 42.999 7.5s23.666 10.833 30.999 17.5v90z" />
    <glyph glyph-name="guillemotleft" unicode="&#xab;" horiz-adv-x="537" 
d="M130 179c-20.667 16 -36.666 30.498 -47.999 43.498s-17 30.167 -17 51.5c0 20 5.33301 37 16 51s22.667 27 36 39l105 95l62 -32l-110 -108c-8.66699 -8.66699 -15.334 -15.667 -20.001 -21s-7 -11.666 -7 -18.999s2.5 -13.666 7.5 -18.999s14.167 -14 27.5 -26l105 -97
l-58 -35zM335.001 178.998c-20.667 16 -36.666 30.498 -47.999 43.498s-17 30.167 -17 51.5c0 20 5.33301 37 16 51s22.667 27 36 39l105 95l62 -32l-110 -108c-8.66699 -8.66699 -15.334 -15.667 -20.001 -21s-7 -11.666 -7 -18.999s2.5 -13.666 7.5 -18.999
s14.167 -14 27.5 -26l105 -97l-58 -35z" />
    <glyph glyph-name="logicalnot" unicode="&#xac;" horiz-adv-x="710" 
d="M122 380h465v-207h-73v127h-392v80z" />
    <glyph glyph-name="uni00AD" unicode="&#xad;" horiz-adv-x="451" 
d="M74 359h303v-89h-303v89z" />
    <glyph glyph-name="registered" unicode="&#xae;" horiz-adv-x="614" 
d="M220 607l94 0.000976562c24 0 44.5 -5.16699 61.5 -15.5s25.5 -28.833 25.5 -55.5c0 -17.333 -4.83301 -31.833 -14.5 -43.5s-22.167 -20.834 -37.5 -27.501c3.33301 -2 6 -4.5 8 -7.5l8 -12.5l45 -78l-48 -12l-45 82c-4 7.33301 -7.5 12 -10.5 14s-7.16699 3 -12.5 3
h-25v-97h-49v250zM306 489.001c15.333 0 26.333 3.83301 33 11.5s10 18.5 10 32.5c0 26 -14.333 39 -43 39h-37v-83h37zM116 473.001c0 -26 4.16797 -50.501 12.501 -73.501s20.666 -43.167 36.999 -60.5s36.333 -31 60 -41s50.834 -15 81.501 -15
c32.667 0 61 5.16699 85 15.5s44 24.333 60 42s27.833 38.167 35.5 61.5s11.5 48 11.5 74s-3.83301 50.833 -11.5 74.5s-19.5 44.334 -35.5 62.001s-36 31.667 -60 42s-52.333 15.5 -85 15.5s-61 -5.33301 -85 -16s-43.833 -25 -59.5 -43s-27.334 -39 -35.001 -63
s-11.5 -49 -11.5 -75zM56.001 473c0 34 5.83301 66.165 17.5 96.498s28.334 56.833 50.001 79.5s48 40.667 79 54s65.833 20 104.5 20c40 0 75.667 -6.5 107 -19.5s57.666 -30.667 78.999 -53s37.5 -48.5 48.5 -78.5s16.5 -62 16.5 -96s-6.16699 -66 -18.5 -96
s-29.666 -56 -51.999 -78s-48.833 -39.5 -79.5 -52.5s-64.334 -19.5 -101.001 -19.5c-37.333 0 -71.333 6.33301 -102 19s-57 29.834 -79 51.501s-39.167 47.334 -51.5 77.001s-18.5 61.5 -18.5 95.5z" />
    <glyph glyph-name="macron" unicode="&#xaf;" horiz-adv-x="500" 
d="M93 688h313v-73h-313v73z" />
    <glyph glyph-name="degree" unicode="&#xb0;" horiz-adv-x="358" 
d="M179 527c18.667 0 33.832 6.5 45.499 19.5s17.5 28.5 17.5 46.5s-6 33.5 -18 46.5s-27 19.5 -45 19.5s-33 -6.5 -45 -19.5s-18 -28.5 -18 -46.5s5.83301 -33.5 17.5 -46.5s26.834 -19.5 45.501 -19.5zM54.998 593c0 17.333 3 33.499 9 48.499s14.5 28.167 25.5 39.5
s24.167 20.166 39.5 26.499s32 9.5 50 9.5s34.667 -3.16699 50 -9.5s28.5 -15.166 39.5 -26.499s19.5 -24.5 25.5 -39.5s9 -31.167 9 -48.5s-3 -33.5 -9 -48.5s-14.5 -28.167 -25.5 -39.5s-24.167 -20.166 -39.5 -26.499s-32 -9.5 -50 -9.5c-38.667 0 -69 12 -91 36
s-33 53.333 -33 88z" />
    <glyph glyph-name="plusminus" unicode="&#xb1;" horiz-adv-x="590" 
d="M71 400h183v183h81v-183h183v-80h-183v-183h-81v183h-183v80zM71 80h447v-80h-447v80z" />
    <glyph glyph-name="twosuperior" unicode="&#xb2;" 
d="M193 484c14.667 12.667 27.1689 24.167 37.502 34.5s18.666 20 24.999 29s11 18 14 27s4.5 18.833 4.5 29.5c0 19.333 -5.83301 33.333 -17.5 42s-26.834 13 -45.501 13c-23.333 0 -44.5 -4.83301 -63.5 -14.5s-35.5 -19.167 -49.5 -28.5l-34 50
c19.333 14 42 26.667 68 38s55.667 17 89 17c44.667 0 78 -11.333 100 -34s33 -50.334 33 -83.001c0 -31.333 -8.66699 -59.166 -26 -83.499s-43 -50.5 -77 -78.5l-103 -84c-2.66699 -2.66699 -4 -5 -4 -7c0 -2.66699 3 -4 9 -4h207v-63h-232c-45.333 0 -68 18 -68 54
c0 8 2 17 6 27s12 20 24 30z" />
    <glyph glyph-name="threesuperior" unicode="&#xb3;" 
d="M84 373c14.667 -9.33301 32.668 -17.6689 54.001 -25.002s43.666 -11 66.999 -11c24.667 0 44.167 6.33301 58.5 19s21.5 31 21.5 55c0 25.333 -8 43.333 -24 54s-41 16 -75 16h-37v46l128 123h-203v62h219c19.333 0 34.166 -4 44.499 -12s15.5 -21 15.5 -39
c0 -10 -2.66699 -19.333 -8 -28s-14 -18.667 -26 -30l-81 -73c40.667 -2 72 -12.833 94 -32.5s33 -48.5 33 -86.5c0 -18 -3.16699 -35.333 -9.5 -52s-16.166 -31.167 -29.499 -43.5s-30.166 -22.166 -50.499 -29.499s-44.5 -11 -72.5 -11
c-30.667 0 -58.834 4.33301 -84.501 13s-47.167 19.334 -64.5 32.001z" />
    <glyph glyph-name="acute" unicode="&#xb4;" horiz-adv-x="500" 
d="M291 796l73 -51l-143 -163l-46 34z" />
    <glyph glyph-name="mu" unicode="&#xb5;" horiz-adv-x="587" 
d="M90 501h93v-338c0 -33.333 7.5 -60.166 22.5 -80.499s40.167 -30.5 75.5 -30.5c29.333 0 53.166 4.66699 71.499 14s35.5 21 51.5 35v400h93v-406l41 -61l-67 -50l-46 56c-26.667 -20.667 -51.334 -35.5 -74.001 -44.5s-47 -13.5 -73 -13.5
c-23.333 0 -43.666 3.66699 -60.999 11s-28.666 15.666 -33.999 24.999v-236h-93v719z" />
    <glyph glyph-name="paragraph" unicode="&#xb6;" horiz-adv-x="569" 
d="M124 -85c14.667 -6.66699 33.498 -13.0029 56.498 -19.0029s46.5 -9 70.5 -9c36 0 64.167 12 84.5 36s30.5 66 30.5 126v600h-74v-377c-80 0 -141.167 17.167 -183.5 51.5s-63.5 90.166 -63.5 167.499c0 46.667 8.83301 84.834 26.5 114.501s39.5 53 65.5 70
s53.5 28.833 82.5 35.5s54.833 10 77.5 10h247v-72h-80v-604c0 -154 -70.333 -231 -211 -231c-17.333 0 -34.166 1.33301 -50.499 4s-31.166 5.83398 -44.499 9.50098s-25 7.33398 -35 11.001s-17.333 6.83398 -22 9.50098z" />
    <glyph glyph-name="periodcentered" unicode="&#xb7;" horiz-adv-x="343" 
d="M172 302c-22 0 -38 6.5 -48 19.5s-15 29.5 -15 49.5s5 36.5 15 49.5s26 19.5 48 19.5c21.333 0 37 -6.5 47 -19.5s15 -29.5 15 -49.5s-5 -36.5 -15 -49.5s-25.667 -19.5 -47 -19.5z" />
    <glyph glyph-name="cedilla" unicode="&#xb8;" horiz-adv-x="500" 
d="M151 -156c10.667 -5.33301 23.3311 -10.833 37.998 -16.5s30.334 -8.5 47.001 -8.5c14.667 0 26.334 3.66699 35.001 11s13 17 13 29c0 20.667 -8.16699 34 -24.5 40s-37.166 9 -62.499 9l26 102h70l-15 -60c12 -1.33301 23.5 -3.83301 34.5 -7.5s20.833 -9 29.5 -16
s15.667 -15.667 21 -26s8 -22.833 8 -37.5c0 -30 -10.5 -54.667 -31.5 -74s-52.5 -29 -94.5 -29c-20.667 0 -42.334 3 -65.001 9s-40.667 13.667 -54 23z" />
    <glyph glyph-name="onesuperior" unicode="&#xb9;" 
d="M83 345h101.001v287c0 4.66699 -1 7 -3 7s-4.33301 -1 -7 -3l-75 -58l-39 48l92 71c9.33301 7.33301 18.833 13.166 28.5 17.499s20.167 6.5 31.5 6.5c13.333 0 25.166 -3.16699 35.499 -9.5s15.5 -19.166 15.5 -38.499v-328h96v-61h-276v61z" />
    <glyph glyph-name="ordmasculine" unicode="&#xba;" horiz-adv-x="515" 
d="M257 331c31.333 0 53.333 11.667 66 35s19 56.333 19 99c0 42 -6.33301 75 -19 99s-34.667 36 -66 36c-32 0 -54.167 -11.667 -66.5 -35s-18.5 -57 -18.5 -101c0 -42 6.16699 -74.667 18.5 -98s34.5 -35 66.5 -35zM255 277c-30.667 0 -56.3369 4.83301 -77.0039 14.5
s-37.167 23 -49.5 40s-21.166 36.833 -26.499 59.5s-8 47 -8 73c0 28 3.33301 53.667 10 77s16.834 43.5 30.501 60.5s30.834 30.333 51.501 40s45 14.5 73 14.5s52.167 -4.66699 72.5 -14s37 -22.5 50 -39.5s22.667 -37.167 29 -60.5s9.5 -49 9.5 -77
c0 -26 -3.16699 -50.5 -9.5 -73.5s-16.166 -43 -29.499 -60s-30.333 -30.333 -51 -40s-45.667 -14.5 -75 -14.5z" />
    <glyph glyph-name="guillemotright" unicode="&#xbb;" horiz-adv-x="527" 
d="M150 234c13.333 12 22.501 20.668 27.501 26.001s7.5 11.666 7.5 18.999s-2.33301 13.666 -7 18.999s-11.334 12.333 -20.001 21l-110 108l62 32l105 -95c13.333 -12 25.333 -24.333 36 -37s16 -29 16 -49c0 -21.333 -5.66699 -39.166 -17 -53.499
s-27.333 -29.5 -48 -45.5l-99 -77l-58 35zM345.001 234.001c13.333 12 22.501 20.668 27.501 26.001s7.5 11.666 7.5 18.999s-2.33301 13.666 -7 18.999s-11.334 12.333 -20.001 21l-110 108l62 32l105 -95c13.333 -12 25.333 -24.333 36 -37s16 -29 16 -49
c0 -21.333 -5.66699 -39.166 -17 -53.499s-27.333 -29.5 -48 -45.5l-99 -77l-58 35z" />
    <glyph glyph-name="onequarter" unicode="&#xbc;" horiz-adv-x="1000" 
d="M75 345h101.001v287c0 4.66699 -1 7 -3 7s-4.33301 -1 -7 -3l-75 -58l-39 48l92 71c9.33301 7.33301 18.833 13.166 28.5 17.499s20.167 6.5 31.5 6.5c13.333 0 25.166 -3.16699 35.499 -9.5s15.5 -19.166 15.5 -38.499v-328h96v-61h-276v61zM695.001 721h89l-439 -721
h-90zM772.001 109l-127 0.000976562c-23.333 0 -40.166 4.16699 -50.499 12.5s-15.5 21.166 -15.5 38.499c0 10.667 2.16699 20.5 6.5 29.5s11.166 19.167 20.499 30.5l175 209h66v-263h64v-57h-64v-108h-75v108zM772.001 166.001v162l-127 -150
c-4 -4.66699 -6 -7.66699 -6 -9c0 -2 2.66699 -3 8 -3h125z" />
    <glyph glyph-name="onehalf" unicode="&#xbd;" horiz-adv-x="1000" 
d="M72 345h101.001v287c0 4.66699 -1 7 -3 7s-4.33301 -1 -7 -3l-75 -58l-39 48l92 71c9.33301 7.33301 18.833 13.166 28.5 17.499s20.167 6.5 31.5 6.5c13.333 0 25.166 -3.16699 35.499 -9.5s15.5 -19.166 15.5 -38.499v-328h96v-61h-276v61zM689.001 721h89l-439 -721
h-90zM776.001 200c14.667 12.667 27.1689 24.167 37.502 34.5s18.666 20 24.999 29s11 18 14 27s4.5 18.833 4.5 29.5c0 19.333 -5.83301 33.333 -17.5 42s-26.834 13 -45.501 13c-23.333 0 -44.5 -4.83301 -63.5 -14.5s-35.5 -19.167 -49.5 -28.5l-34 50
c19.333 14 42 26.667 68 38s55.667 17 89 17c44.667 0 78 -11.333 100 -34s33 -50.334 33 -83.001c0 -31.333 -8.66699 -59.166 -26 -83.499s-43 -50.5 -77 -78.5l-103 -84c-2.66699 -2.66699 -4 -5 -4 -7c0 -2.66699 3 -4 9 -4h207v-63h-232c-45.333 0 -68 18 -68 54
c0 8 2 17 6 27s12 20 24 30z" />
    <glyph glyph-name="threequarters" unicode="&#xbe;" horiz-adv-x="1000" 
d="M80 373c14.667 -9.33301 32.668 -17.6689 54.001 -25.002s43.666 -11 66.999 -11c24.667 0 44.167 6.33301 58.5 19s21.5 31 21.5 55c0 25.333 -8 43.333 -24 54s-41 16 -75 16h-37v46l128 123h-203v62h219c19.333 0 34.166 -4 44.499 -12s15.5 -21 15.5 -39
c0 -10 -2.66699 -19.333 -8 -28s-14 -18.667 -26 -30l-81 -73c40.667 -2 72 -12.833 94 -32.5s33 -48.5 33 -86.5c0 -18 -3.16699 -35.333 -9.5 -52s-16.166 -31.167 -29.499 -43.5s-30.166 -22.166 -50.499 -29.499s-44.5 -11 -72.5 -11
c-30.667 0 -58.834 4.33301 -84.501 13s-47.167 19.334 -64.5 32.001zM688.001 720.997h89l-439 -721h-90zM776.001 108.997l-127 0.000976562c-23.333 0 -40.166 4.16699 -50.499 12.5s-15.5 21.166 -15.5 38.499c0 10.667 2.16699 20.5 6.5 29.5
s11.166 19.167 20.499 30.5l175 209h66v-263h64v-57h-64v-108h-75v108zM776.001 165.998v162l-127 -150c-4 -4.66699 -6 -7.66699 -6 -9c0 -2 2.66699 -3 8 -3h125z" />
    <glyph glyph-name="questiondown" unicode="&#xbf;" horiz-adv-x="569" 
d="M226 149c11.333 9.33301 21.001 17.832 29.001 25.499s14.667 15.5 20 23.5s9.16602 16.667 11.499 26s3.5 20.333 3.5 33v32h76v-52c0 -16 -1.33301 -29.833 -4 -41.5s-6.5 -22.334 -11.5 -32.001s-11.167 -18.5 -18.5 -26.5s-15.666 -16 -24.999 -24l-62 -56
c-20.667 -18 -35.834 -35.5 -45.501 -52.5s-14.5 -35.167 -14.5 -54.5c0 -34.667 10.167 -62.667 30.5 -84s53.5 -32 99.5 -32c36.667 0 69 6 97 18s52.333 27 73 45l39 -60c-28 -22.667 -60.333 -41 -97 -55s-76.334 -21 -119.001 -21
c-37.333 0 -69.666 4.83301 -96.999 14.5s-50 22.667 -68 39s-31.5 35.333 -40.5 57s-13.5 44.834 -13.5 69.501c0 38.667 8.33301 70.834 25 96.501s38 49.5 64 71.5zM326.001 372.999c-21.333 0 -37 6.5 -47 19.5s-15 29.5 -15 49.5s5 36.5 15 49.5s25.667 19.5 47 19.5
c22 0 38 -6.5 48 -19.5s15 -29.5 15 -49.5s-5 -36.5 -15 -49.5s-26 -19.5 -48 -19.5z" />
    <glyph glyph-name="Agrave" unicode="&#xc0;" horiz-adv-x="646" 
d="M211 627c10.667 34 23.499 60.167 38.499 78.5s37.5 27.5 67.5 27.5c18 0 33 -1.33301 45 -4s22.333 -8 31 -16s16.334 -18.833 23.001 -32.5s13.667 -31.5 21 -53.5l196 -627l-96 -16l-79 248h-283l-76 -248l-81 17zM437.999 306l-95 313
c-4 13.333 -7.83301 22.5 -11.5 27.5s-8.5 7.5 -14.5 7.5c-7.33301 0 -12.5 -2.5 -15.5 -7.5s-6.5 -14.167 -10.5 -27.5l-95 -313h242zM281.999 964l138 -161l-41 -38l-164 139z" />
    <glyph glyph-name="Aacute" unicode="&#xc1;" horiz-adv-x="646" 
d="M211 627c10.667 34 23.499 60.167 38.499 78.5s37.5 27.5 67.5 27.5c18 0 33 -1.33301 45 -4s22.333 -8 31 -16s16.334 -18.833 23.001 -32.5s13.667 -31.5 21 -53.5l196 -627l-96 -16l-79 248h-283l-76 -248l-81 17zM437.999 306l-95 313
c-4 13.333 -7.83301 22.5 -11.5 27.5s-8.5 7.5 -14.5 7.5c-7.33301 0 -12.5 -2.5 -15.5 -7.5s-6.5 -14.167 -10.5 -27.5l-95 -313h242zM399.999 962l67 -60l-166 -139l-40 36z" />
    <glyph glyph-name="Acircumflex" unicode="&#xc2;" horiz-adv-x="646" 
d="M211 627c10.667 34 23.499 60.167 38.499 78.5s37.5 27.5 67.5 27.5c18 0 33 -1.33301 45 -4s22.333 -8 31 -16s16.334 -18.833 23.001 -32.5s13.667 -31.5 21 -53.5l196 -627l-96 -16l-79 248h-283l-76 -248l-81 17zM437.999 306l-95 313
c-4 13.333 -7.83301 22.5 -11.5 27.5s-8.5 7.5 -14.5 7.5c-7.33301 0 -12.5 -2.5 -15.5 -7.5s-6.5 -14.167 -10.5 -27.5l-95 -313h242zM286.999 924h77l97 -124l-40 -35l-96 83l-98 -83l-42 34z" />
    <glyph glyph-name="Atilde" unicode="&#xc3;" horiz-adv-x="646" 
d="M211 627c10.667 34 23.499 60.167 38.499 78.5s37.5 27.5 67.5 27.5c18 0 33 -1.33301 45 -4s22.333 -8 31 -16s16.334 -18.833 23.001 -32.5s13.667 -31.5 21 -53.5l196 -627l-96 -16l-79 248h-283l-76 -248l-81 17zM437.999 306l-95 313
c-4 13.333 -7.83301 22.5 -11.5 27.5s-8.5 7.5 -14.5 7.5c-7.33301 0 -12.5 -2.5 -15.5 -7.5s-6.5 -14.167 -10.5 -27.5l-95 -313h242zM132.999 782c0 40 6.50098 71.499 19.501 94.499s35.167 34.5 66.5 34.5c11.333 0 23.833 -1.66699 37.5 -5
s27.167 -7.66602 40.5 -12.999l42 -16c13.333 -5.33301 25.166 -9.83301 35.499 -13.5s19.5 -5.5 27.5 -5.5c12.667 0 22 3.83301 28 11.5s9 22.5 9 44.5h57c0 -86.667 -27.667 -130 -83 -130c-15.333 0 -29.666 2 -42.999 6s-27.666 8.66699 -42.999 14l-37 14
c-12.667 5.33301 -24.834 9.83301 -36.501 13.5s-21.834 5.5 -30.501 5.5c-12.667 0 -21.5 -3.66699 -26.5 -11s-7.5 -22 -7.5 -44h-56z" />
    <glyph glyph-name="Adieresis" unicode="&#xc4;" horiz-adv-x="646" 
d="M211 627c10.667 34 23.499 60.167 38.499 78.5s37.5 27.5 67.5 27.5c18 0 33 -1.33301 45 -4s22.333 -8 31 -16s16.334 -18.833 23.001 -32.5s13.667 -31.5 21 -53.5l196 -627l-96 -16l-79 248h-283l-76 -248l-81 17zM437.999 306l-95 313
c-4 13.333 -7.83301 22.5 -11.5 27.5s-8.5 7.5 -14.5 7.5c-7.33301 0 -12.5 -2.5 -15.5 -7.5s-6.5 -14.167 -10.5 -27.5l-95 -313h242zM205.999 779c-21.333 0 -37.166 6.33301 -47.499 19s-15.5 27.667 -15.5 45c0 18 5.16699 33.333 15.5 46s26.166 19 47.499 19
c20.667 0 36.167 -6.33301 46.5 -19s15.5 -28 15.5 -46c0 -17.333 -5.16699 -32.333 -15.5 -45s-25.833 -19 -46.5 -19zM431.999 779c-21.333 0 -37.166 6.33301 -47.499 19s-15.5 27.667 -15.5 45c0 18 5.16699 33.333 15.5 46s26.166 19 47.499 19
c20.667 0 36.167 -6.33301 46.5 -19s15.5 -28 15.5 -46c0 -17.333 -5.16699 -32.333 -15.5 -45s-25.833 -19 -46.5 -19z" />
    <glyph glyph-name="Aring" unicode="&#xc5;" horiz-adv-x="646" 
d="M211 627c10.667 34 23.499 60.167 38.499 78.5s37.5 27.5 67.5 27.5c18 0 33 -1.33301 45 -4s22.333 -8 31 -16s16.334 -18.833 23.001 -32.5s13.667 -31.5 21 -53.5l196 -627l-96 -16l-79 248h-283l-76 -248l-81 17zM437.999 306l-95 313
c-4 13.333 -7.83301 22.5 -11.5 27.5s-8.5 7.5 -14.5 7.5c-7.33301 0 -12.5 -2.5 -15.5 -7.5s-6.5 -14.167 -10.5 -27.5l-95 -313h242zM321.999 822c18.667 0 34.167 6.5 46.5 19.5s18.5 28.5 18.5 46.5s-6.33301 33.5 -19 46.5s-28 19.5 -46 19.5s-33.333 -6.5 -46 -19.5
s-19 -28.5 -19 -46.5s6.16699 -33.5 18.5 -46.5s27.833 -19.5 46.5 -19.5zM192.999 888c0 18 3.33301 34.833 10 50.5s15.834 29.334 27.501 41.001s25.334 20.834 41.001 27.501s32.5 10 50.5 10s34.833 -3.33301 50.5 -10s29.334 -15.834 41.001 -27.501
s20.834 -25.334 27.501 -41.001s10 -32.5 10 -50.5s-3.33301 -34.833 -10 -50.5s-15.834 -29.334 -27.501 -41.001s-25.334 -20.834 -41.001 -27.501s-32.5 -10 -50.5 -10s-34.833 3.33301 -50.5 10s-29.334 15.834 -41.001 27.501s-20.834 25.334 -27.501 41.001
s-10 32.5 -10 50.5z" />
    <glyph glyph-name="AE" unicode="&#xc6;" horiz-adv-x="965" 
d="M295 602c17.333 37.333 39.333 66.5 66 87.5s64 31.5 112 31.5h440v-76h-342v-245h258v-76h-258v-248h354v-76h-452v324h-219l-158 -334l-81 23zM473 400v247c-15.333 0 -28 -1.33301 -38 -4s-18.5 -6.5 -25.5 -11.5s-13.167 -11.5 -18.5 -19.5s-10.333 -17 -15 -27
l-89 -185h186z" />
    <glyph glyph-name="Ccedilla" unicode="&#xc7;" horiz-adv-x="593" 
d="M257 -156c10.667 -5.33301 23.3301 -10.8379 37.9971 -16.5049s30.334 -8.5 47.001 -8.5c14.667 0 26.334 3.66699 35.001 11s13 17 13 29c0 20.667 -8.16699 34 -24.5 40s-37.166 9 -62.499 9l19 76c-48 4.66699 -88.667 17.167 -122 37.5s-60.333 46.833 -81 79.5
s-35.667 70.834 -45 114.501s-14 91.5 -14 143.5c0 54 6.16699 104 18.5 150s31.166 85.833 56.499 119.5s57.5 60 96.5 79s85.167 28.5 138.5 28.5c40.667 0 77.5 -5.33301 110.5 -16s60.167 -22.667 81.5 -36l-34 -65c-22 13.333 -45.833 23.833 -71.5 31.5
s-53.5 11.5 -83.5 11.5c-28 0 -54.5 -4.33301 -79.5 -13s-47 -24.167 -66 -46.5s-34.167 -53.166 -45.5 -92.499s-17 -89.666 -17 -150.999c0 -99.333 16.5 -174.166 49.5 -224.499s85.5 -75.5 157.5 -75.5c17.333 0 33 0.833008 47 2.5s27.5 4.33398 40.5 8.00098
s26 8.5 39 14.5s26.833 13.333 41.5 22l37 -63c-19.333 -14.667 -45.166 -27.667 -77.499 -39s-68.166 -18.333 -107.499 -21l-8 -33c12 -1.33301 23.5 -3.83301 34.5 -7.5s20.833 -9 29.5 -16s15.667 -15.667 21 -26s8 -22.833 8 -37.5c0 -30 -10.5 -54.667 -31.5 -74
s-52.5 -29 -94.5 -29c-20.667 0 -42.334 3 -65.001 9s-40.667 13.667 -54 23z" />
    <glyph glyph-name="Egrave" unicode="&#xc8;" horiz-adv-x="577" 
d="M85 721h440v-76h-342v-231h258v-76h-258v-262h354v-76h-452v721zM236 964l138 -161l-41 -38l-164 139z" />
    <glyph glyph-name="Eacute" unicode="&#xc9;" horiz-adv-x="577" 
d="M85 721h440v-76h-342v-231h258v-76h-258v-262h354v-76h-452v721zM378 962l67 -60l-166 -139l-40 36z" />
    <glyph glyph-name="Ecircumflex" unicode="&#xca;" horiz-adv-x="577" 
d="M85 721h440v-76h-342v-231h258v-76h-258v-262h354v-76h-452v721zM273 924h77l97 -124l-40 -35l-96 83l-98 -83l-42 34z" />
    <glyph glyph-name="Edieresis" unicode="&#xcb;" horiz-adv-x="577" 
d="M85 721h440v-76h-342v-231h258v-76h-258v-262h354v-76h-452v721zM191 779c-21.333 0 -37.166 6.33301 -47.499 19s-15.5 27.667 -15.5 45c0 18 5.16699 33.333 15.5 46s26.166 19 47.499 19c20.667 0 36.167 -6.33301 46.5 -19s15.5 -28 15.5 -46
c0 -17.333 -5.16699 -32.333 -15.5 -45s-25.833 -19 -46.5 -19zM417 779c-21.333 0 -37.166 6.33301 -47.499 19s-15.5 27.667 -15.5 45c0 18 5.16699 33.333 15.5 46s26.166 19 47.499 19c20.667 0 36.167 -6.33301 46.5 -19s15.5 -28 15.5 -46
c0 -17.333 -5.16699 -32.333 -15.5 -45s-25.833 -19 -46.5 -19z" />
    <glyph glyph-name="Igrave" unicode="&#xcc;" horiz-adv-x="280" 
d="M91 721h98v-721h-98v721zM83 964l138 -161l-41 -38l-164 139z" />
    <glyph glyph-name="Iacute" unicode="&#xcd;" horiz-adv-x="280" 
d="M91 721h98v-721h-98v721zM193 962l67 -60l-166 -139l-40 36z" />
    <glyph glyph-name="Icircumflex" unicode="&#xce;" horiz-adv-x="280" 
d="M91 721h98v-721h-98v721zM105 924h77l97 -124l-40 -35l-96 83l-98 -83l-42 34z" />
    <glyph glyph-name="Idieresis" unicode="&#xcf;" horiz-adv-x="280" 
d="M91 721h98v-721h-98v721zM29 779c-21.333 0 -37.166 6.33301 -47.499 19s-15.5 27.667 -15.5 45c0 18 5.16699 33.333 15.5 46s26.166 19 47.499 19c20.667 0 36.167 -6.33301 46.5 -19s15.5 -28 15.5 -46c0 -17.333 -5.16699 -32.333 -15.5 -45s-25.833 -19 -46.5 -19z
M255 779c-21.333 0 -37.166 6.33301 -47.499 19s-15.5 27.667 -15.5 45c0 18 5.16699 33.333 15.5 46s26.166 19 47.499 19c20.667 0 36.167 -6.33301 46.5 -19s15.5 -28 15.5 -46c0 -17.333 -5.16699 -32.333 -15.5 -45s-25.833 -19 -46.5 -19z" />
    <glyph glyph-name="Eth" unicode="&#xd0;" horiz-adv-x="703" 
d="M90 329l-70.998 0.000976562v71h71v321h228c56 0 104.333 -8.33301 145 -25s74.167 -40.5 100.5 -71.5s45.833 -68.833 58.5 -113.5s19 -95.334 19 -152.001c0 -55.333 -6.5 -105 -19.5 -149s-32.833 -81.667 -59.5 -113s-60.334 -55.333 -101.001 -72
s-88.334 -25 -143.001 -25h-228v329zM322.002 75.001c42 0 76.833 7 104.5 21s49.667 33.667 66 59s27.833 55.5 34.5 90.5s10 73.167 10 114.5c0 40 -3.5 77.5 -10.5 112.5s-18.667 65.5 -35 91.5s-38.333 46.5 -66 61.5s-62.167 22.5 -103.5 22.5h-134v-248h204v-71h-204
v-254h134z" />
    <glyph glyph-name="Ntilde" unicode="&#xd1;" horiz-adv-x="693" 
d="M88 721l97 0.000976562l312 -615c4.66699 -9.33301 8.16699 -15.5 10.5 -18.5s5.16602 -4.5 8.49902 -4.5c5.33301 0 8 5 8 15v623h81v-621c0 -40 -8 -67.833 -24 -83.5s-37.333 -23.5 -64 -23.5c-12 0 -22.833 1 -32.5 3s-18.5 5.66699 -26.5 11
s-15.667 12.666 -23 21.999s-14.666 21.333 -21.999 36l-244 482v-547h-81v721zM174 782.001c0 40 6.50098 71.499 19.501 94.499s35.167 34.5 66.5 34.5c11.333 0 23.833 -1.66699 37.5 -5s27.167 -7.66602 40.5 -12.999l42 -16
c13.333 -5.33301 25.166 -9.83301 35.499 -13.5s19.5 -5.5 27.5 -5.5c12.667 0 22 3.83301 28 11.5s9 22.5 9 44.5h57c0 -86.667 -27.667 -130 -83 -130c-15.333 0 -29.666 2 -42.999 6s-27.666 8.66699 -42.999 14l-37 14c-12.667 5.33301 -24.834 9.83301 -36.501 13.5
s-21.834 5.5 -30.501 5.5c-12.667 0 -21.5 -3.66699 -26.5 -11s-7.5 -22 -7.5 -44h-56z" />
    <glyph glyph-name="Ograve" unicode="&#xd2;" horiz-adv-x="722" 
d="M361 -18c-52 0 -97 8.83496 -135 26.502s-69.167 43 -93.5 76s-42.5 72.667 -54.5 119s-18 98.166 -18 155.499c0 54.667 6.16699 105.167 18.5 151.5s31 86.166 56 119.499s56.333 59.333 94 78s81.834 28 132.501 28c52 0 97 -9 135 -27s69.167 -43.5 93.5 -76.5
s42.5 -72.667 54.5 -119s18 -97.833 18 -154.5c0 -55.333 -6.16699 -106 -18.5 -152s-31 -85.667 -56 -119s-56.333 -59.333 -94 -78s-81.834 -28 -132.501 -28zM361 58.002c38.667 0 70.501 7.99805 95.501 23.998s45 37.667 60 65s25.5 59.333 31.5 96s9 75.667 9 117
c0 40 -3.33301 78.167 -10 114.5s-17.5 68.5 -32.5 96.5s-35.167 50.167 -60.5 66.5s-56.333 24.5 -93 24.5c-38.667 0 -70.5 -8 -95.5 -24s-45 -37.833 -60 -65.5s-25.5 -60 -31.5 -97s-9 -76.167 -9 -117.5c0 -40 3.16699 -78.167 9.5 -114.5
s17.166 -68.166 32.499 -95.499s35.5 -49.166 60.5 -65.499s56.167 -24.5 93.5 -24.5zM312.001 964l138 -161l-41 -38l-164 139z" />
    <glyph glyph-name="Oacute" unicode="&#xd3;" horiz-adv-x="722" 
d="M361 -18c-52 0 -97 8.83496 -135 26.502s-69.167 43 -93.5 76s-42.5 72.667 -54.5 119s-18 98.166 -18 155.499c0 54.667 6.16699 105.167 18.5 151.5s31 86.166 56 119.499s56.333 59.333 94 78s81.834 28 132.501 28c52 0 97 -9 135 -27s69.167 -43.5 93.5 -76.5
s42.5 -72.667 54.5 -119s18 -97.833 18 -154.5c0 -55.333 -6.16699 -106 -18.5 -152s-31 -85.667 -56 -119s-56.333 -59.333 -94 -78s-81.834 -28 -132.501 -28zM361 58.002c38.667 0 70.501 7.99805 95.501 23.998s45 37.667 60 65s25.5 59.333 31.5 96s9 75.667 9 117
c0 40 -3.33301 78.167 -10 114.5s-17.5 68.5 -32.5 96.5s-35.167 50.167 -60.5 66.5s-56.333 24.5 -93 24.5c-38.667 0 -70.5 -8 -95.5 -24s-45 -37.833 -60 -65.5s-25.5 -60 -31.5 -97s-9 -76.167 -9 -117.5c0 -40 3.16699 -78.167 9.5 -114.5
s17.166 -68.166 32.499 -95.499s35.5 -49.166 60.5 -65.499s56.167 -24.5 93.5 -24.5zM429.001 962l67 -60l-166 -139l-40 36z" />
    <glyph glyph-name="Ocircumflex" unicode="&#xd4;" horiz-adv-x="722" 
d="M361 -18c-52 0 -97 8.83496 -135 26.502s-69.167 43 -93.5 76s-42.5 72.667 -54.5 119s-18 98.166 -18 155.499c0 54.667 6.16699 105.167 18.5 151.5s31 86.166 56 119.499s56.333 59.333 94 78s81.834 28 132.501 28c52 0 97 -9 135 -27s69.167 -43.5 93.5 -76.5
s42.5 -72.667 54.5 -119s18 -97.833 18 -154.5c0 -55.333 -6.16699 -106 -18.5 -152s-31 -85.667 -56 -119s-56.333 -59.333 -94 -78s-81.834 -28 -132.501 -28zM361 58.002c38.667 0 70.501 7.99805 95.501 23.998s45 37.667 60 65s25.5 59.333 31.5 96s9 75.667 9 117
c0 40 -3.33301 78.167 -10 114.5s-17.5 68.5 -32.5 96.5s-35.167 50.167 -60.5 66.5s-56.333 24.5 -93 24.5c-38.667 0 -70.5 -8 -95.5 -24s-45 -37.833 -60 -65.5s-25.5 -60 -31.5 -97s-9 -76.167 -9 -117.5c0 -40 3.16699 -78.167 9.5 -114.5
s17.166 -68.166 32.499 -95.499s35.5 -49.166 60.5 -65.499s56.167 -24.5 93.5 -24.5zM331.001 924h77l97 -124l-40 -35l-96 83l-98 -83l-42 34z" />
    <glyph glyph-name="Otilde" unicode="&#xd5;" horiz-adv-x="722" 
d="M361 -18c-52 0 -97 8.83496 -135 26.502s-69.167 43 -93.5 76s-42.5 72.667 -54.5 119s-18 98.166 -18 155.499c0 54.667 6.16699 105.167 18.5 151.5s31 86.166 56 119.499s56.333 59.333 94 78s81.834 28 132.501 28c52 0 97 -9 135 -27s69.167 -43.5 93.5 -76.5
s42.5 -72.667 54.5 -119s18 -97.833 18 -154.5c0 -55.333 -6.16699 -106 -18.5 -152s-31 -85.667 -56 -119s-56.333 -59.333 -94 -78s-81.834 -28 -132.501 -28zM361 58.002c38.667 0 70.501 7.99805 95.501 23.998s45 37.667 60 65s25.5 59.333 31.5 96s9 75.667 9 117
c0 40 -3.33301 78.167 -10 114.5s-17.5 68.5 -32.5 96.5s-35.167 50.167 -60.5 66.5s-56.333 24.5 -93 24.5c-38.667 0 -70.5 -8 -95.5 -24s-45 -37.833 -60 -65.5s-25.5 -60 -31.5 -97s-9 -76.167 -9 -117.5c0 -40 3.16699 -78.167 9.5 -114.5
s17.166 -68.166 32.499 -95.499s35.5 -49.166 60.5 -65.499s56.167 -24.5 93.5 -24.5zM177.001 782c0 40 6.50098 71.499 19.501 94.499s35.167 34.5 66.5 34.5c11.333 0 23.833 -1.66699 37.5 -5s27.167 -7.66602 40.5 -12.999l42 -16
c13.333 -5.33301 25.166 -9.83301 35.499 -13.5s19.5 -5.5 27.5 -5.5c12.667 0 22 3.83301 28 11.5s9 22.5 9 44.5h57c0 -86.667 -27.667 -130 -83 -130c-15.333 0 -29.666 2 -42.999 6s-27.666 8.66699 -42.999 14l-37 14c-12.667 5.33301 -24.834 9.83301 -36.501 13.5
s-21.834 5.5 -30.501 5.5c-12.667 0 -21.5 -3.66699 -26.5 -11s-7.5 -22 -7.5 -44h-56z" />
    <glyph glyph-name="Odieresis" unicode="&#xd6;" horiz-adv-x="722" 
d="M361 -18c-52 0 -97 8.83496 -135 26.502s-69.167 43 -93.5 76s-42.5 72.667 -54.5 119s-18 98.166 -18 155.499c0 54.667 6.16699 105.167 18.5 151.5s31 86.166 56 119.499s56.333 59.333 94 78s81.834 28 132.501 28c52 0 97 -9 135 -27s69.167 -43.5 93.5 -76.5
s42.5 -72.667 54.5 -119s18 -97.833 18 -154.5c0 -55.333 -6.16699 -106 -18.5 -152s-31 -85.667 -56 -119s-56.333 -59.333 -94 -78s-81.834 -28 -132.501 -28zM361 58.002c38.667 0 70.501 7.99805 95.501 23.998s45 37.667 60 65s25.5 59.333 31.5 96s9 75.667 9 117
c0 40 -3.33301 78.167 -10 114.5s-17.5 68.5 -32.5 96.5s-35.167 50.167 -60.5 66.5s-56.333 24.5 -93 24.5c-38.667 0 -70.5 -8 -95.5 -24s-45 -37.833 -60 -65.5s-25.5 -60 -31.5 -97s-9 -76.167 -9 -117.5c0 -40 3.16699 -78.167 9.5 -114.5
s17.166 -68.166 32.499 -95.499s35.5 -49.166 60.5 -65.499s56.167 -24.5 93.5 -24.5zM256.001 779c-21.333 0 -37.166 6.33301 -47.499 19s-15.5 27.667 -15.5 45c0 18 5.16699 33.333 15.5 46s26.166 19 47.499 19c20.667 0 36.167 -6.33301 46.5 -19s15.5 -28 15.5 -46
c0 -17.333 -5.16699 -32.333 -15.5 -45s-25.833 -19 -46.5 -19zM482.001 779c-21.333 0 -37.166 6.33301 -47.499 19s-15.5 27.667 -15.5 45c0 18 5.16699 33.333 15.5 46s26.166 19 47.499 19c20.667 0 36.167 -6.33301 46.5 -19s15.5 -28 15.5 -46
c0 -17.333 -5.16699 -32.333 -15.5 -45s-25.833 -19 -46.5 -19z" />
    <glyph glyph-name="multiply" unicode="&#xd7;" horiz-adv-x="590" 
d="M104 204l134 134l-138 138l60 60l138 -138l135 135l56 -57l-135 -135l138 -138l-59 -59l-138 138l-135 -135z" />
    <glyph glyph-name="Oslash" unicode="&#xd8;" horiz-adv-x="722" 
d="M160 53c-34 32.667 -59.167 74.834 -75.5 126.501s-24.5 111.5 -24.5 179.5c0 54.667 6.16699 105.167 18.5 151.5s31 86.166 56 119.499s56.333 59.333 94 78s81.834 28 132.501 28c55.333 0 103.333 -10.667 144 -32l45 84h88l-70 -132c32 -33.333 55.667 -75 71 -125
s23 -107.333 23 -172c0 -55.333 -6.16699 -106 -18.5 -152s-31 -85.667 -56 -119s-56.333 -59.333 -94 -78s-81.834 -28 -132.501 -28c-52.667 0 -98 9 -136 27l-48 -91h-88zM466 629c-14 10.667 -29.668 18.833 -47.001 24.5s-36.666 8.5 -57.999 8.5
c-38.667 0 -70.5 -8 -95.5 -24s-45 -37.833 -60 -65.5s-25.5 -60 -31.5 -97s-9 -76.167 -9 -117.5s3.33301 -80.333 10 -117s18 -69 34 -97zM264.999 83.999c26.667 -17.333 58.667 -26 96 -26c38.667 0 70.5 8 95.5 24s45 37.667 60 65s25.5 59.333 31.5 96s9 75.667 9 117
c0 38 -3 74.333 -9 109s-15.667 66 -29 94z" />
    <glyph glyph-name="Ugrave" unicode="&#xd9;" horiz-adv-x="688" 
d="M86 721h98.0029v-433c0 -35.333 1.66699 -67.333 5 -96s10.5 -53 21.5 -73s27 -35.333 48 -46s49.167 -16 84.5 -16s64.166 5 86.499 15s39.666 24.667 51.999 44s20.833 43 25.5 71s7 60.333 7 97v437h88v-439c0 -44 -4 -84.5 -12 -121.5s-22 -68.667 -42 -95
s-46.833 -46.833 -80.5 -61.5s-76.167 -22 -127.5 -22c-50.667 0 -92.334 6.33301 -125.001 19s-58.5 31.167 -77.5 55.5s-32.333 54.5 -40 90.5s-11.5 77.333 -11.5 124v450zM305.003 964l138 -161l-41 -38l-164 139z" />
    <glyph glyph-name="Uacute" unicode="&#xda;" horiz-adv-x="688" 
d="M86 721h98.0029v-433c0 -35.333 1.66699 -67.333 5 -96s10.5 -53 21.5 -73s27 -35.333 48 -46s49.167 -16 84.5 -16s64.166 5 86.499 15s39.666 24.667 51.999 44s20.833 43 25.5 71s7 60.333 7 97v437h88v-439c0 -44 -4 -84.5 -12 -121.5s-22 -68.667 -42 -95
s-46.833 -46.833 -80.5 -61.5s-76.167 -22 -127.5 -22c-50.667 0 -92.334 6.33301 -125.001 19s-58.5 31.167 -77.5 55.5s-32.333 54.5 -40 90.5s-11.5 77.333 -11.5 124v450zM428.003 962l67 -60l-166 -139l-40 36z" />
    <glyph glyph-name="Ucircumflex" unicode="&#xdb;" horiz-adv-x="688" 
d="M86 721h98.0029v-433c0 -35.333 1.66699 -67.333 5 -96s10.5 -53 21.5 -73s27 -35.333 48 -46s49.167 -16 84.5 -16s64.166 5 86.499 15s39.666 24.667 51.999 44s20.833 43 25.5 71s7 60.333 7 97v437h88v-439c0 -44 -4 -84.5 -12 -121.5s-22 -68.667 -42 -95
s-46.833 -46.833 -80.5 -61.5s-76.167 -22 -127.5 -22c-50.667 0 -92.334 6.33301 -125.001 19s-58.5 31.167 -77.5 55.5s-32.333 54.5 -40 90.5s-11.5 77.333 -11.5 124v450zM322.003 924h77l97 -124l-40 -35l-96 83l-98 -83l-42 34z" />
    <glyph glyph-name="Udieresis" unicode="&#xdc;" horiz-adv-x="688" 
d="M86 721h98.0029v-433c0 -35.333 1.66699 -67.333 5 -96s10.5 -53 21.5 -73s27 -35.333 48 -46s49.167 -16 84.5 -16s64.166 5 86.499 15s39.666 24.667 51.999 44s20.833 43 25.5 71s7 60.333 7 97v437h88v-439c0 -44 -4 -84.5 -12 -121.5s-22 -68.667 -42 -95
s-46.833 -46.833 -80.5 -61.5s-76.167 -22 -127.5 -22c-50.667 0 -92.334 6.33301 -125.001 19s-58.5 31.167 -77.5 55.5s-32.333 54.5 -40 90.5s-11.5 77.333 -11.5 124v450zM239.003 779c-21.333 0 -37.166 6.33301 -47.499 19s-15.5 27.667 -15.5 45
c0 18 5.16699 33.333 15.5 46s26.166 19 47.499 19c20.667 0 36.167 -6.33301 46.5 -19s15.5 -28 15.5 -46c0 -17.333 -5.16699 -32.333 -15.5 -45s-25.833 -19 -46.5 -19zM465.003 779c-21.333 0 -37.166 6.33301 -47.499 19s-15.5 27.667 -15.5 45
c0 18 5.16699 33.333 15.5 46s26.166 19 47.499 19c20.667 0 36.167 -6.33301 46.5 -19s15.5 -28 15.5 -46c0 -17.333 -5.16699 -32.333 -15.5 -45s-25.833 -19 -46.5 -19z" />
    <glyph glyph-name="Yacute" unicode="&#xdd;" horiz-adv-x="569" 
d="M233 279c-8 4 -14.667 8.66699 -20 14s-10.333 11.833 -15 19.5s-9.33398 16.5 -14.001 26.5l-16 34l-153 339l92 18l156 -349c5.33301 -12 9.5 -20.833 12.5 -26.5s6.83301 -8.5 11.5 -8.5s8.5 2.66699 11.5 8l14.5 27l160 347l81 -19l-159 -336
c-11.333 -22 -21.666 -41 -30.999 -57s-20.333 -28 -33 -36v-280h-98v279zM374 962l67 -60l-166 -139l-40 36z" />
    <glyph glyph-name="Thorn" unicode="&#xde;" horiz-adv-x="586" 
d="M85 721l97.999 -0.000976562v-108h121c34 0 66 -3.33301 96 -10s56.167 -18.167 78.5 -34.5s39.833 -38 52.5 -65s19 -60.833 19 -101.5c0 -27.333 -5.16699 -54.166 -15.5 -80.499s-25.666 -49.833 -45.999 -70.5s-46 -37.5 -77 -50.5s-66.833 -19.5 -107.5 -19.5h-121
v-181h-98v721zM287.999 255.999c55.333 0 96.168 11.165 122.501 33.498s39.5 58.5 39.5 108.5c0 28.667 -3.83301 52.334 -11.5 71.001s-18.5 33.334 -32.5 44.001s-30.833 18 -50.5 22s-41.834 6 -66.501 6h-106v-285h105z" />
    <glyph glyph-name="germandbls" unicode="&#xdf;" horiz-adv-x="598" 
d="M70 541c0 27.333 4.3291 52.8291 12.9961 76.4961s21.834 44.167 39.501 61.5s40 30.833 67 40.5s59.167 14.5 96.5 14.5c38.667 0 70.834 -4.16699 96.501 -12.5s45.834 -19.166 60.501 -32.499s25 -28 31 -44s9 -31.667 9 -47c0 -22 -5.83301 -42 -17.5 -60
s-24.334 -34.667 -38.001 -50l-38 -44.5c-11.667 -14.333 -17.5 -28.833 -17.5 -43.5c0 -13.333 4.5 -24.833 13.5 -34.5s20.167 -19.167 33.5 -28.5l43.5 -29.5c15.667 -10.333 30.167 -22.666 43.5 -36.999s24.5 -31.5 33.5 -51.5s13.5 -44 13.5 -72
c0 -22 -3.83301 -43 -11.5 -63s-19.167 -37.5 -34.5 -52.5s-34.833 -27 -58.5 -36s-51.834 -13.5 -84.501 -13.5c-38.667 0 -70.167 3.83301 -94.5 11.5s-42.5 14.834 -54.5 21.501l27 65c13.333 -6 30.333 -12.5 51 -19.5s44.667 -10.5 72 -10.5
c38.667 0 66.167 8.33301 82.5 25s24.5 38.334 24.5 65.001c0 20 -4.66699 36.667 -14 50s-21 25.333 -35 36s-29 20.5 -45 29.5s-31 19.167 -45 30.5s-25.667 24.5 -35 39.5s-14 33.5 -14 55.5c0 22.667 5.83301 43 17.5 61s24.334 35 38.001 51s26.334 31.833 38.001 47.5
s17.5 33.167 17.5 52.5c0 20.667 -7.66699 38.334 -23 53.001s-44 22 -86 22c-45.333 0 -77.166 -12.833 -95.499 -38.5s-27.5 -61.834 -27.5 -108.501v-521h-93v541z" />
    <glyph glyph-name="agrave" unicode="&#xe0;" horiz-adv-x="513" 
d="M363 41c-19.333 -15.333 -41.001 -28.9971 -65.001 -40.9971s-54.667 -18 -92 -18c-49.333 0 -89 13.167 -119 39.5s-45 67.166 -45 122.499c0 29.333 5.16699 54.166 15.5 74.499s24.833 37 43.5 50s41.167 22.5 67.5 28.5s55.5 9 87.5 9h86v25
c0 42 -6.5 72.167 -19.5 90.5s-37.833 27.5 -74.5 27.5c-48 0 -97 -10 -147 -30l-23 62c19.333 8 44 16.333 74 25s66 13 108 13c39.333 0 70.333 -5.33301 93 -16s39.834 -25.334 51.501 -44.001s19.167 -40.667 22.5 -66s5 -52.333 5 -81v-215l43 -64l-65 -49z
M341.999 244.003l-79.999 0.000976562c-46 0 -78.667 -7 -98 -21s-29 -39 -29 -75c0 -32.667 7.16699 -56.834 21.5 -72.501s35.166 -23.5 62.499 -23.5c29.333 0 54.5 5.33301 75.5 16s36.833 21.667 47.5 33v143zM139 745.004l73 51l116 -180l-46 -34z" />
    <glyph glyph-name="aacute" unicode="&#xe1;" horiz-adv-x="513" 
d="M363 41c-19.333 -15.333 -41.001 -28.9971 -65.001 -40.9971s-54.667 -18 -92 -18c-49.333 0 -89 13.167 -119 39.5s-45 67.166 -45 122.499c0 29.333 5.16699 54.166 15.5 74.499s24.833 37 43.5 50s41.167 22.5 67.5 28.5s55.5 9 87.5 9h86v25
c0 42 -6.5 72.167 -19.5 90.5s-37.833 27.5 -74.5 27.5c-48 0 -97 -10 -147 -30l-23 62c19.333 8 44 16.333 74 25s66 13 108 13c39.333 0 70.333 -5.33301 93 -16s39.834 -25.334 51.501 -44.001s19.167 -40.667 22.5 -66s5 -52.333 5 -81v-215l43 -64l-65 -49z
M341.999 244.003l-79.999 0.000976562c-46 0 -78.667 -7 -98 -21s-29 -39 -29 -75c0 -32.667 7.16699 -56.834 21.5 -72.501s35.166 -23.5 62.499 -23.5c29.333 0 54.5 5.33301 75.5 16s36.833 21.667 47.5 33v143zM307 796.004l73 -51l-143 -163l-46 34z" />
    <glyph glyph-name="acircumflex" unicode="&#xe2;" horiz-adv-x="513" 
d="M363 41c-19.333 -15.333 -41.001 -28.9971 -65.001 -40.9971s-54.667 -18 -92 -18c-49.333 0 -89 13.167 -119 39.5s-45 67.166 -45 122.499c0 29.333 5.16699 54.166 15.5 74.499s24.833 37 43.5 50s41.167 22.5 67.5 28.5s55.5 9 87.5 9h86v25
c0 42 -6.5 72.167 -19.5 90.5s-37.833 27.5 -74.5 27.5c-48 0 -97 -10 -147 -30l-23 62c19.333 8 44 16.333 74 25s66 13 108 13c39.333 0 70.333 -5.33301 93 -16s39.834 -25.334 51.501 -44.001s19.167 -40.667 22.5 -66s5 -52.333 5 -81v-215l43 -64l-65 -49z
M341.999 244.003l-79.999 0.000976562c-46 0 -78.667 -7 -98 -21s-29 -39 -29 -75c0 -32.667 7.16699 -56.834 21.5 -72.501s35.166 -23.5 62.499 -23.5c29.333 0 54.5 5.33301 75.5 16s36.833 21.667 47.5 33v143zM216 774.004h77l105 -168l-46 -31l-97 119l-100 -118
l-47 32z" />
    <glyph glyph-name="atilde" unicode="&#xe3;" horiz-adv-x="513" 
d="M363 41c-19.333 -15.333 -41.001 -28.9971 -65.001 -40.9971s-54.667 -18 -92 -18c-49.333 0 -89 13.167 -119 39.5s-45 67.166 -45 122.499c0 29.333 5.16699 54.166 15.5 74.499s24.833 37 43.5 50s41.167 22.5 67.5 28.5s55.5 9 87.5 9h86v25
c0 42 -6.5 72.167 -19.5 90.5s-37.833 27.5 -74.5 27.5c-48 0 -97 -10 -147 -30l-23 62c19.333 8 44 16.333 74 25s66 13 108 13c39.333 0 70.333 -5.33301 93 -16s39.834 -25.334 51.501 -44.001s19.167 -40.667 22.5 -66s5 -52.333 5 -81v-215l43 -64l-65 -49z
M341.999 244.003l-79.999 0.000976562c-46 0 -78.667 -7 -98 -21s-29 -39 -29 -75c0 -32.667 7.16699 -56.834 21.5 -72.501s35.166 -23.5 62.499 -23.5c29.333 0 54.5 5.33301 75.5 16s36.833 21.667 47.5 33v143zM71 600.004c0 40 6.50098 71.499 19.501 94.499
s35.167 34.5 66.5 34.5c11.333 0 23.833 -1.66699 37.5 -5s27.167 -7.66602 40.5 -12.999l42 -16c13.333 -5.33301 25.166 -9.83301 35.499 -13.5s19.5 -5.5 27.5 -5.5c12.667 0 22 3.83301 28 11.5s9 22.5 9 44.5h57c0 -86.667 -27.667 -130 -83 -130
c-15.333 0 -29.666 2 -42.999 6s-27.666 8.66699 -42.999 14l-37 14c-12.667 5.33301 -24.834 9.83301 -36.501 13.5s-21.834 5.5 -30.501 5.5c-12.667 0 -21.5 -3.66699 -26.5 -11s-7.5 -22 -7.5 -44h-56z" />
    <glyph glyph-name="adieresis" unicode="&#xe4;" horiz-adv-x="513" 
d="M363 41c-19.333 -15.333 -41.001 -28.9971 -65.001 -40.9971s-54.667 -18 -92 -18c-49.333 0 -89 13.167 -119 39.5s-45 67.166 -45 122.499c0 29.333 5.16699 54.166 15.5 74.499s24.833 37 43.5 50s41.167 22.5 67.5 28.5s55.5 9 87.5 9h86v25
c0 42 -6.5 72.167 -19.5 90.5s-37.833 27.5 -74.5 27.5c-48 0 -97 -10 -147 -30l-23 62c19.333 8 44 16.333 74 25s66 13 108 13c39.333 0 70.333 -5.33301 93 -16s39.834 -25.334 51.501 -44.001s19.167 -40.667 22.5 -66s5 -52.333 5 -81v-215l43 -64l-65 -49z
M341.999 244.003l-79.999 0.000976562c-46 0 -78.667 -7 -98 -21s-29 -39 -29 -75c0 -32.667 7.16699 -56.834 21.5 -72.501s35.166 -23.5 62.499 -23.5c29.333 0 54.5 5.33301 75.5 16s36.833 21.667 47.5 33v143zM142 605.004c-21.333 0 -37.166 6.33301 -47.499 19
s-15.5 27.667 -15.5 45c0 18 5.16699 33.333 15.5 46s26.166 19 47.499 19c20.667 0 36.167 -6.33301 46.5 -19s15.5 -28 15.5 -46c0 -17.333 -5.16699 -32.333 -15.5 -45s-25.833 -19 -46.5 -19zM368 605.004c-21.333 0 -37.166 6.33301 -47.499 19s-15.5 27.667 -15.5 45
c0 18 5.16699 33.333 15.5 46s26.166 19 47.499 19c20.667 0 36.167 -6.33301 46.5 -19s15.5 -28 15.5 -46c0 -17.333 -5.16699 -32.333 -15.5 -45s-25.833 -19 -46.5 -19z" />
    <glyph glyph-name="aring" unicode="&#xe5;" horiz-adv-x="513" 
d="M363 41c-19.333 -15.333 -41.001 -28.9971 -65.001 -40.9971s-54.667 -18 -92 -18c-49.333 0 -89 13.167 -119 39.5s-45 67.166 -45 122.499c0 29.333 5.16699 54.166 15.5 74.499s24.833 37 43.5 50s41.167 22.5 67.5 28.5s55.5 9 87.5 9h86v25
c0 42 -6.5 72.167 -19.5 90.5s-37.833 27.5 -74.5 27.5c-48 0 -97 -10 -147 -30l-23 62c19.333 8 44 16.333 74 25s66 13 108 13c39.333 0 70.333 -5.33301 93 -16s39.834 -25.334 51.501 -44.001s19.167 -40.667 22.5 -66s5 -52.333 5 -81v-215l43 -64l-65 -49z
M341.999 244.003l-79.999 0.000976562c-46 0 -78.667 -7 -98 -21s-29 -39 -29 -75c0 -32.667 7.16699 -56.834 21.5 -72.501s35.166 -23.5 62.499 -23.5c29.333 0 54.5 5.33301 75.5 16s36.833 21.667 47.5 33v143zM251 644.004c18.667 0 34.167 6.5 46.5 19.5
s18.5 28.5 18.5 46.5s-6.33301 33.5 -19 46.5s-28 19.5 -46 19.5s-33.333 -6.5 -46 -19.5s-19 -28.5 -19 -46.5s6.16699 -33.5 18.5 -46.5s27.833 -19.5 46.5 -19.5zM122 710.004c0 18 3.33301 34.833 10 50.5s15.834 29.334 27.501 41.001s25.334 20.834 41.001 27.501
s32.5 10 50.5 10s34.833 -3.33301 50.5 -10s29.334 -15.834 41.001 -27.501s20.834 -25.334 27.501 -41.001s10 -32.5 10 -50.5s-3.33301 -34.833 -10 -50.5s-15.834 -29.334 -27.501 -41.001s-25.334 -20.834 -41.001 -27.501s-32.5 -10 -50.5 -10
s-34.833 3.33301 -50.5 10s-29.334 15.834 -41.001 27.501s-20.834 25.334 -27.501 41.001s-10 32.5 -10 50.5z" />
    <glyph glyph-name="ae" unicode="&#xe6;" horiz-adv-x="816" 
d="M78 481c19.333 8 43.998 16.335 73.998 25.002s66 13 108 13c40.667 0 72.334 -5.83301 95.001 -17.5s39.667 -28.167 51 -49.5c18 20 40.167 36.167 66.5 48.5s57.166 18.5 92.499 18.5c37.333 0 68.833 -7.16699 94.5 -21.5s46.334 -33.333 62.001 -57
s27 -50.5 34 -80.5s10.5 -60.333 10.5 -91l-33 -35h-297c2.66699 -58.667 15.667 -103.667 39 -135s59 -47 107 -47c25.333 0 49.333 2.66699 72 8s44 12.666 64 21.999l28 -61c-16 -9.33301 -39.167 -18.166 -69.5 -26.499s-62.166 -12.5 -95.499 -12.5
c-42.667 0 -78.667 5.5 -108 16.5s-53.333 26.5 -72 46.5c-30 -22.667 -61.5 -38.834 -94.5 -48.501s-66.5 -14.5 -100.5 -14.5c-49.333 0 -89 13.167 -119 39.5s-45 67.166 -45 122.499c0 29.333 5.16699 54 15.5 74s24.833 36 43.5 48s41.167 20.667 67.5 26
s55.5 8 87.5 8h86v31c0 42 -6.5 72.167 -19.5 90.5s-37.833 27.5 -74.5 27.5c-48 0 -97 -10 -147 -30zM261.998 235.002c-46 0 -78.666 -6.16797 -97.999 -18.501s-29 -35.166 -29 -68.499c0 -64 29.333 -96 88 -96c28.667 0 55.667 4.33301 81 13s46.666 19.667 63.999 33
c-17.333 37.333 -26 83 -26 137h-80zM670.999 299.001c0 53.333 -9.66895 92.333 -29.002 117s-48 37 -86 37c-41.333 0 -70.666 -13 -87.999 -39s-27.666 -64.333 -30.999 -115h234z" />
    <glyph glyph-name="ccedilla" unicode="&#xe7;" horiz-adv-x="473" 
d="M184 -156c10.667 -5.33301 23.3311 -10.832 37.998 -16.499s30.334 -8.5 47.001 -8.5c14.667 0 26.334 3.66699 35.001 11s13 17 13 29c0 20.667 -8.16699 34 -24.5 40s-37.166 9 -62.499 9l19 77c-37.333 4 -68.333 13 -93 27s-44.334 32.333 -59.001 55
s-25.167 49.167 -31.5 79.5s-9.5 63.5 -9.5 99.5c0 38.667 4.66699 74.667 14 108s23.833 62.333 43.5 87s44.667 43.834 75 57.501s66.833 20.5 109.5 20.5c30.667 0 58.834 -4 84.501 -12s47.5 -17.333 65.5 -28l-28 -62c-18 9.33301 -37 17.166 -57 23.499
s-42.667 9.5 -68 9.5c-49.333 0 -85.5 -16.833 -108.5 -50.5s-34.5 -84.834 -34.5 -153.501c0 -30 2.5 -56.833 7.5 -80.5s13.167 -44 24.5 -61s26.333 -30 45 -39s41.667 -13.5 69 -13.5c22 0 42.167 2 60.5 6s40.166 12 65.499 24l28 -60
c-15.333 -8.66699 -34.166 -16.667 -56.499 -24s-47.833 -12.333 -76.5 -15l-8 -33c12 -1.33301 23.5 -3.83301 34.5 -7.5s20.833 -9 29.5 -16s15.667 -15.667 21 -26s8 -22.833 8 -37.5c0 -30 -10.5 -54.667 -31.5 -74s-52.5 -29 -94.5 -29c-20.667 0 -42.334 3 -65.001 9
s-40.667 13.667 -54 23z" />
    <glyph glyph-name="egrave" unicode="&#xe8;" horiz-adv-x="530" 
d="M385 291c0 53.333 -9.66895 93.668 -29.002 121.001s-48 41 -86 41c-41.333 0 -70.666 -14.333 -87.999 -43s-27.666 -68.334 -30.999 -119.001h234zM459.998 21.002c-16 -9.33301 -39.1689 -18.166 -69.502 -26.499s-62.166 -12.5 -95.499 -12.5
c-46 0 -84.333 6.5 -115 19.5s-55.167 31.167 -73.5 54.5s-31.333 51.5 -39 84.5s-11.5 69.5 -11.5 109.5c0 36.667 4.33301 71.334 13 104.001s22 61.167 40 85.5s41 43.666 69 57.999s61.667 21.5 101 21.5c37.333 0 68.833 -7.66699 94.5 -23
s46.334 -35.166 62.001 -59.499s27 -52 34 -83s10.5 -61.833 10.5 -92.5l-33 -35h-297c2.66699 -58.667 15.667 -102.334 39 -131.001s59 -43 107 -43c25.333 0 49.333 2.66699 72 8s44 12.666 64 21.999zM169.996 745.002l73 51l116 -180l-46 -34z" />
    <glyph glyph-name="eacute" unicode="&#xe9;" horiz-adv-x="530" 
d="M385 291c0 53.333 -9.66895 93.668 -29.002 121.001s-48 41 -86 41c-41.333 0 -70.666 -14.333 -87.999 -43s-27.666 -68.334 -30.999 -119.001h234zM459.998 21.002c-16 -9.33301 -39.1689 -18.166 -69.502 -26.499s-62.166 -12.5 -95.499 -12.5
c-46 0 -84.333 6.5 -115 19.5s-55.167 31.167 -73.5 54.5s-31.333 51.5 -39 84.5s-11.5 69.5 -11.5 109.5c0 36.667 4.33301 71.334 13 104.001s22 61.167 40 85.5s41 43.666 69 57.999s61.667 21.5 101 21.5c37.333 0 68.833 -7.66699 94.5 -23
s46.334 -35.166 62.001 -59.499s27 -52 34 -83s10.5 -61.833 10.5 -92.5l-33 -35h-297c2.66699 -58.667 15.667 -102.334 39 -131.001s59 -43 107 -43c25.333 0 49.333 2.66699 72 8s44 12.666 64 21.999zM319.996 796.002l73 -51l-143 -163l-46 34z" />
    <glyph glyph-name="ecircumflex" unicode="&#xea;" horiz-adv-x="530" 
d="M385 291c0 53.333 -9.66895 93.668 -29.002 121.001s-48 41 -86 41c-41.333 0 -70.666 -14.333 -87.999 -43s-27.666 -68.334 -30.999 -119.001h234zM459.998 21.002c-16 -9.33301 -39.1689 -18.166 -69.502 -26.499s-62.166 -12.5 -95.499 -12.5
c-46 0 -84.333 6.5 -115 19.5s-55.167 31.167 -73.5 54.5s-31.333 51.5 -39 84.5s-11.5 69.5 -11.5 109.5c0 36.667 4.33301 71.334 13 104.001s22 61.167 40 85.5s41 43.666 69 57.999s61.667 21.5 101 21.5c37.333 0 68.833 -7.66699 94.5 -23
s46.334 -35.166 62.001 -59.499s27 -52 34 -83s10.5 -61.833 10.5 -92.5l-33 -35h-297c2.66699 -58.667 15.667 -102.334 39 -131.001s59 -43 107 -43c25.333 0 49.333 2.66699 72 8s44 12.666 64 21.999zM238.996 774.002h77l105 -168l-46 -31l-97 119l-100 -118l-47 32z
" />
    <glyph glyph-name="edieresis" unicode="&#xeb;" horiz-adv-x="530" 
d="M385 291c0 53.333 -9.66895 93.668 -29.002 121.001s-48 41 -86 41c-41.333 0 -70.666 -14.333 -87.999 -43s-27.666 -68.334 -30.999 -119.001h234zM459.998 21.002c-16 -9.33301 -39.1689 -18.166 -69.502 -26.499s-62.166 -12.5 -95.499 -12.5
c-46 0 -84.333 6.5 -115 19.5s-55.167 31.167 -73.5 54.5s-31.333 51.5 -39 84.5s-11.5 69.5 -11.5 109.5c0 36.667 4.33301 71.334 13 104.001s22 61.167 40 85.5s41 43.666 69 57.999s61.667 21.5 101 21.5c37.333 0 68.833 -7.66699 94.5 -23
s46.334 -35.166 62.001 -59.499s27 -52 34 -83s10.5 -61.833 10.5 -92.5l-33 -35h-297c2.66699 -58.667 15.667 -102.334 39 -131.001s59 -43 107 -43c25.333 0 49.333 2.66699 72 8s44 12.666 64 21.999zM165.996 605.002c-21.333 0 -37.166 6.33301 -47.499 19
s-15.5 27.667 -15.5 45c0 18 5.16699 33.333 15.5 46s26.166 19 47.499 19c20.667 0 36.167 -6.33301 46.5 -19s15.5 -28 15.5 -46c0 -17.333 -5.16699 -32.333 -15.5 -45s-25.833 -19 -46.5 -19zM391.996 605.002c-21.333 0 -37.166 6.33301 -47.499 19
s-15.5 27.667 -15.5 45c0 18 5.16699 33.333 15.5 46s26.166 19 47.499 19c20.667 0 36.167 -6.33301 46.5 -19s15.5 -28 15.5 -46c0 -17.333 -5.16699 -32.333 -15.5 -45s-25.833 -19 -46.5 -19z" />
    <glyph glyph-name="igrave" unicode="&#xec;" horiz-adv-x="258" 
d="M-4 745l73 51l116 -180l-46 -34zM85 435h-64v66h157v-501h-93v435z" />
    <glyph glyph-name="iacute" unicode="&#xed;" horiz-adv-x="258" 
d="M158 796l73 -51l-143 -163l-46 34zM85 435h-64v66h157v-501h-93v435z" />
    <glyph glyph-name="icircumflex" unicode="&#xee;" horiz-adv-x="258" 
d="M85 435h-64v66h157v-501h-93v435zM77 774h77l105 -168l-46 -31l-97 119l-100 -118l-47 32z" />
    <glyph glyph-name="idieresis" unicode="&#xef;" horiz-adv-x="258" 
d="M3 605c-21.333 0 -37.166 6.33301 -47.499 19s-15.5 27.667 -15.5 45c0 18 5.16699 33.333 15.5 46s26.166 19 47.499 19c20.667 0 36.167 -6.33301 46.5 -19s15.5 -28 15.5 -46c0 -17.333 -5.16699 -32.333 -15.5 -45s-25.833 -19 -46.5 -19zM229 605
c-21.333 0 -37.166 6.33301 -47.499 19s-15.5 27.667 -15.5 45c0 18 5.16699 33.333 15.5 46s26.166 19 47.499 19c20.667 0 36.167 -6.33301 46.5 -19s15.5 -28 15.5 -46c0 -17.333 -5.16699 -32.333 -15.5 -45s-25.833 -19 -46.5 -19zM85 435h-64v66h157v-501h-93v435z
" />
    <glyph glyph-name="eth" unicode="&#xf0;" horiz-adv-x="586" 
d="M198 573l75.001 55.002c-16 9.33301 -33 18 -51 26s-36 14.333 -54 19l27 65c21.333 -4.66699 44.5 -11.834 69.5 -21.501s48.5 -23.167 70.5 -40.5l94 69l38 -46l-81 -60c18 -17.333 35.167 -37.5 51.5 -60.5s30.833 -48.833 43.5 -77.5s22.667 -60 30 -94
s11 -70.333 11 -109c0 -46.667 -4.5 -89.334 -13.5 -128.001s-23 -72 -42 -100s-43 -49.667 -72 -65s-63.833 -23 -104.5 -23c-73.333 0 -129.166 22 -167.499 66s-57.5 105.333 -57.5 184c0 41.333 5.5 77.666 16.5 108.999s26 57.333 45 78s41.333 36.167 67 46.5
s53.5 15.5 83.5 15.5c29.333 0 56.166 -5.5 80.499 -16.5s43.5 -22.833 57.5 -35.5c-5.33301 28 -16.333 56.833 -33 86.5s-36.334 54.834 -59.001 75.501l-88 -65zM427.001 353.002c-5.33301 6 -12.502 12.498 -21.502 19.498s-19.5 13.667 -31.5 20s-25.5 11.5 -40.5 15.5
s-30.833 6 -47.5 6c-18 0 -34.667 -3.33301 -50 -10s-28.666 -17.167 -39.999 -31.5s-20.333 -32.666 -27 -54.999s-10 -48.833 -10 -79.5c0 -63.333 11.667 -110.833 35 -142.5s57.333 -47.5 102 -47.5c26.667 0 48.834 7.16699 66.501 21.5s31.5 32.5 41.5 54.5
s17 46.333 21 73s6 52.334 6 77.001c0 12.667 -0.333008 26.5 -1 41.5s-1.66699 27.5 -3 37.5z" />
    <glyph glyph-name="ntilde" unicode="&#xf1;" horiz-adv-x="580" 
d="M84 397l-38.9971 85.001l74 39l41 -66c30 22.667 58.333 39 85 49s55 15 85 15c33.333 0 61.166 -5.16699 83.499 -15.5s40.166 -24.333 53.499 -42s22.666 -38.334 27.999 -62.001s8 -48.5 8 -74.5v-325h-93v320c0 42 -8.5 72.333 -25.5 91s-42.5 28 -76.5 28
c-25.333 0 -49.5 -4.5 -72.5 -13.5s-42.5 -20.167 -58.5 -33.5v-392h-93v397zM116.003 600.001c0 40 6.50098 71.499 19.501 94.499s35.167 34.5 66.5 34.5c11.333 0 23.833 -1.66699 37.5 -5s27.167 -7.66602 40.5 -12.999l42 -16
c13.333 -5.33301 25.166 -9.83301 35.499 -13.5s19.5 -5.5 27.5 -5.5c12.667 0 22 3.83301 28 11.5s9 22.5 9 44.5h57c0 -86.667 -27.667 -130 -83 -130c-15.333 0 -29.666 2 -42.999 6s-27.666 8.66699 -42.999 14l-37 14c-12.667 5.33301 -24.834 9.83301 -36.501 13.5
s-21.834 5.5 -30.501 5.5c-12.667 0 -21.5 -3.66699 -26.5 -11s-7.5 -22 -7.5 -44h-56z" />
    <glyph glyph-name="ograve" unicode="&#xf2;" horiz-adv-x="567" 
d="M284 48c48 0 81.834 17.332 101.501 51.999s29.5 85 29.5 151c0 63.333 -9.83301 112.333 -29.5 147s-53.5 52 -101.5 52c-48.667 0 -82.834 -16.667 -102.501 -50s-29.5 -83.333 -29.5 -150c0 -31.333 2.33301 -59.5 7 -84.5s12.167 -46.167 22.5 -63.5
s24 -30.666 41 -39.999s37.5 -14 61.5 -14zM281.001 -18.001c-42.667 0 -78.334 6.66602 -107.001 19.999s-51.834 32 -69.501 56s-30.167 52.333 -37.5 85s-11 68.334 -11 107.001s4.66699 74.5 14 107.5s23.333 61.5 42 85.5s42.334 42.667 71.001 56
s62.334 20 101.001 20c40 0 74.333 -6.66699 103 -20s52.167 -31.833 70.5 -55.5s31.833 -52 40.5 -85s13 -68.833 13 -107.5c0 -39.333 -4.16699 -75.333 -12.5 -108s-21.833 -61 -40.5 -85s-42.5 -42.667 -71.5 -56s-64.167 -20 -105.5 -20zM172.001 744.998l73 51
l116 -180l-46 -34z" />
    <glyph glyph-name="oacute" unicode="&#xf3;" horiz-adv-x="567" 
d="M284 48c48 0 81.834 17.332 101.501 51.999s29.5 85 29.5 151c0 63.333 -9.83301 112.333 -29.5 147s-53.5 52 -101.5 52c-48.667 0 -82.834 -16.667 -102.501 -50s-29.5 -83.333 -29.5 -150c0 -31.333 2.33301 -59.5 7 -84.5s12.167 -46.167 22.5 -63.5
s24 -30.666 41 -39.999s37.5 -14 61.5 -14zM281.001 -18.001c-42.667 0 -78.334 6.66602 -107.001 19.999s-51.834 32 -69.501 56s-30.167 52.333 -37.5 85s-11 68.334 -11 107.001s4.66699 74.5 14 107.5s23.333 61.5 42 85.5s42.334 42.667 71.001 56
s62.334 20 101.001 20c40 0 74.333 -6.66699 103 -20s52.167 -31.833 70.5 -55.5s31.833 -52 40.5 -85s13 -68.833 13 -107.5c0 -39.333 -4.16699 -75.333 -12.5 -108s-21.833 -61 -40.5 -85s-42.5 -42.667 -71.5 -56s-64.167 -20 -105.5 -20zM341.001 795.998l73 -51
l-143 -163l-46 34z" />
    <glyph glyph-name="ocircumflex" unicode="&#xf4;" horiz-adv-x="567" 
d="M284 48c48 0 81.834 17.332 101.501 51.999s29.5 85 29.5 151c0 63.333 -9.83301 112.333 -29.5 147s-53.5 52 -101.5 52c-48.667 0 -82.834 -16.667 -102.501 -50s-29.5 -83.333 -29.5 -150c0 -31.333 2.33301 -59.5 7 -84.5s12.167 -46.167 22.5 -63.5
s24 -30.666 41 -39.999s37.5 -14 61.5 -14zM281.001 -18.001c-42.667 0 -78.334 6.66602 -107.001 19.999s-51.834 32 -69.501 56s-30.167 52.333 -37.5 85s-11 68.334 -11 107.001s4.66699 74.5 14 107.5s23.333 61.5 42 85.5s42.334 42.667 71.001 56
s62.334 20 101.001 20c40 0 74.333 -6.66699 103 -20s52.167 -31.833 70.5 -55.5s31.833 -52 40.5 -85s13 -68.833 13 -107.5c0 -39.333 -4.16699 -75.333 -12.5 -108s-21.833 -61 -40.5 -85s-42.5 -42.667 -71.5 -56s-64.167 -20 -105.5 -20zM251.001 773.998h77l105 -168
l-46 -31l-97 119l-100 -118l-47 32z" />
    <glyph glyph-name="otilde" unicode="&#xf5;" horiz-adv-x="567" 
d="M284 48c48 0 81.834 17.332 101.501 51.999s29.5 85 29.5 151c0 63.333 -9.83301 112.333 -29.5 147s-53.5 52 -101.5 52c-48.667 0 -82.834 -16.667 -102.501 -50s-29.5 -83.333 -29.5 -150c0 -31.333 2.33301 -59.5 7 -84.5s12.167 -46.167 22.5 -63.5
s24 -30.666 41 -39.999s37.5 -14 61.5 -14zM281.001 -18.001c-42.667 0 -78.334 6.66602 -107.001 19.999s-51.834 32 -69.501 56s-30.167 52.333 -37.5 85s-11 68.334 -11 107.001s4.66699 74.5 14 107.5s23.333 61.5 42 85.5s42.334 42.667 71.001 56
s62.334 20 101.001 20c40 0 74.333 -6.66699 103 -20s52.167 -31.833 70.5 -55.5s31.833 -52 40.5 -85s13 -68.833 13 -107.5c0 -39.333 -4.16699 -75.333 -12.5 -108s-21.833 -61 -40.5 -85s-42.5 -42.667 -71.5 -56s-64.167 -20 -105.5 -20zM104.001 599.998
c0 40 6.50098 71.499 19.501 94.499s35.167 34.5 66.5 34.5c11.333 0 23.833 -1.66699 37.5 -5s27.167 -7.66602 40.5 -12.999l42 -16c13.333 -5.33301 25.166 -9.83301 35.499 -13.5s19.5 -5.5 27.5 -5.5c12.667 0 22 3.83301 28 11.5s9 22.5 9 44.5h57
c0 -86.667 -27.667 -130 -83 -130c-15.333 0 -29.666 2 -42.999 6s-27.666 8.66699 -42.999 14l-37 14c-12.667 5.33301 -24.834 9.83301 -36.501 13.5s-21.834 5.5 -30.501 5.5c-12.667 0 -21.5 -3.66699 -26.5 -11s-7.5 -22 -7.5 -44h-56z" />
    <glyph glyph-name="odieresis" unicode="&#xf6;" horiz-adv-x="567" 
d="M284 48c48 0 81.834 17.332 101.501 51.999s29.5 85 29.5 151c0 63.333 -9.83301 112.333 -29.5 147s-53.5 52 -101.5 52c-48.667 0 -82.834 -16.667 -102.501 -50s-29.5 -83.333 -29.5 -150c0 -31.333 2.33301 -59.5 7 -84.5s12.167 -46.167 22.5 -63.5
s24 -30.666 41 -39.999s37.5 -14 61.5 -14zM281.001 -18.001c-42.667 0 -78.334 6.66602 -107.001 19.999s-51.834 32 -69.501 56s-30.167 52.333 -37.5 85s-11 68.334 -11 107.001s4.66699 74.5 14 107.5s23.333 61.5 42 85.5s42.334 42.667 71.001 56
s62.334 20 101.001 20c40 0 74.333 -6.66699 103 -20s52.167 -31.833 70.5 -55.5s31.833 -52 40.5 -85s13 -68.833 13 -107.5c0 -39.333 -4.16699 -75.333 -12.5 -108s-21.833 -61 -40.5 -85s-42.5 -42.667 -71.5 -56s-64.167 -20 -105.5 -20zM174.001 604.998
c-21.333 0 -37.166 6.33301 -47.499 19s-15.5 27.667 -15.5 45c0 18 5.16699 33.333 15.5 46s26.166 19 47.499 19c20.667 0 36.167 -6.33301 46.5 -19s15.5 -28 15.5 -46c0 -17.333 -5.16699 -32.333 -15.5 -45s-25.833 -19 -46.5 -19zM400.001 604.998
c-21.333 0 -37.166 6.33301 -47.499 19s-15.5 27.667 -15.5 45c0 18 5.16699 33.333 15.5 46s26.166 19 47.499 19c20.667 0 36.167 -6.33301 46.5 -19s15.5 -28 15.5 -46c0 -17.333 -5.16699 -32.333 -15.5 -45s-25.833 -19 -46.5 -19z" />
    <glyph glyph-name="divide" unicode="&#xf7;" horiz-adv-x="590" 
d="M71 380h447v-80h-447v80zM295 100c-22 0 -38 6.5 -48 19.5s-15 29.5 -15 49.5s5 36.5 15 49.5s26 19.5 48 19.5c21.333 0 37 -6.5 47 -19.5s15 -29.5 15 -49.5s-5 -36.5 -15 -49.5s-25.667 -19.5 -47 -19.5zM294 446c-22 0 -38 6.5 -48 19.5s-15 29.5 -15 49.5
s5 36.5 15 49.5s26 19.5 48 19.5c21.333 0 37 -6.5 47 -19.5s15 -29.5 15 -49.5s-5 -36.5 -15 -49.5s-25.667 -19.5 -47 -19.5z" />
    <glyph glyph-name="oslash" unicode="&#xf8;" horiz-adv-x="567" 
d="M124 35c-24.667 24 -42.168 54.333 -52.501 91s-15.5 78 -15.5 124c0 38.667 4.66699 74.5 14 107.5s23.333 61.5 42 85.5s42.334 42.667 71.001 56s62.334 20 101.001 20c36 0 68 -5.66699 96 -17l50 90h85l-73 -132c23.333 -24 40.666 -53.833 51.999 -89.5
s17 -75.5 17 -119.5c0 -39.333 -4.16699 -75.333 -12.5 -108s-21.833 -61 -40.5 -85s-42.5 -42.667 -71.5 -56s-64.167 -20 -105.5 -20c-36 0 -67 5 -93 15l-55 -101h-85zM343.999 436c-16.667 9.33301 -36.666 14 -59.999 14c-48.667 0 -82.834 -16.667 -102.501 -50
s-29.5 -83.333 -29.5 -150c0 -26 1.5 -49.667 4.5 -71s8.16699 -40.333 15.5 -57zM223 61c16.667 -8.66699 37 -13 61 -13c48 0 81.833 17.333 101.5 52s29.5 85 29.5 151c0 25.333 -1.5 48.5 -4.5 69.5s-7.83301 39.5 -14.5 55.5z" />
    <glyph glyph-name="ugrave" unicode="&#xf9;" horiz-adv-x="558" 
d="M70 501l93.0039 -0.00195312v-326c0 -39.333 7.5 -69.666 22.5 -90.999s40.167 -32 75.5 -32c29.333 0 53.166 4.66699 71.499 14s35.5 21 51.5 35v400h93v-406l41 -61l-67 -50l-46 56c-26.667 -20.667 -52.5 -35.5 -77.5 -44.5s-52.5 -13.5 -82.5 -13.5
c-36.667 0 -66.334 5.16699 -89.001 15.5s-40.334 24.333 -53.001 42s-21.334 38.334 -26.001 62.001s-7 48.5 -7 74.5v325zM181.004 744.998l73 51l116 -180l-46 -34z" />
    <glyph glyph-name="uacute" unicode="&#xfa;" horiz-adv-x="558" 
d="M70 501l93.0039 -0.00195312v-326c0 -39.333 7.5 -69.666 22.5 -90.999s40.167 -32 75.5 -32c29.333 0 53.166 4.66699 71.499 14s35.5 21 51.5 35v400h93v-406l41 -61l-67 -50l-46 56c-26.667 -20.667 -52.5 -35.5 -77.5 -44.5s-52.5 -13.5 -82.5 -13.5
c-36.667 0 -66.334 5.16699 -89.001 15.5s-40.334 24.333 -53.001 42s-21.334 38.334 -26.001 62.001s-7 48.5 -7 74.5v325zM336.004 795.998l73 -51l-143 -163l-46 34z" />
    <glyph glyph-name="ucircumflex" unicode="&#xfb;" horiz-adv-x="558" 
d="M70 501l93.0039 -0.00195312v-326c0 -39.333 7.5 -69.666 22.5 -90.999s40.167 -32 75.5 -32c29.333 0 53.166 4.66699 71.499 14s35.5 21 51.5 35v400h93v-406l41 -61l-67 -50l-46 56c-26.667 -20.667 -52.5 -35.5 -77.5 -44.5s-52.5 -13.5 -82.5 -13.5
c-36.667 0 -66.334 5.16699 -89.001 15.5s-40.334 24.333 -53.001 42s-21.334 38.334 -26.001 62.001s-7 48.5 -7 74.5v325zM239.004 773.998h77l105 -168l-46 -31l-97 119l-100 -118l-47 32z" />
    <glyph glyph-name="udieresis" unicode="&#xfc;" horiz-adv-x="558" 
d="M70 501l93.0039 -0.00195312v-326c0 -39.333 7.5 -69.666 22.5 -90.999s40.167 -32 75.5 -32c29.333 0 53.166 4.66699 71.499 14s35.5 21 51.5 35v400h93v-406l41 -61l-67 -50l-46 56c-26.667 -20.667 -52.5 -35.5 -77.5 -44.5s-52.5 -13.5 -82.5 -13.5
c-36.667 0 -66.334 5.16699 -89.001 15.5s-40.334 24.333 -53.001 42s-21.334 38.334 -26.001 62.001s-7 48.5 -7 74.5v325zM163.004 604.998c-21.333 0 -37.166 6.33301 -47.499 19s-15.5 27.667 -15.5 45c0 18 5.16699 33.333 15.5 46s26.166 19 47.499 19
c20.667 0 36.167 -6.33301 46.5 -19s15.5 -28 15.5 -46c0 -17.333 -5.16699 -32.333 -15.5 -45s-25.833 -19 -46.5 -19zM389.004 604.998c-21.333 0 -37.166 6.33301 -47.499 19s-15.5 27.667 -15.5 45c0 18 5.16699 33.333 15.5 46s26.166 19 47.499 19
c20.667 0 36.167 -6.33301 46.5 -19s15.5 -28 15.5 -46c0 -17.333 -5.16699 -32.333 -15.5 -45s-25.833 -19 -46.5 -19z" />
    <glyph glyph-name="yacute" unicode="&#xfd;" horiz-adv-x="496" 
d="M66 -138c10.667 -4 24.1719 -8.50098 40.5049 -13.501s35.166 -7.5 56.499 -7.5c25.333 0 45 7.5 59 22.5s24.667 37.5 32 67.5l21 82h-17c-21.333 0 -39.833 2.5 -55.5 7.5s-29.334 13.333 -41.001 25s-21.834 26.667 -30.501 45s-16.667 40.833 -24 67.5l-92 339l92 15
l92 -346c4.66699 -18.667 9.83398 -33.667 15.501 -45s11.667 -20.166 18 -26.499s13.166 -10.5 20.499 -12.5s15.333 -3 24 -3h14l108 433l83 -16l-150 -575c-13.333 -50 -33.5 -86.833 -60.5 -110.5s-63.5 -35.5 -109.5 -35.5c-12 0 -24 1 -36 3s-23.333 4.5 -34 7.5
s-20.334 6 -29.001 9s-15.334 5.83301 -20.001 8.5zM335.005 795.999l73 -51l-143 -163l-46 34z" />
    <glyph glyph-name="thorn" unicode="&#xfe;" horiz-adv-x="570" 
d="M175 63c11.333 -3.33301 25.8311 -6.66699 43.498 -10s34.834 -5 51.501 -5c50 0 87.167 17.667 111.5 53s36.5 85.333 36.5 150c0 62.667 -9.16699 111.667 -27.5 147s-49.166 53 -92.499 53c-23.333 0 -45 -5 -65 -15s-39.333 -23.333 -58 -40v-333zM81.998 734.999
h89.001v-267c14.667 12.667 33.5 24.334 56.5 35.001s50.833 16 83.5 16c64.667 0 114.667 -22.167 150 -66.5s53 -111.5 53 -201.5c0 -40 -5.33301 -76.5 -16 -109.5s-26.334 -61.333 -47.001 -85s-46.667 -42 -78 -55s-67.333 -19.5 -108 -19.5
c-14.667 0 -30.167 1.16699 -46.5 3.5s-30.833 5.16602 -43.5 8.49902v-212h-93v953z" />
    <glyph glyph-name="ydieresis" unicode="&#xff;" horiz-adv-x="496" 
d="M66 -138c10.667 -4 24.1719 -8.50098 40.5049 -13.501s35.166 -7.5 56.499 -7.5c25.333 0 45 7.5 59 22.5s24.667 37.5 32 67.5l21 82h-17c-21.333 0 -39.833 2.5 -55.5 7.5s-29.334 13.333 -41.001 25s-21.834 26.667 -30.501 45s-16.667 40.833 -24 67.5l-92 339l92 15
l92 -346c4.66699 -18.667 9.83398 -33.667 15.501 -45s11.667 -20.166 18 -26.499s13.166 -10.5 20.499 -12.5s15.333 -3 24 -3h14l108 433l83 -16l-150 -575c-13.333 -50 -33.5 -86.833 -60.5 -110.5s-63.5 -35.5 -109.5 -35.5c-12 0 -24 1 -36 3s-23.333 4.5 -34 7.5
s-20.334 6 -29.001 9s-15.334 5.83301 -20.001 8.5zM146.005 604.999c-21.333 0 -37.166 6.33301 -47.499 19s-15.5 27.667 -15.5 45c0 18 5.16699 33.333 15.5 46s26.166 19 47.499 19c20.667 0 36.167 -6.33301 46.5 -19s15.5 -28 15.5 -46
c0 -17.333 -5.16699 -32.333 -15.5 -45s-25.833 -19 -46.5 -19zM372.005 604.999c-21.333 0 -37.166 6.33301 -47.499 19s-15.5 27.667 -15.5 45c0 18 5.16699 33.333 15.5 46s26.166 19 47.499 19c20.667 0 36.167 -6.33301 46.5 -19s15.5 -28 15.5 -46
c0 -17.333 -5.16699 -32.333 -15.5 -45s-25.833 -19 -46.5 -19z" />
    <glyph glyph-name="Amacron" unicode="&#x100;" horiz-adv-x="646" 
d="M211 627c10.667 34 23.499 60.167 38.499 78.5s37.5 27.5 67.5 27.5c18 0 33 -1.33301 45 -4s22.333 -8 31 -16s16.334 -18.833 23.001 -32.5s13.667 -31.5 21 -53.5l196 -627l-96 -16l-79 248h-283l-76 -248l-81 17zM437.999 306l-95 313
c-4 13.333 -7.83301 22.5 -11.5 27.5s-8.5 7.5 -14.5 7.5c-7.33301 0 -12.5 -2.5 -15.5 -7.5s-6.5 -14.167 -10.5 -27.5l-95 -313h242zM165.999 863h313v-73h-313v73z" />
    <glyph glyph-name="amacron" unicode="&#x101;" horiz-adv-x="513" 
d="M363 41c-19.333 -15.333 -41.001 -28.9971 -65.001 -40.9971s-54.667 -18 -92 -18c-49.333 0 -89 13.167 -119 39.5s-45 67.166 -45 122.499c0 29.333 5.16699 54.166 15.5 74.499s24.833 37 43.5 50s41.167 22.5 67.5 28.5s55.5 9 87.5 9h86v25
c0 42 -6.5 72.167 -19.5 90.5s-37.833 27.5 -74.5 27.5c-48 0 -97 -10 -147 -30l-23 62c19.333 8 44 16.333 74 25s66 13 108 13c39.333 0 70.333 -5.33301 93 -16s39.834 -25.334 51.501 -44.001s19.167 -40.667 22.5 -66s5 -52.333 5 -81v-215l43 -64l-65 -49z
M341.999 244.003l-79.999 0.000976562c-46 0 -78.667 -7 -98 -21s-29 -39 -29 -75c0 -32.667 7.16699 -56.834 21.5 -72.501s35.166 -23.5 62.499 -23.5c29.333 0 54.5 5.33301 75.5 16s36.833 21.667 47.5 33v143zM92 690.004h313v-75h-313v75z" />
    <glyph glyph-name="Abreve" unicode="&#x102;" horiz-adv-x="646" 
d="M211 627c10.667 34 23.499 60.167 38.499 78.5s37.5 27.5 67.5 27.5c18 0 33 -1.33301 45 -4s22.333 -8 31 -16s16.334 -18.833 23.001 -32.5s13.667 -31.5 21 -53.5l196 -627l-96 -16l-79 248h-283l-76 -248l-81 17zM437.999 306l-95 313
c-4 13.333 -7.83301 22.5 -11.5 27.5s-8.5 7.5 -14.5 7.5c-7.33301 0 -12.5 -2.5 -15.5 -7.5s-6.5 -14.167 -10.5 -27.5l-95 -313h242zM234.999 909c7.33301 -18 17.499 -32.5 30.499 -43.5s33.167 -16.5 60.5 -16.5c24.667 0 43.834 5 57.501 15s24.5 25 32.5 45l58 -18
c-9.33301 -38 -27.333 -66.167 -54 -84.5s-58 -27.5 -94 -27.5s-67.833 8.83301 -95.5 26.5s-45.167 45.5 -52.5 83.5z" />
    <glyph glyph-name="abreve" unicode="&#x103;" horiz-adv-x="513" 
d="M363 41c-19.333 -15.333 -41.001 -28.9971 -65.001 -40.9971s-54.667 -18 -92 -18c-49.333 0 -89 13.167 -119 39.5s-45 67.166 -45 122.499c0 29.333 5.16699 54.166 15.5 74.499s24.833 37 43.5 50s41.167 22.5 67.5 28.5s55.5 9 87.5 9h86v25
c0 42 -6.5 72.167 -19.5 90.5s-37.833 27.5 -74.5 27.5c-48 0 -97 -10 -147 -30l-23 62c19.333 8 44 16.333 74 25s66 13 108 13c39.333 0 70.333 -5.33301 93 -16s39.834 -25.334 51.501 -44.001s19.167 -40.667 22.5 -66s5 -52.333 5 -81v-215l43 -64l-65 -49z
M341.999 244.003l-79.999 0.000976562c-46 0 -78.667 -7 -98 -21s-29 -39 -29 -75c0 -32.667 7.16699 -56.834 21.5 -72.501s35.166 -23.5 62.499 -23.5c29.333 0 54.5 5.33301 75.5 16s36.833 21.667 47.5 33v143zM161 721.004c7.33301 -18 17.499 -32.5 30.499 -43.5
s33.167 -16.5 60.5 -16.5c24.667 0 43.834 5 57.501 15s24.5 25 32.5 45l58 -18c-9.33301 -38 -27.333 -66.167 -54 -84.5s-58 -27.5 -94 -27.5s-67.833 8.83301 -95.5 26.5s-45.167 45.5 -52.5 83.5z" />
    <glyph glyph-name="Aogonek" unicode="&#x104;" horiz-adv-x="646" 
d="M211 627c10.667 34 23.499 60.168 38.499 78.501s37.5 27.5 67.5 27.5c18 0 33 -1.33301 45 -4s22.333 -8 31 -16s16.334 -18.833 23.001 -32.5s13.667 -31.5 21 -53.5l196 -627c-9.33301 -9.33301 -18.5 -19.666 -27.5 -30.999s-18.167 -24 -27.5 -38
c-4.66699 -6.66699 -9.66699 -14.334 -15 -23.001s-8 -18.667 -8 -30c0 -6.66699 1.16699 -12.667 3.5 -18s6.66602 -10.333 12.999 -15s15.5 -9 27.5 -13s28 -8 48 -12l-17 -50c-31.333 4 -57.5 8.83301 -78.5 14.5s-38 12.5 -51 20.5s-22.167 17.167 -27.5 27.5
s-8 22.166 -8 35.499c0 10 1.66699 19.5 5 28.5s8 18.167 14 27.5c16.667 25.333 33.334 48.333 50.001 69l-76 239h-283l-76 -248l-81 17zM437.999 306.001l-95 313c-4 13.333 -7.83301 22.5 -11.5 27.5s-8.5 7.5 -14.5 7.5c-7.33301 0 -12.5 -2.5 -15.5 -7.5
s-6.5 -14.167 -10.5 -27.5l-95 -313h242z" />
    <glyph glyph-name="aogonek" unicode="&#x105;" horiz-adv-x="513" 
d="M477 -230c-31.333 4 -57.501 8.83789 -78.501 14.5049s-38 12.5 -51 20.5s-22.167 17.167 -27.5 27.5s-8 22.166 -8 35.499c0 10 1.66699 19.5 5 28.5s8 18.167 14 27.5l30.5 43c9.66699 13.333 19.834 26 30.501 38l-29 36c-19.333 -15.333 -41 -29 -65 -41
s-54.667 -18 -92 -18c-49.333 0 -89 13.167 -119 39.5s-45 67.166 -45 122.499c0 29.333 5.16699 54.166 15.5 74.499s24.833 37 43.5 50s41.167 22.5 67.5 28.5s55.5 9 87.5 9h86v25c0 42 -6.5 72.167 -19.5 90.5s-37.833 27.5 -74.5 27.5c-48 0 -97 -10 -147 -30l-23 62
c19.333 8 44 16.333 74 25s66 13 108 13c39.333 0 70.333 -5.33301 93 -16s39.834 -25.334 51.501 -44.001s19.167 -40.667 22.5 -66s5 -52.333 5 -81v-215l58 -82l-30 -37.5l-35 -46.5c-4.66699 -6.66699 -9.66699 -14.334 -15 -23.001s-8 -18.667 -8 -30
c0 -6.66699 1.16699 -12.667 3.5 -18s6.66602 -10.333 12.999 -15s15.5 -9 27.5 -13s28 -8 48 -12zM341.999 244.005l-79.999 0.000976562c-46 0 -78.667 -7 -98 -21s-29 -39 -29 -75c0 -32.667 7.16699 -56.834 21.5 -72.501s35.166 -23.5 62.499 -23.5
c29.333 0 54.5 5.33301 75.5 16s36.833 21.667 47.5 33v143z" />
    <glyph glyph-name="Cacute" unicode="&#x106;" horiz-adv-x="593" 
d="M577 43c-21.333 -16 -50.499 -30.1699 -87.499 -42.5029s-77.5 -18.5 -121.5 -18.5c-57.333 0 -105.5 9.16699 -144.5 27.5s-70.667 44.166 -95 77.499s-41.833 73 -52.5 119s-16 97 -16 153c0 54 6.16699 104 18.5 150s31.166 85.833 56.499 119.5s57.5 60 96.5 79
s85.167 28.5 138.5 28.5c40.667 0 77.5 -5.33301 110.5 -16s60.167 -22.667 81.5 -36l-34 -65c-22 13.333 -45.833 23.833 -71.5 31.5s-53.5 11.5 -83.5 11.5c-28 0 -54.5 -4.33301 -79.5 -13s-47 -24.167 -66 -46.5s-34.167 -53.166 -45.5 -92.499
s-17 -89.666 -17 -150.999c0 -99.333 16.5 -174.166 49.5 -224.499s85.5 -75.5 157.5 -75.5c17.333 0 33 0.833008 47 2.5s27.5 4.33398 40.5 8.00098s26 8.5 39 14.5s26.833 13.333 41.5 22zM434.001 961.997l67 -60l-166 -139l-40 36z" />
    <glyph glyph-name="cacute" unicode="&#x107;" horiz-adv-x="473" 
d="M452 22c-18 -10 -40.5 -19.165 -67.5 -27.498s-58.167 -12.5 -93.5 -12.5c-45.333 0 -83 6.5 -113 19.5s-54 31 -72 54s-30.833 50.667 -38.5 83s-11.5 68.166 -11.5 107.499c0 38.667 4.66699 74.667 14 108s23.833 62.333 43.5 87s44.667 43.834 75 57.501
s66.833 20.5 109.5 20.5c30.667 0 58.834 -4 84.501 -12s47.5 -17.333 65.5 -28l-28 -62c-18 9.33301 -37 17.166 -57 23.499s-42.667 9.5 -68 9.5c-49.333 0 -85.5 -16.833 -108.5 -50.5s-34.5 -84.834 -34.5 -153.501c0 -30 2.5 -56.833 7.5 -80.5s13.167 -44 24.5 -61
s26.333 -30 45 -39s41.667 -13.5 69 -13.5c22 0 42.167 2 60.5 6s40.166 12 65.499 24zM347 796.002l73 -51l-143 -163l-46 34z" />
    <glyph glyph-name="Ccircumflex" unicode="&#x108;" horiz-adv-x="593" 
d="M577 43c-21.333 -16 -50.499 -30.1699 -87.499 -42.5029s-77.5 -18.5 -121.5 -18.5c-57.333 0 -105.5 9.16699 -144.5 27.5s-70.667 44.166 -95 77.499s-41.833 73 -52.5 119s-16 97 -16 153c0 54 6.16699 104 18.5 150s31.166 85.833 56.499 119.5s57.5 60 96.5 79
s85.167 28.5 138.5 28.5c40.667 0 77.5 -5.33301 110.5 -16s60.167 -22.667 81.5 -36l-34 -65c-22 13.333 -45.833 23.833 -71.5 31.5s-53.5 11.5 -83.5 11.5c-28 0 -54.5 -4.33301 -79.5 -13s-47 -24.167 -66 -46.5s-34.167 -53.166 -45.5 -92.499
s-17 -89.666 -17 -150.999c0 -99.333 16.5 -174.166 49.5 -224.499s85.5 -75.5 157.5 -75.5c17.333 0 33 0.833008 47 2.5s27.5 4.33398 40.5 8.00098s26 8.5 39 14.5s26.833 13.333 41.5 22zM327.001 923.997h77l97 -124l-40 -35l-96 83l-98 -83l-42 34z" />
    <glyph glyph-name="ccircumflex" unicode="&#x109;" horiz-adv-x="473" 
d="M452 22c-18 -10 -40.5 -19.165 -67.5 -27.498s-58.167 -12.5 -93.5 -12.5c-45.333 0 -83 6.5 -113 19.5s-54 31 -72 54s-30.833 50.667 -38.5 83s-11.5 68.166 -11.5 107.499c0 38.667 4.66699 74.667 14 108s23.833 62.333 43.5 87s44.667 43.834 75 57.501
s66.833 20.5 109.5 20.5c30.667 0 58.834 -4 84.501 -12s47.5 -17.333 65.5 -28l-28 -62c-18 9.33301 -37 17.166 -57 23.499s-42.667 9.5 -68 9.5c-49.333 0 -85.5 -16.833 -108.5 -50.5s-34.5 -84.834 -34.5 -153.501c0 -30 2.5 -56.833 7.5 -80.5s13.167 -44 24.5 -61
s26.333 -30 45 -39s41.667 -13.5 69 -13.5c22 0 42.167 2 60.5 6s40.166 12 65.499 24zM250 774.002h77l105 -168l-46 -31l-97 119l-100 -118l-47 32z" />
    <glyph glyph-name="Cdotaccent" unicode="&#x10a;" horiz-adv-x="593" 
d="M577 43c-21.333 -16 -50.499 -30.1699 -87.499 -42.5029s-77.5 -18.5 -121.5 -18.5c-57.333 0 -105.5 9.16699 -144.5 27.5s-70.667 44.166 -95 77.499s-41.833 73 -52.5 119s-16 97 -16 153c0 54 6.16699 104 18.5 150s31.166 85.833 56.499 119.5s57.5 60 96.5 79
s85.167 28.5 138.5 28.5c40.667 0 77.5 -5.33301 110.5 -16s60.167 -22.667 81.5 -36l-34 -65c-22 13.333 -45.833 23.833 -71.5 31.5s-53.5 11.5 -83.5 11.5c-28 0 -54.5 -4.33301 -79.5 -13s-47 -24.167 -66 -46.5s-34.167 -53.166 -45.5 -92.499
s-17 -89.666 -17 -150.999c0 -99.333 16.5 -174.166 49.5 -224.499s85.5 -75.5 157.5 -75.5c17.333 0 33 0.833008 47 2.5s27.5 4.33398 40.5 8.00098s26 8.5 39 14.5s26.833 13.333 41.5 22zM369.001 777.997c-19.333 0 -34.5 6.33301 -45.5 19s-16.5 28.667 -16.5 48
s5.5 35.5 16.5 48.5s26.167 19.5 45.5 19.5c20 0 35.5 -6.5 46.5 -19.5s16.5 -29.167 16.5 -48.5s-5.5 -35.333 -16.5 -48s-26.5 -19 -46.5 -19z" />
    <glyph glyph-name="cdotaccent" unicode="&#x10b;" horiz-adv-x="473" 
d="M452 22c-18 -10 -40.5 -19.165 -67.5 -27.498s-58.167 -12.5 -93.5 -12.5c-45.333 0 -83 6.5 -113 19.5s-54 31 -72 54s-30.833 50.667 -38.5 83s-11.5 68.166 -11.5 107.499c0 38.667 4.66699 74.667 14 108s23.833 62.333 43.5 87s44.667 43.834 75 57.501
s66.833 20.5 109.5 20.5c30.667 0 58.834 -4 84.501 -12s47.5 -17.333 65.5 -28l-28 -62c-18 9.33301 -37 17.166 -57 23.499s-42.667 9.5 -68 9.5c-49.333 0 -85.5 -16.833 -108.5 -50.5s-34.5 -84.834 -34.5 -153.501c0 -30 2.5 -56.833 7.5 -80.5s13.167 -44 24.5 -61
s26.333 -30 45 -39s41.667 -13.5 69 -13.5c22 0 42.167 2 60.5 6s40.166 12 65.499 24zM286 594.002c-19.333 0 -34.5 6.33301 -45.5 19s-16.5 28.667 -16.5 48s5.5 35.5 16.5 48.5s26.167 19.5 45.5 19.5c20 0 35.5 -6.5 46.5 -19.5s16.5 -29.167 16.5 -48.5
s-5.5 -35.333 -16.5 -48s-26.5 -19 -46.5 -19z" />
    <glyph glyph-name="Ccaron" unicode="&#x10c;" horiz-adv-x="593" 
d="M577 43c-21.333 -16 -50.499 -30.1699 -87.499 -42.5029s-77.5 -18.5 -121.5 -18.5c-57.333 0 -105.5 9.16699 -144.5 27.5s-70.667 44.166 -95 77.499s-41.833 73 -52.5 119s-16 97 -16 153c0 54 6.16699 104 18.5 150s31.166 85.833 56.499 119.5s57.5 60 96.5 79
s85.167 28.5 138.5 28.5c40.667 0 77.5 -5.33301 110.5 -16s60.167 -22.667 81.5 -36l-34 -65c-22 13.333 -45.833 23.833 -71.5 31.5s-53.5 11.5 -83.5 11.5c-28 0 -54.5 -4.33301 -79.5 -13s-47 -24.167 -66 -46.5s-34.167 -53.166 -45.5 -92.499
s-17 -89.666 -17 -150.999c0 -99.333 16.5 -174.166 49.5 -224.499s85.5 -75.5 157.5 -75.5c17.333 0 33 0.833008 47 2.5s27.5 4.33398 40.5 8.00098s26 8.5 39 14.5s26.833 13.333 41.5 22zM232.001 888.997l42 35l96 -83l98 83l40 -34l-102 -125h-77z" />
    <glyph glyph-name="ccaron" unicode="&#x10d;" horiz-adv-x="473" 
d="M452 22c-18 -10 -40.5 -19.165 -67.5 -27.498s-58.167 -12.5 -93.5 -12.5c-45.333 0 -83 6.5 -113 19.5s-54 31 -72 54s-30.833 50.667 -38.5 83s-11.5 68.166 -11.5 107.499c0 38.667 4.66699 74.667 14 108s23.833 62.333 43.5 87s44.667 43.834 75 57.501
s66.833 20.5 109.5 20.5c30.667 0 58.834 -4 84.501 -12s47.5 -17.333 65.5 -28l-28 -62c-18 9.33301 -37 17.166 -57 23.499s-42.667 9.5 -68 9.5c-49.333 0 -85.5 -16.833 -108.5 -50.5s-34.5 -84.834 -34.5 -153.501c0 -30 2.5 -56.833 7.5 -80.5s13.167 -44 24.5 -61
s26.333 -30 45 -39s41.667 -13.5 69 -13.5c22 0 42.167 2 60.5 6s40.166 12 65.499 24zM143 747.002l47 32l100 -118l97 119l46 -31l-105 -168h-77z" />
    <glyph glyph-name="Dcaron" unicode="&#x10e;" horiz-adv-x="699" 
d="M86 721l228.002 0.000976562c56 0 104.333 -8.33301 145 -25s74.167 -40.5 100.5 -71.5s45.833 -68.833 58.5 -113.5s19 -95.334 19 -152.001c0 -55.333 -6.5 -105 -19.5 -149s-32.833 -81.667 -59.5 -113s-60.334 -55.333 -101.001 -72s-88.334 -25 -143.001 -25h-228
v721zM318.002 75.001c42 0 76.833 7 104.5 21s49.667 33.667 66 59s27.833 55.5 34.5 90.5s10 73.167 10 114.5c0 40 -3.5 77.5 -10.5 112.5s-18.667 65.5 -35 91.5s-38.333 46.5 -66 61.5s-62.167 22.5 -103.5 22.5h-134v-573h134zM161.002 889.001l42 35l96 -83l98 83
l40 -34l-102 -125h-77z" />
    <glyph glyph-name="dcaron" unicode="&#x10f;" horiz-adv-x="640" 
d="M392 439c-9.33301 3.33301 -22.5 6.5 -39.5 9.5s-35.167 4.5 -54.5 4.5c-50 0 -86.833 -17.333 -110.5 -52s-35.5 -85 -35.5 -151c0 -62.667 9.66699 -111.667 29 -147s51.333 -53 96 -53c28 0 50.667 4.66699 68 14s33 20.333 47 33v342zM417 38
c-19.333 -15.333 -41.3291 -28.5 -65.9961 -39.5s-54 -16.5 -88 -16.5c-68.667 0 -120.334 22.167 -155.001 66.5s-52 111.5 -52 201.5c0 40 5.16699 76.5 15.5 109.5s25.666 61.333 45.999 85s45.833 42 76.5 55s66 19.5 106 19.5c17.333 0 33.666 -1.33301 48.999 -4
s29.666 -5.66699 42.999 -9v230h93v-639l43 -64l-65 -49zM559.004 736h88l-34 -229h-54v229z" />
    <glyph glyph-name="Dcroat" unicode="&#x110;" horiz-adv-x="703" 
d="M90 329l-70.998 0.000976562v71h71v321h228c56 0 104.333 -8.33301 145 -25s74.167 -40.5 100.5 -71.5s45.833 -68.833 58.5 -113.5s19 -95.334 19 -152.001c0 -55.333 -6.5 -105 -19.5 -149s-32.833 -81.667 -59.5 -113s-60.334 -55.333 -101.001 -72
s-88.334 -25 -143.001 -25h-228v329zM322.002 75.001c42 0 76.833 7 104.5 21s49.667 33.667 66 59s27.833 55.5 34.5 90.5s10 73.167 10 114.5c0 40 -3.5 77.5 -10.5 112.5s-18.667 65.5 -35 91.5s-38.333 46.5 -66 61.5s-62.167 22.5 -103.5 22.5h-134v-248h204v-71h-204
v-254h134z" />
    <glyph glyph-name="dcroat" unicode="&#x111;" horiz-adv-x="569" 
d="M417 38c-19.333 -15.333 -41.3301 -28.502 -65.9971 -39.502s-54 -16.5 -88 -16.5c-68.667 0 -120.334 21.167 -155.001 63.5s-52 107.166 -52 194.499c0 38.667 5.33301 73.834 16 105.501s26.334 58.834 47.001 81.501s46.167 40.334 76.5 53.001s65.166 19 104.499 19
c17.333 0 33.666 -1.33301 48.999 -4s29.666 -5.66699 42.999 -9v94h-161v69h161v87h93v-87h69v-69h-69v-483l43 -64l-65 -49zM392.003 418.998c-9.33301 3.33301 -22.5 6.5 -39.5 9.5s-35.167 4.5 -54.5 4.5c-50 0 -86.833 -16.667 -110.5 -50s-35.5 -81 -35.5 -143
c0 -60.667 9.66699 -107.5 29 -140.5s51.333 -49.5 96 -49.5c28 0 50.667 4.66699 68 14s33 20.333 47 33v322z" />
    <glyph glyph-name="Emacron" unicode="&#x112;" horiz-adv-x="577" 
d="M85 721h440v-76h-342v-231h258v-76h-258v-262h354v-76h-452v721zM149 863h313v-73h-313v73z" />
    <glyph glyph-name="emacron" unicode="&#x113;" horiz-adv-x="530" 
d="M385 291c0 53.333 -9.66895 93.668 -29.002 121.001s-48 41 -86 41c-41.333 0 -70.666 -14.333 -87.999 -43s-27.666 -68.334 -30.999 -119.001h234zM459.998 21.002c-16 -9.33301 -39.1689 -18.166 -69.502 -26.499s-62.166 -12.5 -95.499 -12.5
c-46 0 -84.333 6.5 -115 19.5s-55.167 31.167 -73.5 54.5s-31.333 51.5 -39 84.5s-11.5 69.5 -11.5 109.5c0 36.667 4.33301 71.334 13 104.001s22 61.167 40 85.5s41 43.666 69 57.999s61.667 21.5 101 21.5c37.333 0 68.833 -7.66699 94.5 -23
s46.334 -35.166 62.001 -59.499s27 -52 34 -83s10.5 -61.833 10.5 -92.5l-33 -35h-297c2.66699 -58.667 15.667 -102.334 39 -131.001s59 -43 107 -43c25.333 0 49.333 2.66699 72 8s44 12.666 64 21.999zM127.996 690.002h313v-75h-313v75z" />
    <glyph glyph-name="Ebreve" unicode="&#x114;" horiz-adv-x="577" 
d="M85 721h440v-76h-342v-231h258v-76h-258v-262h354v-76h-452v721zM222 909c7.33301 -18 17.499 -32.5 30.499 -43.5s33.167 -16.5 60.5 -16.5c24.667 0 43.834 5 57.501 15s24.5 25 32.5 45l58 -18c-9.33301 -38 -27.333 -66.167 -54 -84.5s-58 -27.5 -94 -27.5
s-67.833 8.83301 -95.5 26.5s-45.167 45.5 -52.5 83.5z" />
    <glyph glyph-name="ebreve" unicode="&#x115;" horiz-adv-x="530" 
d="M385 291c0 53.333 -9.66895 93.668 -29.002 121.001s-48 41 -86 41c-41.333 0 -70.666 -14.333 -87.999 -43s-27.666 -68.334 -30.999 -119.001h234zM459.998 21.002c-16 -9.33301 -39.1689 -18.166 -69.502 -26.499s-62.166 -12.5 -95.499 -12.5
c-46 0 -84.333 6.5 -115 19.5s-55.167 31.167 -73.5 54.5s-31.333 51.5 -39 84.5s-11.5 69.5 -11.5 109.5c0 36.667 4.33301 71.334 13 104.001s22 61.167 40 85.5s41 43.666 69 57.999s61.667 21.5 101 21.5c37.333 0 68.833 -7.66699 94.5 -23
s46.334 -35.166 62.001 -59.499s27 -52 34 -83s10.5 -61.833 10.5 -92.5l-33 -35h-297c2.66699 -58.667 15.667 -102.334 39 -131.001s59 -43 107 -43c25.333 0 49.333 2.66699 72 8s44 12.666 64 21.999zM184.996 721.002c7.33301 -18 17.499 -32.5 30.499 -43.5
s33.167 -16.5 60.5 -16.5c24.667 0 43.834 5 57.501 15s24.5 25 32.5 45l58 -18c-9.33301 -38 -27.333 -66.167 -54 -84.5s-58 -27.5 -94 -27.5s-67.833 8.83301 -95.5 26.5s-45.167 45.5 -52.5 83.5z" />
    <glyph glyph-name="Edotaccent" unicode="&#x116;" horiz-adv-x="577" 
d="M85 721h440v-76h-342v-231h258v-76h-258v-262h354v-76h-452v721zM313 778c-19.333 0 -34.5 6.33301 -45.5 19s-16.5 28.667 -16.5 48s5.5 35.5 16.5 48.5s26.167 19.5 45.5 19.5c20 0 35.5 -6.5 46.5 -19.5s16.5 -29.167 16.5 -48.5s-5.5 -35.333 -16.5 -48
s-26.5 -19 -46.5 -19z" />
    <glyph glyph-name="edotaccent" unicode="&#x117;" horiz-adv-x="530" 
d="M385 291c0 53.333 -9.66895 93.668 -29.002 121.001s-48 41 -86 41c-41.333 0 -70.666 -14.333 -87.999 -43s-27.666 -68.334 -30.999 -119.001h234zM459.998 21.002c-16 -9.33301 -39.1689 -18.166 -69.502 -26.499s-62.166 -12.5 -95.499 -12.5
c-46 0 -84.333 6.5 -115 19.5s-55.167 31.167 -73.5 54.5s-31.333 51.5 -39 84.5s-11.5 69.5 -11.5 109.5c0 36.667 4.33301 71.334 13 104.001s22 61.167 40 85.5s41 43.666 69 57.999s61.667 21.5 101 21.5c37.333 0 68.833 -7.66699 94.5 -23
s46.334 -35.166 62.001 -59.499s27 -52 34 -83s10.5 -61.833 10.5 -92.5l-33 -35h-297c2.66699 -58.667 15.667 -102.334 39 -131.001s59 -43 107 -43c25.333 0 49.333 2.66699 72 8s44 12.666 64 21.999zM276.996 594.002c-19.333 0 -34.5 6.33301 -45.5 19
s-16.5 28.667 -16.5 48s5.5 35.5 16.5 48.5s26.167 19.5 45.5 19.5c20 0 35.5 -6.5 46.5 -19.5s16.5 -29.167 16.5 -48.5s-5.5 -35.333 -16.5 -48s-26.5 -19 -46.5 -19z" />
    <glyph glyph-name="Eogonek" unicode="&#x118;" horiz-adv-x="577" 
d="M85 721l440.002 0.00195312v-76h-342v-231h258v-76h-258v-262h354v-76h-53l-24.5 -31c-9 -11.333 -18.167 -24 -27.5 -38c-4.66699 -6.66699 -9.66699 -14.334 -15 -23.001s-8 -18.667 -8 -30c0 -6.66699 1.16699 -12.667 3.5 -18s6.66602 -10.333 12.999 -15
s15.5 -9 27.5 -13s28 -8 48 -12l-17 -50c-31.333 4 -57.5 8.83301 -78.5 14.5s-38 12.5 -51 20.5s-22.167 17.167 -27.5 27.5s-8 22.166 -8 35.499c0 10 1.66699 19.5 5 28.5s8 18.167 14 27.5c9.33301 14.667 18.666 28.167 27.999 40.5l28 35.5h-309v721z" />
    <glyph glyph-name="eogonek" unicode="&#x119;" horiz-adv-x="530" 
d="M437 -230c-31.333 4 -57.5 8.83594 -78.5 14.5029s-38 12.5 -51 20.5s-22.167 17.167 -27.5 27.5s-8 22.166 -8 35.499c0 10 1.66699 19.5 5 28.5s8 18.167 14 27.5c7.33301 11.333 15 21.833 23 31.5l23 28.5c-6.66699 -0.666992 -13.667 -1.16699 -21 -1.5
s-14.333 -0.5 -21 -0.5c-46 0 -84.333 6.5 -115 19.5s-55.167 31.167 -73.5 54.5s-31.333 51.5 -39 84.5s-11.5 69.5 -11.5 109.5c0 36.667 4.33301 71.334 13 104.001s22 61.167 40 85.5s41 43.666 69 57.999s61.667 21.5 101 21.5c37.333 0 68.833 -7.66699 94.5 -23
s46.334 -35.166 62.001 -59.499s27 -52 34 -83s10.5 -61.833 10.5 -92.5l-33 -35h-297c2.66699 -58.667 15.667 -102.334 39 -131.001s59 -43 107 -43c25.333 0 49.333 2.66699 72 8s44 12.666 64 21.999l28 -61c-14.667 -14.667 -27.667 -29 -39 -43
s-23.333 -29.667 -36 -47c-4.66699 -6.66699 -9.66699 -14.334 -15 -23.001s-8 -18.667 -8 -30c0 -6.66699 1.16699 -12.667 3.5 -18s6.66602 -10.333 12.999 -15s15.5 -9 27.5 -13s28 -8 48 -12zM385 291.003c0 53.333 -9.66895 93.668 -29.002 121.001s-48 41 -86 41
c-41.333 0 -70.666 -14.333 -87.999 -43s-27.666 -68.334 -30.999 -119.001h234z" />
    <glyph glyph-name="Ecaron" unicode="&#x11a;" horiz-adv-x="577" 
d="M85 721h440v-76h-342v-231h258v-76h-258v-262h354v-76h-452v721zM179 889l42 35l96 -83l98 83l40 -34l-102 -125h-77z" />
    <glyph glyph-name="ecaron" unicode="&#x11b;" horiz-adv-x="530" 
d="M385 291c0 53.333 -9.66895 93.668 -29.002 121.001s-48 41 -86 41c-41.333 0 -70.666 -14.333 -87.999 -43s-27.666 -68.334 -30.999 -119.001h234zM459.998 21.002c-16 -9.33301 -39.1689 -18.166 -69.502 -26.499s-62.166 -12.5 -95.499 -12.5
c-46 0 -84.333 6.5 -115 19.5s-55.167 31.167 -73.5 54.5s-31.333 51.5 -39 84.5s-11.5 69.5 -11.5 109.5c0 36.667 4.33301 71.334 13 104.001s22 61.167 40 85.5s41 43.666 69 57.999s61.667 21.5 101 21.5c37.333 0 68.833 -7.66699 94.5 -23
s46.334 -35.166 62.001 -59.499s27 -52 34 -83s10.5 -61.833 10.5 -92.5l-33 -35h-297c2.66699 -58.667 15.667 -102.334 39 -131.001s59 -43 107 -43c25.333 0 49.333 2.66699 72 8s44 12.666 64 21.999zM126.996 747.002l47 32l100 -118l97 119l46 -31l-105 -168h-77z" />
    <glyph glyph-name="Gcircumflex" unicode="&#x11c;" horiz-adv-x="670" 
d="M512 300l-147 -0.00195312v76h240v-324c-19.333 -12 -38.166 -22.333 -56.499 -31s-37 -16 -56 -22s-38.833 -10.333 -59.5 -13s-42.667 -4 -66 -4c-58 0 -106.833 9.16699 -146.5 27.5s-71.667 44.166 -96 77.499s-41.666 73 -51.999 119s-15.5 97 -15.5 153
c0 54 6 104 18 150s30.833 85.833 56.5 119.5s58.667 60 99 79s89.166 28.5 146.499 28.5c39.333 0 76 -5.83301 110 -17.5s61.667 -24.167 83 -37.5l-35 -65c-22.667 14 -46.834 25.167 -72.501 33.5s-54.167 12.5 -85.5 12.5c-28 0 -55 -4.33301 -81 -13
s-48.833 -24.167 -68.5 -46.5s-35.5 -53.166 -47.5 -92.499s-18 -89.666 -18 -150.999c0 -99.333 16.5 -174.166 49.5 -224.499s85.833 -75.5 158.5 -75.5c52.667 0 100 11.333 142 34v207zM328 923.998h77l97 -124l-40 -35l-96 83l-98 -83l-42 34z" />
    <glyph glyph-name="gcircumflex" unicode="&#x11d;" horiz-adv-x="564" 
d="M389 399c-10.667 11.333 -24.667 22.833 -42 34.5s-41 17.5 -71 17.5c-40 0 -70.667 -16.167 -92 -48.5s-32 -83.166 -32 -152.499c0 -62.667 10.333 -110.334 31 -143.001s54.667 -49 102 -49c21.333 0 40 2.16699 56 6.5s32 11.833 48 22.5v312zM108 -121
c18 -8.66699 38.1719 -16.668 60.5049 -24.001s49.5 -11 81.5 -11c52.667 0 89 12.167 109 36.5s30 62.5 30 114.5v22c-16.667 -8 -34.334 -14.5 -53.001 -19.5s-38.334 -7.5 -59.001 -7.5c-74 0 -129.333 20.833 -166 62.5s-55 107.5 -55 197.5c0 36 3.5 70.333 10.5 103
s18.667 61.167 35 85.5s38.166 43.833 65.499 58.5s61 22 101 22c17.333 0 33.166 -2 47.499 -6s27.166 -8.83301 38.499 -14.5s21.166 -11.667 29.499 -18s15.5 -12.166 21.5 -17.499l40 58l74 -39l-37 -85v-419c0 -64 -18.667 -113.833 -56 -149.5
s-93.666 -53.5 -168.999 -53.5c-33.333 0 -65.333 3 -96 9s-57.667 15.667 -81 29zM251.005 773.999h77l105 -168l-46 -31l-97 119l-100 -118l-47 32z" />
    <glyph glyph-name="Gbreve" unicode="&#x11e;" horiz-adv-x="670" 
d="M512 300l-147 -0.00195312v76h240v-324c-19.333 -12 -38.166 -22.333 -56.499 -31s-37 -16 -56 -22s-38.833 -10.333 -59.5 -13s-42.667 -4 -66 -4c-58 0 -106.833 9.16699 -146.5 27.5s-71.667 44.166 -96 77.499s-41.666 73 -51.999 119s-15.5 97 -15.5 153
c0 54 6 104 18 150s30.833 85.833 56.5 119.5s58.667 60 99 79s89.166 28.5 146.499 28.5c39.333 0 76 -5.83301 110 -17.5s61.667 -24.167 83 -37.5l-35 -65c-22.667 14 -46.834 25.167 -72.501 33.5s-54.167 12.5 -85.5 12.5c-28 0 -55 -4.33301 -81 -13
s-48.833 -24.167 -68.5 -46.5s-35.5 -53.166 -47.5 -92.499s-18 -89.666 -18 -150.999c0 -99.333 16.5 -174.166 49.5 -224.499s85.833 -75.5 158.5 -75.5c52.667 0 100 11.333 142 34v207zM278 908.998c7.33301 -18 17.499 -32.5 30.499 -43.5s33.167 -16.5 60.5 -16.5
c24.667 0 43.834 5 57.501 15s24.5 25 32.5 45l58 -18c-9.33301 -38 -27.333 -66.167 -54 -84.5s-58 -27.5 -94 -27.5s-67.833 8.83301 -95.5 26.5s-45.167 45.5 -52.5 83.5z" />
    <glyph glyph-name="gbreve" unicode="&#x11f;" horiz-adv-x="564" 
d="M389 399c-10.667 11.333 -24.667 22.833 -42 34.5s-41 17.5 -71 17.5c-40 0 -70.667 -16.167 -92 -48.5s-32 -83.166 -32 -152.499c0 -62.667 10.333 -110.334 31 -143.001s54.667 -49 102 -49c21.333 0 40 2.16699 56 6.5s32 11.833 48 22.5v312zM108 -121
c18 -8.66699 38.1719 -16.668 60.5049 -24.001s49.5 -11 81.5 -11c52.667 0 89 12.167 109 36.5s30 62.5 30 114.5v22c-16.667 -8 -34.334 -14.5 -53.001 -19.5s-38.334 -7.5 -59.001 -7.5c-74 0 -129.333 20.833 -166 62.5s-55 107.5 -55 197.5c0 36 3.5 70.333 10.5 103
s18.667 61.167 35 85.5s38.166 43.833 65.499 58.5s61 22 101 22c17.333 0 33.166 -2 47.499 -6s27.166 -8.83301 38.499 -14.5s21.166 -11.667 29.499 -18s15.5 -12.166 21.5 -17.499l40 58l74 -39l-37 -85v-419c0 -64 -18.667 -113.833 -56 -149.5
s-93.666 -53.5 -168.999 -53.5c-33.333 0 -65.333 3 -96 9s-57.667 15.667 -81 29zM200.005 720.999c7.33301 -18 17.499 -32.5 30.499 -43.5s33.167 -16.5 60.5 -16.5c24.667 0 43.834 5 57.501 15s24.5 25 32.5 45l58 -18c-9.33301 -38 -27.333 -66.167 -54 -84.5
s-58 -27.5 -94 -27.5s-67.833 8.83301 -95.5 26.5s-45.167 45.5 -52.5 83.5z" />
    <glyph glyph-name="Gdotaccent" unicode="&#x120;" horiz-adv-x="670" 
d="M512 300l-147 -0.00195312v76h240v-324c-19.333 -12 -38.166 -22.333 -56.499 -31s-37 -16 -56 -22s-38.833 -10.333 -59.5 -13s-42.667 -4 -66 -4c-58 0 -106.833 9.16699 -146.5 27.5s-71.667 44.166 -96 77.499s-41.666 73 -51.999 119s-15.5 97 -15.5 153
c0 54 6 104 18 150s30.833 85.833 56.5 119.5s58.667 60 99 79s89.166 28.5 146.499 28.5c39.333 0 76 -5.83301 110 -17.5s61.667 -24.167 83 -37.5l-35 -65c-22.667 14 -46.834 25.167 -72.501 33.5s-54.167 12.5 -85.5 12.5c-28 0 -55 -4.33301 -81 -13
s-48.833 -24.167 -68.5 -46.5s-35.5 -53.166 -47.5 -92.499s-18 -89.666 -18 -150.999c0 -99.333 16.5 -174.166 49.5 -224.499s85.833 -75.5 158.5 -75.5c52.667 0 100 11.333 142 34v207zM371 777.998c-19.333 0 -34.5 6.33301 -45.5 19s-16.5 28.667 -16.5 48
s5.5 35.5 16.5 48.5s26.167 19.5 45.5 19.5c20 0 35.5 -6.5 46.5 -19.5s16.5 -29.167 16.5 -48.5s-5.5 -35.333 -16.5 -48s-26.5 -19 -46.5 -19z" />
    <glyph glyph-name="gdotaccent" unicode="&#x121;" horiz-adv-x="564" 
d="M389 399c-10.667 11.333 -24.667 22.833 -42 34.5s-41 17.5 -71 17.5c-40 0 -70.667 -16.167 -92 -48.5s-32 -83.166 -32 -152.499c0 -62.667 10.333 -110.334 31 -143.001s54.667 -49 102 -49c21.333 0 40 2.16699 56 6.5s32 11.833 48 22.5v312zM108 -121
c18 -8.66699 38.1719 -16.668 60.5049 -24.001s49.5 -11 81.5 -11c52.667 0 89 12.167 109 36.5s30 62.5 30 114.5v22c-16.667 -8 -34.334 -14.5 -53.001 -19.5s-38.334 -7.5 -59.001 -7.5c-74 0 -129.333 20.833 -166 62.5s-55 107.5 -55 197.5c0 36 3.5 70.333 10.5 103
s18.667 61.167 35 85.5s38.166 43.833 65.499 58.5s61 22 101 22c17.333 0 33.166 -2 47.499 -6s27.166 -8.83301 38.499 -14.5s21.166 -11.667 29.499 -18s15.5 -12.166 21.5 -17.499l40 58l74 -39l-37 -85v-419c0 -64 -18.667 -113.833 -56 -149.5
s-93.666 -53.5 -168.999 -53.5c-33.333 0 -65.333 3 -96 9s-57.667 15.667 -81 29zM278.005 593.999c-19.333 0 -34.5 6.33301 -45.5 19s-16.5 28.667 -16.5 48s5.5 35.5 16.5 48.5s26.167 19.5 45.5 19.5c20 0 35.5 -6.5 46.5 -19.5s16.5 -29.167 16.5 -48.5
s-5.5 -35.333 -16.5 -48s-26.5 -19 -46.5 -19z" />
    <glyph glyph-name="Gcommaaccent" unicode="&#x122;" horiz-adv-x="670" 
d="M512 300l-147 -0.00195312v76h240v-324c-19.333 -12 -38.166 -22.333 -56.499 -31s-37 -16 -56 -22s-38.833 -10.333 -59.5 -13s-42.667 -4 -66 -4c-58 0 -106.833 9.16699 -146.5 27.5s-71.667 44.166 -96 77.499s-41.666 73 -51.999 119s-15.5 97 -15.5 153
c0 54 6 104 18 150s30.833 85.833 56.5 119.5s58.667 60 99 79s89.166 28.5 146.499 28.5c39.333 0 76 -5.83301 110 -17.5s61.667 -24.167 83 -37.5l-35 -65c-22.667 14 -46.834 25.167 -72.501 33.5s-54.167 12.5 -85.5 12.5c-28 0 -55 -4.33301 -81 -13
s-48.833 -24.167 -68.5 -46.5s-35.5 -53.166 -47.5 -92.499s-18 -89.666 -18 -150.999c0 -99.333 16.5 -174.166 49.5 -224.499s85.833 -75.5 158.5 -75.5c52.667 0 100 11.333 142 34v207zM315 -68.002l94 -21l-65 -183l-57 13z" />
    <glyph glyph-name="gcommaaccent" unicode="&#x123;" horiz-adv-x="564" 
d="M389 399c-10.667 11.333 -24.667 22.833 -42 34.5s-41 17.5 -71 17.5c-40 0 -70.667 -16.167 -92 -48.5s-32 -83.166 -32 -152.499c0 -62.667 10.333 -110.334 31 -143.001s54.667 -49 102 -49c21.333 0 40 2.16699 56 6.5s32 11.833 48 22.5v312zM108 -121
c18 -8.66699 38.1719 -16.668 60.5049 -24.001s49.5 -11 81.5 -11c52.667 0 89 12.167 109 36.5s30 62.5 30 114.5v22c-16.667 -8 -34.334 -14.5 -53.001 -19.5s-38.334 -7.5 -59.001 -7.5c-74 0 -129.333 20.833 -166 62.5s-55 107.5 -55 197.5c0 36 3.5 70.333 10.5 103
s18.667 61.167 35 85.5s38.166 43.833 65.499 58.5s61 22 101 22c17.333 0 33.166 -2 47.499 -6s27.166 -8.83301 38.499 -14.5s21.166 -11.667 29.499 -18s15.5 -12.166 21.5 -17.499l40 58l74 -39l-37 -85v-419c0 -64 -18.667 -113.833 -56 -149.5
s-93.666 -53.5 -168.999 -53.5c-33.333 0 -65.333 3 -96 9s-57.667 15.667 -81 29zM293.005 775.999l57 -13l-28 -191l-94 21z" />
    <glyph glyph-name="Hcircumflex" unicode="&#x124;" horiz-adv-x="687" 
d="M86 721h98v-307h319v307h98v-721h-98v338h-319v-338h-98v721zM318 924h77l97 -124l-40 -35l-96 83l-98 -83l-42 34z" />
    <glyph glyph-name="hcircumflex" unicode="&#x125;" horiz-adv-x="583" 
d="M82 736h93.001v-273c23.333 17.333 48.333 31 75 41s53.334 15 80.001 15c33.333 0 61.166 -5.16699 83.499 -15.5s40.166 -24.333 53.499 -42s22.666 -38.334 27.999 -62.001s8 -48.5 8 -74.5v-325h-93v320c0 42 -8.66699 72.333 -26 91s-42.666 28 -75.999 28
c-27.333 0 -51.833 -4.66699 -73.5 -14s-41.5 -20.666 -59.5 -33.999v-391h-93v736zM168.001 924h77l97 -124l-40 -35l-96 83l-98 -83l-42 34z" />
    <glyph glyph-name="Hbar" unicode="&#x126;" horiz-adv-x="695" 
d="M90 542h-55v71h55v108h98v-108h319v108h98v-108h58v-71h-58v-542h-98v338h-319v-338h-98v542zM507 414v128h-319v-128h319z" />
    <glyph glyph-name="hbar" unicode="&#x127;" horiz-adv-x="583" 
d="M82 580h-60.999v69h61v87h93v-87h169v-69h-169v-137c23.333 17.333 48.333 31 75 41s53.334 15 80.001 15c33.333 0 61.166 -5.16699 83.499 -15.5s40.166 -24.333 53.499 -42s22.666 -38.334 27.999 -62.001s8 -48.5 8 -74.5v-305h-93v300c0 42 -8.66699 72.333 -26 91
s-42.666 28 -75.999 28c-27.333 0 -51.833 -4.66699 -73.5 -14s-41.5 -20.666 -59.5 -33.999v-371h-93v580z" />
    <glyph glyph-name="Itilde" unicode="&#x128;" horiz-adv-x="280" 
d="M91 721h98v-721h-98v721zM-41 782c0 40 6.50098 71.499 19.501 94.499s35.167 34.5 66.5 34.5c11.333 0 23.833 -1.66699 37.5 -5s27.167 -7.66602 40.5 -12.999l42 -16c13.333 -5.33301 25.166 -9.83301 35.499 -13.5s19.5 -5.5 27.5 -5.5c12.667 0 22 3.83301 28 11.5
s9 22.5 9 44.5h57c0 -86.667 -27.667 -130 -83 -130c-15.333 0 -29.666 2 -42.999 6s-27.666 8.66699 -42.999 14l-37 14c-12.667 5.33301 -24.834 9.83301 -36.501 13.5s-21.834 5.5 -30.501 5.5c-12.667 0 -21.5 -3.66699 -26.5 -11s-7.5 -22 -7.5 -44h-56z" />
    <glyph glyph-name="itilde" unicode="&#x129;" horiz-adv-x="258" 
d="M85 435h-64v66h157v-501h-93v435zM-68 600c0 40 6.50098 71.499 19.501 94.499s35.167 34.5 66.5 34.5c11.333 0 23.833 -1.66699 37.5 -5s27.167 -7.66602 40.5 -12.999l42 -16c13.333 -5.33301 25.166 -9.83301 35.499 -13.5s19.5 -5.5 27.5 -5.5
c12.667 0 22 3.83301 28 11.5s9 22.5 9 44.5h57c0 -86.667 -27.667 -130 -83 -130c-15.333 0 -29.666 2 -42.999 6s-27.666 8.66699 -42.999 14l-37 14c-12.667 5.33301 -24.834 9.83301 -36.501 13.5s-21.834 5.5 -30.501 5.5c-12.667 0 -21.5 -3.66699 -26.5 -11
s-7.5 -22 -7.5 -44h-56z" />
    <glyph glyph-name="Imacron" unicode="&#x12a;" horiz-adv-x="280" 
d="M91 721h98v-721h-98v721zM-16 863h313v-73h-313v73z" />
    <glyph glyph-name="imacron" unicode="&#x12b;" horiz-adv-x="258" 
d="M85 435h-64v66h157v-501h-93v435zM-43 690h313v-75h-313v75z" />
    <glyph glyph-name="Ibreve" unicode="&#x12c;" horiz-adv-x="280" 
d="M91 721h98v-721h-98v721zM53 909c7.33301 -18 17.499 -32.5 30.499 -43.5s33.167 -16.5 60.5 -16.5c24.667 0 43.834 5 57.501 15s24.5 25 32.5 45l58 -18c-9.33301 -38 -27.333 -66.167 -54 -84.5s-58 -27.5 -94 -27.5s-67.833 8.83301 -95.5 26.5
s-45.167 45.5 -52.5 83.5z" />
    <glyph glyph-name="ibreve" unicode="&#x12d;" horiz-adv-x="258" 
d="M85 435h-64v66h157v-501h-93v435zM29 721c7.33301 -18 17.499 -32.5 30.499 -43.5s33.167 -16.5 60.5 -16.5c24.667 0 43.834 5 57.501 15s24.5 25 32.5 45l58 -18c-9.33301 -38 -27.333 -66.167 -54 -84.5s-58 -27.5 -94 -27.5s-67.833 8.83301 -95.5 26.5
s-45.167 45.5 -52.5 83.5z" />
    <glyph glyph-name="Iogonek" unicode="&#x12e;" horiz-adv-x="280" 
d="M181 -230c-31.333 4 -57.498 8.83496 -78.498 14.502s-38 12.5 -51 20.5s-22.167 17.167 -27.5 27.5s-8 22.166 -8 35.499c0 10 1.66699 19.5 5 28.5s8 18.167 14 27.5c9.33301 14.667 18.666 28.167 27.999 40.5l28 35.5v721h98v-721c-9.33301 -8 -19.333 -18 -30 -30
s-20.667 -25 -30 -39c-4.66699 -6.66699 -9.66699 -14.334 -15 -23.001s-8 -18.667 -8 -30c0 -6.66699 1.16699 -12.667 3.5 -18s6.66602 -10.333 12.999 -15s15.5 -9 27.5 -13s28 -8 48 -12z" />
    <glyph glyph-name="iogonek" unicode="&#x12f;" horiz-adv-x="258" 
d="M169 -230c-31.333 4 -57.499 8.83594 -78.499 14.5029s-38 12.5 -51 20.5s-22.167 17.167 -27.5 27.5s-8 22.166 -8 35.499c0 10 1.66699 19.5 5 28.5s8 18.167 14 27.5l31 43c10 13.333 20.333 26.333 31 39v429h-64v66h157v-501
c-9.33301 -8.66699 -19.5 -18.834 -30.5 -30.501s-21.167 -24.5 -30.5 -38.5c-4.66699 -6.66699 -9.66699 -14.334 -15 -23.001s-8 -18.667 -8 -30c0 -6.66699 1.16699 -12.667 3.5 -18s6.66602 -10.333 12.999 -15s15.5 -9 27.5 -13s28 -8 48 -12zM121.001 594.003
c-19.333 0 -34.5 6.33301 -45.5 19s-16.5 28.667 -16.5 48s5.5 35.5 16.5 48.5s26.167 19.5 45.5 19.5c20 0 35.5 -6.5 46.5 -19.5s16.5 -29.167 16.5 -48.5s-5.5 -35.333 -16.5 -48s-26.5 -19 -46.5 -19z" />
    <glyph glyph-name="Idotaccent" unicode="&#x130;" horiz-adv-x="280" 
d="M91 721h98v-721h-98v721zM143 778c-19.333 0 -34.5 6.33301 -45.5 19s-16.5 28.667 -16.5 48s5.5 35.5 16.5 48.5s26.167 19.5 45.5 19.5c20 0 35.5 -6.5 46.5 -19.5s16.5 -29.167 16.5 -48.5s-5.5 -35.333 -16.5 -48s-26.5 -19 -46.5 -19z" />
    <glyph glyph-name="dotlessi" unicode="&#x131;" horiz-adv-x="258" 
d="M85 435h-64v66h157v-501h-93v435z" />
    <glyph glyph-name="IJ" unicode="&#x132;" horiz-adv-x="728" 
d="M91 721h98v-721h-98v721zM297 93c15.333 -9.33301 33.833 -17.334 55.5 -24.001s47.167 -10 76.5 -10c39.333 0 68.5 12.833 87.5 38.5s28.5 67.834 28.5 126.501v497h98v-501c0 -77.333 -17 -136.333 -51 -177s-88.333 -61 -163 -61c-40 0 -73.333 4.33301 -100 13
s-48 17.667 -64 27z" />
    <glyph glyph-name="ij" unicode="&#x133;" horiz-adv-x="512" 
d="M85 435h-64v66h157v-501h-93v435zM121 594c-19.333 0 -34.5 6.33301 -45.5 19s-16.5 28.667 -16.5 48s5.5 35.5 16.5 48.5s26.167 19.5 45.5 19.5c20 0 35.5 -6.5 46.5 -19.5s16.5 -29.167 16.5 -48.5s-5.5 -35.333 -16.5 -48s-26.5 -19 -46.5 -19zM172 -136
c12.667 -4.66699 25.501 -9.16895 38.501 -13.502s29.167 -6.5 48.5 -6.5c18.667 0 33.334 4.16699 44.001 12.5s18.667 19 24 32s8.66602 27.5 9.99902 43.5s2 31.333 2 46v523h93v-540c0 -23.333 -2.5 -46.166 -7.5 -68.499s-13.833 -42.166 -26.5 -59.499
s-29.667 -31.333 -51 -42s-48.333 -16 -81 -16c-16.667 0 -36.334 2.5 -59.001 7.5s-42 11.5 -58 19.5zM384.001 596.998c-20 0 -35.333 6.33301 -46 19s-16 28 -16 46s5.33301 33.5 16 46.5s26 19.5 46 19.5c20.667 0 36.167 -6.5 46.5 -19.5s15.5 -28.5 15.5 -46.5
s-5.16699 -33.333 -15.5 -46s-25.833 -19 -46.5 -19z" />
    <glyph glyph-name="Jcircumflex" unicode="&#x134;" horiz-adv-x="475" 
d="M44 93c15.333 -9.33301 33.833 -17.334 55.5 -24.001s47.167 -10 76.5 -10c39.333 0 68.5 12.833 87.5 38.5s28.5 67.834 28.5 126.501v497h98v-501c0 -77.333 -17 -136.333 -51 -177s-88.333 -61 -163 -61c-40 0 -73.333 4.33301 -100 13s-48 17.667 -64 27z
M306 923.999h77l97 -124l-40 -35l-96 83l-98 -83l-42 34z" />
    <glyph glyph-name="jcircumflex" unicode="&#x135;" horiz-adv-x="258" 
d="M-82 -136c12.667 -4.66699 25.501 -9.16895 38.501 -13.502s29.167 -6.5 48.5 -6.5c18.667 0 33.334 4.16699 44.001 12.5s18.667 19 24 32s8.66602 27.5 9.99902 43.5s2 31.333 2 46v523h93v-540c0 -23.333 -2.5 -46.166 -7.5 -68.499s-13.833 -42.166 -26.5 -59.499
s-29.667 -31.333 -51 -42s-48.333 -16 -81 -16c-16.667 0 -36.334 2.5 -59.001 7.5s-42 11.5 -58 19.5zM94.001 773.998h77l105 -168l-46 -31l-97 119l-100 -118l-47 32z" />
    <glyph glyph-name="Kcommaaccent" unicode="&#x136;" horiz-adv-x="602" 
d="M84 721l94 -0.000976562v-315h59c13.333 0 22.833 1.33301 28.5 4s12.167 9 19.5 19l209 303l86 -18l-231 -334l247 -368l-102 -21l-208 312c-8 12.667 -15.667 20.334 -23 23.001s-16 4 -26 4h-59v-330h-94v721zM270 -68.001l94 -21l-65 -183l-57 13z" />
    <glyph glyph-name="kcommaaccent" unicode="&#x137;" horiz-adv-x="504" 
d="M81 736h93v-419h31c11.333 0 19.5 1 24.5 3s10.167 6 15.5 12l150 180l80 -21l-172 -204l201 -276l-93 -22l-166 226c-8.66699 12 -16 19.333 -22 22s-15.667 4 -29 4h-20v-241h-93v736zM231 -68l94 -21l-65 -183l-57 13z" />
    <glyph glyph-name="kgreenlandic" unicode="&#x138;" horiz-adv-x="504" 
d="M81 501l93.001 -0.000976562v-205h31c11.333 0 19.666 0.833008 24.999 2.5s10.333 5.83398 15 12.501l150 201l80 -21l-172 -228l201 -252l-93 -22l-166 205c-9.33301 11.333 -17 18.5 -23 21.5s-15.333 4.5 -28 4.5h-20v-220h-93v501z" />
    <glyph glyph-name="Lacute" unicode="&#x139;" horiz-adv-x="564" 
d="M85 721h98v-645h361v-76h-459v721zM194 962l67 -60l-166 -139l-40 36z" />
    <glyph glyph-name="lacute" unicode="&#x13a;" horiz-adv-x="253" 
d="M80 669h-62v66h155v-735h-93v669zM170 962l67 -60l-166 -139l-40 36z" />
    <glyph glyph-name="Lcommaaccent" unicode="&#x13b;" horiz-adv-x="564" 
d="M85 721h98v-645h361v-76h-459v721zM291 -68l94 -21l-65 -183l-57 13z" />
    <glyph glyph-name="lcommaaccent" unicode="&#x13c;" horiz-adv-x="253" 
d="M80 669h-62v66h155v-735h-93v669zM80 -68l94 -21l-65 -183l-57 13z" />
    <glyph glyph-name="Lcaron" unicode="&#x13d;" horiz-adv-x="564" 
d="M85 721h98v-645h361v-76h-459v721zM321 721h88l-34 -229h-54v229z" />
    <glyph glyph-name="lcaron" unicode="&#x13e;" horiz-adv-x="319" 
d="M72 669h-62v66h155v-735h-93v669zM242 736h88l-34 -229h-54v229z" />
    <glyph glyph-name="Ldot" unicode="&#x13f;" horiz-adv-x="564" 
d="M85 721h98v-645h361v-76h-459v721zM417 298c-19.333 0 -34.5 6.33301 -45.5 19s-16.5 28.667 -16.5 48s5.5 35.5 16.5 48.5s26.167 19.5 45.5 19.5c20 0 35.5 -6.5 46.5 -19.5s16.5 -29.167 16.5 -48.5s-5.5 -35.333 -16.5 -48s-26.5 -19 -46.5 -19z" />
    <glyph glyph-name="ldot" unicode="&#x140;" horiz-adv-x="343" 
d="M72 669h-62v66h155v-735h-93v669zM297 280c-19.333 0 -34.5 6.33301 -45.5 19s-16.5 28.667 -16.5 48s5.5 35.5 16.5 48.5s26.167 19.5 45.5 19.5c20 0 35.5 -6.5 46.5 -19.5s16.5 -29.167 16.5 -48.5s-5.5 -35.333 -16.5 -48s-26.5 -19 -46.5 -19z" />
    <glyph glyph-name="Lslash" unicode="&#x141;" horiz-adv-x="564" 
d="M85 307l-79 -31v77l79 31v337h98v-304l202 81v-77l-202 -81v-264h361v-76h-459v307z" />
    <glyph glyph-name="lslash" unicode="&#x142;" horiz-adv-x="258" 
d="M80 315l-63 -31v81l63 31v273h-62v66h155v-304l67 33v-81l-67 -33v-350h-93v315z" />
    <glyph glyph-name="Nacute" unicode="&#x143;" horiz-adv-x="693" 
d="M88 721l97 0.000976562l312 -615c4.66699 -9.33301 8.16699 -15.5 10.5 -18.5s5.16602 -4.5 8.49902 -4.5c5.33301 0 8 5 8 15v623h81v-621c0 -40 -8 -67.833 -24 -83.5s-37.333 -23.5 -64 -23.5c-12 0 -22.833 1 -32.5 3s-18.5 5.66699 -26.5 11
s-15.667 12.666 -23 21.999s-14.666 21.333 -21.999 36l-244 482v-547h-81v721zM432 962.001l67 -60l-166 -139l-40 36z" />
    <glyph glyph-name="nacute" unicode="&#x144;" horiz-adv-x="580" 
d="M84 397l-38.9971 85.001l74 39l41 -66c30 22.667 58.333 39 85 49s55 15 85 15c33.333 0 61.166 -5.16699 83.499 -15.5s40.166 -24.333 53.499 -42s22.666 -38.334 27.999 -62.001s8 -48.5 8 -74.5v-325h-93v320c0 42 -8.5 72.333 -25.5 91s-42.5 28 -76.5 28
c-25.333 0 -49.5 -4.5 -72.5 -13.5s-42.5 -20.167 -58.5 -33.5v-392h-93v397zM353.003 796.001l73 -51l-143 -163l-46 34z" />
    <glyph glyph-name="Ncommaaccent" unicode="&#x145;" horiz-adv-x="693" 
d="M88 721l97 0.000976562l312 -615c4.66699 -9.33301 8.16699 -15.5 10.5 -18.5s5.16602 -4.5 8.49902 -4.5c5.33301 0 8 5 8 15v623h81v-621c0 -40 -8 -67.833 -24 -83.5s-37.333 -23.5 -64 -23.5c-12 0 -22.833 1 -32.5 3s-18.5 5.66699 -26.5 11
s-15.667 12.666 -23 21.999s-14.666 21.333 -21.999 36l-244 482v-547h-81v721zM305 -67.999l94 -21l-65 -183l-57 13z" />
    <glyph glyph-name="ncommaaccent" unicode="&#x146;" horiz-adv-x="580" 
d="M84 397l-38.9971 85.001l74 39l41 -66c30 22.667 58.333 39 85 49s55 15 85 15c33.333 0 61.166 -5.16699 83.499 -15.5s40.166 -24.333 53.499 -42s22.666 -38.334 27.999 -62.001s8 -48.5 8 -74.5v-325h-93v320c0 42 -8.5 72.333 -25.5 91s-42.5 28 -76.5 28
c-25.333 0 -49.5 -4.5 -72.5 -13.5s-42.5 -20.167 -58.5 -33.5v-392h-93v397zM253.003 -67.999l94 -21l-65 -183l-57 13z" />
    <glyph glyph-name="Ncaron" unicode="&#x147;" horiz-adv-x="693" 
d="M88 721l97 0.000976562l312 -615c4.66699 -9.33301 8.16699 -15.5 10.5 -18.5s5.16602 -4.5 8.49902 -4.5c5.33301 0 8 5 8 15v623h81v-621c0 -40 -8 -67.833 -24 -83.5s-37.333 -23.5 -64 -23.5c-12 0 -22.833 1 -32.5 3s-18.5 5.66699 -26.5 11
s-15.667 12.666 -23 21.999s-14.666 21.333 -21.999 36l-244 482v-547h-81v721zM222 889.001l42 35l96 -83l98 83l40 -34l-102 -125h-77z" />
    <glyph glyph-name="ncaron" unicode="&#x148;" horiz-adv-x="580" 
d="M84 397l-38.9971 85.001l74 39l41 -66c30 22.667 58.333 39 85 49s55 15 85 15c33.333 0 61.166 -5.16699 83.499 -15.5s40.166 -24.333 53.499 -42s22.666 -38.334 27.999 -62.001s8 -48.5 8 -74.5v-325h-93v320c0 42 -8.5 72.333 -25.5 91s-42.5 28 -76.5 28
c-25.333 0 -49.5 -4.5 -72.5 -13.5s-42.5 -20.167 -58.5 -33.5v-392h-93v397zM153.003 747.001l47 32l100 -118l97 119l46 -31l-105 -168h-77z" />
    <glyph glyph-name="napostrophe" unicode="&#x149;" horiz-adv-x="591" 
d="M95 397l-38.9971 85.001l74 39l41 -66c30 22.667 58.333 39 85 49s55 15 85 15c33.333 0 61.166 -5.16699 83.499 -15.5s40.166 -24.333 53.499 -42s22.666 -38.334 27.999 -62.001s8 -48.5 8 -74.5v-325h-93v320c0 42 -8.5 72.333 -25.5 91s-42.5 28 -76.5 28
c-25.333 0 -49.5 -4.5 -72.5 -13.5s-42.5 -20.167 -58.5 -33.5v-392h-93v397zM26.0029 783.001l94 -21l-76 -230l-65 16z" />
    <glyph glyph-name="Eng" unicode="&#x14a;" horiz-adv-x="693" 
d="M259 -116c15.333 -9.33301 33.833 -17.333 55.5 -24s47.167 -10 76.5 -10c38.667 0 67.5 11.333 86.5 34s28.5 59 28.5 109c-21.333 0.666992 -38.666 6 -51.999 16s-27 28.667 -41 56l-244 482v-547h-81v721h97l312 -615c4.66699 -9.33301 8.16699 -15.5 10.5 -18.5
s5.16602 -4.5 8.49902 -4.5c5.33301 0 8 5 8 15v623h81v-710c0 -77.333 -17 -136.333 -51 -177s-88.333 -61 -163 -61c-40 0 -73.333 4.33301 -100 13s-48 17.667 -64 27z" />
    <glyph glyph-name="eng" unicode="&#x14b;" horiz-adv-x="580" 
d="M242 -136c12.667 -4.66699 25.5029 -9.16797 38.5029 -13.501s29.167 -6.5 48.5 -6.5c18.667 0 33.334 3.16699 44.001 9.5s18.667 15.333 24 27s8.83301 25.834 10.5 42.501s2.5 35 2.5 55v342c0 42 -8.5 72.333 -25.5 91s-42.5 28 -76.5 28
c-25.333 0 -49.5 -4.5 -72.5 -13.5s-42.5 -20.167 -58.5 -33.5v-392h-93v397l-39 85l74 39l41 -66c30 22.667 58.333 39 85 49s55 15 85 15c33.333 0 61.166 -5.16699 83.499 -15.5s40.166 -24.333 53.499 -42s22.666 -38.334 27.999 -62.001s8 -48.5 8 -74.5v-370
c0 -23.333 -2.66699 -45.666 -8 -66.999s-14.333 -40.5 -27 -57.5s-29.667 -30.5 -51 -40.5s-48.333 -15 -81 -15c-16.667 0 -36.334 2.5 -59.001 7.5s-42 11.5 -58 19.5z" />
    <glyph glyph-name="Omacron" unicode="&#x14c;" horiz-adv-x="722" 
d="M361 -18c-52 0 -97 8.83496 -135 26.502s-69.167 43 -93.5 76s-42.5 72.667 -54.5 119s-18 98.166 -18 155.499c0 54.667 6.16699 105.167 18.5 151.5s31 86.166 56 119.499s56.333 59.333 94 78s81.834 28 132.501 28c52 0 97 -9 135 -27s69.167 -43.5 93.5 -76.5
s42.5 -72.667 54.5 -119s18 -97.833 18 -154.5c0 -55.333 -6.16699 -106 -18.5 -152s-31 -85.667 -56 -119s-56.333 -59.333 -94 -78s-81.834 -28 -132.501 -28zM361 58.002c38.667 0 70.501 7.99805 95.501 23.998s45 37.667 60 65s25.5 59.333 31.5 96s9 75.667 9 117
c0 40 -3.33301 78.167 -10 114.5s-17.5 68.5 -32.5 96.5s-35.167 50.167 -60.5 66.5s-56.333 24.5 -93 24.5c-38.667 0 -70.5 -8 -95.5 -24s-45 -37.833 -60 -65.5s-25.5 -60 -31.5 -97s-9 -76.167 -9 -117.5c0 -40 3.16699 -78.167 9.5 -114.5
s17.166 -68.166 32.499 -95.499s35.5 -49.166 60.5 -65.499s56.167 -24.5 93.5 -24.5zM210.001 863h313v-73h-313v73z" />
    <glyph glyph-name="omacron" unicode="&#x14d;" horiz-adv-x="567" 
d="M284 48c48 0 81.834 17.332 101.501 51.999s29.5 85 29.5 151c0 63.333 -9.83301 112.333 -29.5 147s-53.5 52 -101.5 52c-48.667 0 -82.834 -16.667 -102.501 -50s-29.5 -83.333 -29.5 -150c0 -31.333 2.33301 -59.5 7 -84.5s12.167 -46.167 22.5 -63.5
s24 -30.666 41 -39.999s37.5 -14 61.5 -14zM281.001 -18.001c-42.667 0 -78.334 6.66602 -107.001 19.999s-51.834 32 -69.501 56s-30.167 52.333 -37.5 85s-11 68.334 -11 107.001s4.66699 74.5 14 107.5s23.333 61.5 42 85.5s42.334 42.667 71.001 56
s62.334 20 101.001 20c40 0 74.333 -6.66699 103 -20s52.167 -31.833 70.5 -55.5s31.833 -52 40.5 -85s13 -68.833 13 -107.5c0 -39.333 -4.16699 -75.333 -12.5 -108s-21.833 -61 -40.5 -85s-42.5 -42.667 -71.5 -56s-64.167 -20 -105.5 -20zM126.001 689.998h313v-75h-313
v75z" />
    <glyph glyph-name="Obreve" unicode="&#x14e;" horiz-adv-x="722" 
d="M361 -18c-52 0 -97 8.83496 -135 26.502s-69.167 43 -93.5 76s-42.5 72.667 -54.5 119s-18 98.166 -18 155.499c0 54.667 6.16699 105.167 18.5 151.5s31 86.166 56 119.499s56.333 59.333 94 78s81.834 28 132.501 28c52 0 97 -9 135 -27s69.167 -43.5 93.5 -76.5
s42.5 -72.667 54.5 -119s18 -97.833 18 -154.5c0 -55.333 -6.16699 -106 -18.5 -152s-31 -85.667 -56 -119s-56.333 -59.333 -94 -78s-81.834 -28 -132.501 -28zM361 58.002c38.667 0 70.501 7.99805 95.501 23.998s45 37.667 60 65s25.5 59.333 31.5 96s9 75.667 9 117
c0 40 -3.33301 78.167 -10 114.5s-17.5 68.5 -32.5 96.5s-35.167 50.167 -60.5 66.5s-56.333 24.5 -93 24.5c-38.667 0 -70.5 -8 -95.5 -24s-45 -37.833 -60 -65.5s-25.5 -60 -31.5 -97s-9 -76.167 -9 -117.5c0 -40 3.16699 -78.167 9.5 -114.5
s17.166 -68.166 32.499 -95.499s35.5 -49.166 60.5 -65.499s56.167 -24.5 93.5 -24.5zM282.001 909c7.33301 -18 17.499 -32.5 30.499 -43.5s33.167 -16.5 60.5 -16.5c24.667 0 43.834 5 57.501 15s24.5 25 32.5 45l58 -18c-9.33301 -38 -27.333 -66.167 -54 -84.5
s-58 -27.5 -94 -27.5s-67.833 8.83301 -95.5 26.5s-45.167 45.5 -52.5 83.5z" />
    <glyph glyph-name="obreve" unicode="&#x14f;" horiz-adv-x="567" 
d="M284 48c48 0 81.834 17.332 101.501 51.999s29.5 85 29.5 151c0 63.333 -9.83301 112.333 -29.5 147s-53.5 52 -101.5 52c-48.667 0 -82.834 -16.667 -102.501 -50s-29.5 -83.333 -29.5 -150c0 -31.333 2.33301 -59.5 7 -84.5s12.167 -46.167 22.5 -63.5
s24 -30.666 41 -39.999s37.5 -14 61.5 -14zM281.001 -18.001c-42.667 0 -78.334 6.66602 -107.001 19.999s-51.834 32 -69.501 56s-30.167 52.333 -37.5 85s-11 68.334 -11 107.001s4.66699 74.5 14 107.5s23.333 61.5 42 85.5s42.334 42.667 71.001 56
s62.334 20 101.001 20c40 0 74.333 -6.66699 103 -20s52.167 -31.833 70.5 -55.5s31.833 -52 40.5 -85s13 -68.833 13 -107.5c0 -39.333 -4.16699 -75.333 -12.5 -108s-21.833 -61 -40.5 -85s-42.5 -42.667 -71.5 -56s-64.167 -20 -105.5 -20zM196.001 720.998
c7.33301 -18 17.499 -32.5 30.499 -43.5s33.167 -16.5 60.5 -16.5c24.667 0 43.834 5 57.501 15s24.5 25 32.5 45l58 -18c-9.33301 -38 -27.333 -66.167 -54 -84.5s-58 -27.5 -94 -27.5s-67.833 8.83301 -95.5 26.5s-45.167 45.5 -52.5 83.5z" />
    <glyph glyph-name="Ohungarumlaut" unicode="&#x150;" horiz-adv-x="722" 
d="M361 -18c-52 0 -97 8.83496 -135 26.502s-69.167 43 -93.5 76s-42.5 72.667 -54.5 119s-18 98.166 -18 155.499c0 54.667 6.16699 105.167 18.5 151.5s31 86.166 56 119.499s56.333 59.333 94 78s81.834 28 132.501 28c52 0 97 -9 135 -27s69.167 -43.5 93.5 -76.5
s42.5 -72.667 54.5 -119s18 -97.833 18 -154.5c0 -55.333 -6.16699 -106 -18.5 -152s-31 -85.667 -56 -119s-56.333 -59.333 -94 -78s-81.834 -28 -132.501 -28zM361 58.002c38.667 0 70.501 7.99805 95.501 23.998s45 37.667 60 65s25.5 59.333 31.5 96s9 75.667 9 117
c0 40 -3.33301 78.167 -10 114.5s-17.5 68.5 -32.5 96.5s-35.167 50.167 -60.5 66.5s-56.333 24.5 -93 24.5c-38.667 0 -70.5 -8 -95.5 -24s-45 -37.833 -60 -65.5s-25.5 -60 -31.5 -97s-9 -76.167 -9 -117.5c0 -40 3.16699 -78.167 9.5 -114.5
s17.166 -68.166 32.499 -95.499s35.5 -49.166 60.5 -65.499s56.167 -24.5 93.5 -24.5zM507.001 968l72 -52l-135 -153l-45 31zM345.001 968l72 -52l-135 -153l-46 31z" />
    <glyph glyph-name="ohungarumlaut" unicode="&#x151;" horiz-adv-x="567" 
d="M284 48c48 0 81.834 17.332 101.501 51.999s29.5 85 29.5 151c0 63.333 -9.83301 112.333 -29.5 147s-53.5 52 -101.5 52c-48.667 0 -82.834 -16.667 -102.501 -50s-29.5 -83.333 -29.5 -150c0 -31.333 2.33301 -59.5 7 -84.5s12.167 -46.167 22.5 -63.5
s24 -30.666 41 -39.999s37.5 -14 61.5 -14zM281.001 -18.001c-42.667 0 -78.334 6.66602 -107.001 19.999s-51.834 32 -69.501 56s-30.167 52.333 -37.5 85s-11 68.334 -11 107.001s4.66699 74.5 14 107.5s23.333 61.5 42 85.5s42.334 42.667 71.001 56
s62.334 20 101.001 20c40 0 74.333 -6.66699 103 -20s52.167 -31.833 70.5 -55.5s31.833 -52 40.5 -85s13 -68.833 13 -107.5c0 -39.333 -4.16699 -75.333 -12.5 -108s-21.833 -61 -40.5 -85s-42.5 -42.667 -71.5 -56s-64.167 -20 -105.5 -20zM447.001 795.998l73 -51
l-143 -163l-46 34zM271.001 795.998l73 -51l-143 -163l-46 34z" />
    <glyph glyph-name="OE" unicode="&#x152;" horiz-adv-x="1040" 
d="M548 51c-22 -21.333 -49.335 -38.165 -82.002 -50.498s-69.334 -18.5 -110.001 -18.5c-52 0 -96.667 8.83301 -134 26.5s-68 43 -92 76s-41.667 72.667 -53 119s-17 98.166 -17 155.499c0 54.667 6.16699 105.167 18.5 151.5s31 86.166 56 119.499s56.333 59.333 94 78
s81.834 28 132.501 28c40.667 0 76.334 -5.5 107.001 -16.5s57.334 -27.167 80.001 -48.5v50h440v-76h-342v-231h258v-76h-258v-262h354v-76h-452v51zM547.998 576.001c-6.66699 10 -15.3301 20 -25.9971 30s-23.5 19.167 -38.5 27.5s-32.167 15.166 -51.5 20.499
s-41.333 8 -66 8c-38.667 0 -70.834 -8 -96.501 -24s-46.334 -37.833 -62.001 -65.5s-26.667 -60 -33 -97s-9.5 -76.167 -9.5 -117.5c0 -40 3.16699 -78.167 9.5 -114.5s17.166 -68.166 32.499 -95.499s35.5 -49.166 60.5 -65.499s56.167 -24.5 93.5 -24.5
c24.667 0 47 2.5 67 7.5s37.5 11.667 52.5 20s28 17.666 39 27.999s20.5 20.5 28.5 30.5v432z" />
    <glyph glyph-name="oe" unicode="&#x153;" horiz-adv-x="882" 
d="M812 21c-16 -9.33301 -39.1709 -18.166 -69.5039 -26.499s-62.166 -12.5 -95.499 -12.5c-50.667 0 -91 8.16699 -121 24.5s-53 38.5 -69 66.5c-16.667 -27.333 -40 -49.333 -70 -66s-67 -25 -111 -25c-42 0 -77.167 6.66699 -105.5 20s-51 32 -68 56s-29 52.333 -36 85
s-10.5 68.334 -10.5 107.001s4.66699 74.5 14 107.5s23.333 61.5 42 85.5s42.334 42.667 71.001 56s62.334 20 101.001 20c44 0 80.167 -8.83301 108.5 -26.5s50.5 -40.834 66.5 -69.501c16 28 38 51 66 69s63.333 27 106 27c37.333 0 68.833 -7.66699 94.5 -23
s46.334 -35.166 62.001 -59.499s27 -52 34 -83s10.5 -61.833 10.5 -92.5l-33 -35h-297c2.66699 -58.667 15.667 -102.334 39 -131.001s59 -43 107 -43c25.333 0 49.333 2.66699 72 8s44 12.666 64 21.999zM283.996 48c48 0 81.834 17.332 101.501 51.999s29.5 85 29.5 151
c0 63.333 -9.83301 112.333 -29.5 147s-53.5 52 -101.5 52c-48.667 0 -82.834 -16.667 -102.501 -50s-29.5 -83.333 -29.5 -150c0 -31.333 2.33301 -59.5 7 -84.5s12.167 -46.167 22.5 -63.5s24 -30.666 41 -39.999s37.5 -14 61.5 -14zM736.997 290.999
c0 53.333 -9.66895 93.668 -29.002 121.001s-48 41 -86 41c-41.333 0 -70.666 -14.333 -87.999 -43s-27.666 -68.334 -30.999 -119.001h234z" />
    <glyph glyph-name="Racute" unicode="&#x154;" horiz-adv-x="608" 
d="M86 721l209.003 0.00292969c33.333 0 64.833 -3 94.5 -9s55.5 -16.5 77.5 -31.5s39.333 -35.5 52 -61.5s19 -59 19 -99c0 -26 -4.33301 -49.833 -13 -71.5s-20.334 -40.834 -35.001 -57.501s-31.334 -30.5 -50.001 -41.5s-38.334 -18.833 -59.001 -23.5
c10.667 -6.66699 21 -15.834 31 -27.501s19 -24.167 27 -37.5l153 -255l-102 -21l-152 254c-8 13.333 -15.667 24.5 -23 33.5s-15.5 16.167 -24.5 21.5s-19.167 9.16602 -30.5 11.499s-25.333 3.5 -42 3.5h-34v-309h-98v721zM282.003 384.003
c47.333 0 85.501 10.333 114.501 31s43.5 54.334 43.5 101.001c0 28 -4 50.833 -12 68.5s-19 31.167 -33 40.5s-30.833 15.666 -50.5 18.999s-40.834 5 -63.501 5h-97v-265h98zM365.004 962.003l67 -60l-166 -139l-40 36z" />
    <glyph glyph-name="racute" unicode="&#x155;" horiz-adv-x="386" 
d="M89 435l-61.998 0.000976562v66h129l16 -65c8.66699 9.33301 17.667 18.333 27 27s19.666 16.167 30.999 22.5s24.166 11.333 38.499 15s30.833 5.5 49.5 5.5c24 0 45 -2.66699 63 -8l-26 -84c-8 3.33301 -17 5.66602 -27 6.99902s-19.667 2 -29 2
c-48.667 0 -87.667 -16.667 -117 -50v-373h-93v435zM287.002 796.001l73 -51l-143 -163l-46 34z" />
    <glyph glyph-name="Rcommaaccent" unicode="&#x156;" horiz-adv-x="608" 
d="M86 721l209.003 0.00292969c33.333 0 64.833 -3 94.5 -9s55.5 -16.5 77.5 -31.5s39.333 -35.5 52 -61.5s19 -59 19 -99c0 -26 -4.33301 -49.833 -13 -71.5s-20.334 -40.834 -35.001 -57.501s-31.334 -30.5 -50.001 -41.5s-38.334 -18.833 -59.001 -23.5
c10.667 -6.66699 21 -15.834 31 -27.501s19 -24.167 27 -37.5l153 -255l-102 -21l-152 254c-8 13.333 -15.667 24.5 -23 33.5s-15.5 16.167 -24.5 21.5s-19.167 9.16602 -30.5 11.499s-25.333 3.5 -42 3.5h-34v-309h-98v721zM282.003 384.003
c47.333 0 85.501 10.333 114.501 31s43.5 54.334 43.5 101.001c0 28 -4 50.833 -12 68.5s-19 31.167 -33 40.5s-30.833 15.666 -50.5 18.999s-40.834 5 -63.501 5h-97v-265h98zM288.004 -67.9971l94 -21l-65 -183l-57 13z" />
    <glyph glyph-name="rcommaaccent" unicode="&#x157;" horiz-adv-x="386" 
d="M89 435l-61.998 0.000976562v66h129l16 -65c8.66699 9.33301 17.667 18.333 27 27s19.666 16.167 30.999 22.5s24.166 11.333 38.499 15s30.833 5.5 49.5 5.5c24 0 45 -2.66699 63 -8l-26 -84c-8 3.33301 -17 5.66602 -27 6.99902s-19.667 2 -29 2
c-48.667 0 -87.667 -16.667 -117 -50v-373h-93v435zM86.002 -67.999l94 -21l-65 -183l-57 13z" />
    <glyph glyph-name="Rcaron" unicode="&#x158;" horiz-adv-x="608" 
d="M86 721l209.003 0.00292969c33.333 0 64.833 -3 94.5 -9s55.5 -16.5 77.5 -31.5s39.333 -35.5 52 -61.5s19 -59 19 -99c0 -26 -4.33301 -49.833 -13 -71.5s-20.334 -40.834 -35.001 -57.501s-31.334 -30.5 -50.001 -41.5s-38.334 -18.833 -59.001 -23.5
c10.667 -6.66699 21 -15.834 31 -27.501s19 -24.167 27 -37.5l153 -255l-102 -21l-152 254c-8 13.333 -15.667 24.5 -23 33.5s-15.5 16.167 -24.5 21.5s-19.167 9.16602 -30.5 11.499s-25.333 3.5 -42 3.5h-34v-309h-98v721zM282.003 384.003
c47.333 0 85.501 10.333 114.501 31s43.5 54.334 43.5 101.001c0 28 -4 50.833 -12 68.5s-19 31.167 -33 40.5s-30.833 15.666 -50.5 18.999s-40.834 5 -63.501 5h-97v-265h98zM145.004 889.003l42 35l96 -83l98 83l40 -34l-102 -125h-77z" />
    <glyph glyph-name="rcaron" unicode="&#x159;" horiz-adv-x="386" 
d="M89 435l-61.998 0.000976562v66h129l16 -65c8.66699 9.33301 17.667 18.333 27 27s19.666 16.167 30.999 22.5s24.166 11.333 38.499 15s30.833 5.5 49.5 5.5c24 0 45 -2.66699 63 -8l-26 -84c-8 3.33301 -17 5.66602 -27 6.99902s-19.667 2 -29 2
c-48.667 0 -87.667 -16.667 -117 -50v-373h-93v435zM71.002 747.001l47 32l100 -118l97 119l46 -31l-105 -168h-77z" />
    <glyph glyph-name="Sacute" unicode="&#x15a;" horiz-adv-x="573" 
d="M71 112c28.667 -17.333 58.167 -30.498 88.5 -39.498s67.166 -13.5 110.499 -13.5c54 0 93.833 11.333 119.5 34s38.5 53 38.5 91c0 24 -4.33301 43.667 -13 59s-20.334 28.166 -35.001 38.499s-31.667 18.666 -51 24.999s-39.333 12.5 -60 18.5
c-25.333 6.66699 -50.666 14.334 -75.999 23.001s-48.166 20.334 -68.499 35.001s-36.833 34 -49.5 58s-19 55 -19 93c0 27.333 5 53.166 15 77.499s25.333 45.833 46 64.5s46.667 33.334 78 44.001s68 16 110 16c19.333 0 38.833 -1.5 58.5 -4.5s38.5 -7 56.5 -12
s34.667 -10.667 50 -17s29 -13.166 41 -20.499l-35 -67c-22 14 -47.833 25.5 -77.5 34.5s-59.167 13.5 -88.5 13.5c-52 0 -91.5 -10 -118.5 -30s-40.5 -49 -40.5 -87c0 -22.667 4.66699 -41.334 14 -56.001s22 -26.834 38 -36.501s34.167 -17.834 54.5 -24.501l63.5 -20
c24.667 -7.33301 49.167 -15.5 73.5 -24.5s46.333 -21 66 -36s35.5 -34 47.5 -57s18 -52.167 18 -87.5c0 -68 -22.333 -122 -67 -162s-109 -60 -193 -60c-46 0 -88.5 5 -127.5 15s-73.5 24.667 -103.5 44zM359 962.002l67 -60l-166 -139l-40 36z" />
    <glyph glyph-name="sacute" unicode="&#x15b;" horiz-adv-x="453" 
d="M59 94c15.333 -8.66699 36.165 -18.0059 62.498 -28.0059s56.5 -15 90.5 -15c35.333 0 63.333 6 84 18s31 31.667 31 59c0 15.333 -3.33301 27.833 -10 37.5s-15.667 17.667 -27 24s-24.5 11.5 -39.5 15.5l-47.5 13c-18.667 4.66699 -37.167 10.334 -55.5 17.001
s-34.666 15.334 -48.999 26.001s-26 24.334 -35 41.001s-13.5 37.667 -13.5 63c0 22 3.83301 42.333 11.5 61s19.5 34.834 35.5 48.501s35.833 24.5 59.5 32.5s51.5 12 83.5 12s62 -3.83301 90 -11.5s51.333 -16.834 70 -27.501l-28 -61c-42 22.667 -86.333 34 -133 34
c-32.667 0 -58.167 -5.66699 -76.5 -17s-27.5 -29.666 -27.5 -54.999c0 -14.667 3 -26.667 9 -36s14.167 -17.166 24.5 -23.499s22.333 -11.666 36 -15.999s27.834 -8.5 42.501 -12.5l55 -16.5c19.333 -5.66699 37 -14 53 -25s29.167 -25.167 39.5 -42.5s15.5 -40 15.5 -68
c0 -50 -15.833 -89 -47.5 -117s-80.834 -42 -147.501 -42c-44 0 -82.167 5.66699 -114.5 17s-56.166 22 -71.499 32zM306.999 795.994l73 -51l-143 -163l-46 34z" />
    <glyph glyph-name="Scircumflex" unicode="&#x15c;" horiz-adv-x="573" 
d="M71 112c28.667 -17.333 58.167 -30.498 88.5 -39.498s67.166 -13.5 110.499 -13.5c54 0 93.833 11.333 119.5 34s38.5 53 38.5 91c0 24 -4.33301 43.667 -13 59s-20.334 28.166 -35.001 38.499s-31.667 18.666 -51 24.999s-39.333 12.5 -60 18.5
c-25.333 6.66699 -50.666 14.334 -75.999 23.001s-48.166 20.334 -68.499 35.001s-36.833 34 -49.5 58s-19 55 -19 93c0 27.333 5 53.166 15 77.499s25.333 45.833 46 64.5s46.667 33.334 78 44.001s68 16 110 16c19.333 0 38.833 -1.5 58.5 -4.5s38.5 -7 56.5 -12
s34.667 -10.667 50 -17s29 -13.166 41 -20.499l-35 -67c-22 14 -47.833 25.5 -77.5 34.5s-59.167 13.5 -88.5 13.5c-52 0 -91.5 -10 -118.5 -30s-40.5 -49 -40.5 -87c0 -22.667 4.66699 -41.334 14 -56.001s22 -26.834 38 -36.501s34.167 -17.834 54.5 -24.501l63.5 -20
c24.667 -7.33301 49.167 -15.5 73.5 -24.5s46.333 -21 66 -36s35.5 -34 47.5 -57s18 -52.167 18 -87.5c0 -68 -22.333 -122 -67 -162s-109 -60 -193 -60c-46 0 -88.5 5 -127.5 15s-73.5 24.667 -103.5 44zM271 924.002h77l97 -124l-40 -35l-96 83l-98 -83l-42 34z" />
    <glyph glyph-name="scircumflex" unicode="&#x15d;" horiz-adv-x="453" 
d="M59 94c15.333 -8.66699 36.165 -18.0059 62.498 -28.0059s56.5 -15 90.5 -15c35.333 0 63.333 6 84 18s31 31.667 31 59c0 15.333 -3.33301 27.833 -10 37.5s-15.667 17.667 -27 24s-24.5 11.5 -39.5 15.5l-47.5 13c-18.667 4.66699 -37.167 10.334 -55.5 17.001
s-34.666 15.334 -48.999 26.001s-26 24.334 -35 41.001s-13.5 37.667 -13.5 63c0 22 3.83301 42.333 11.5 61s19.5 34.834 35.5 48.501s35.833 24.5 59.5 32.5s51.5 12 83.5 12s62 -3.83301 90 -11.5s51.333 -16.834 70 -27.501l-28 -61c-42 22.667 -86.333 34 -133 34
c-32.667 0 -58.167 -5.66699 -76.5 -17s-27.5 -29.666 -27.5 -54.999c0 -14.667 3 -26.667 9 -36s14.167 -17.166 24.5 -23.499s22.333 -11.666 36 -15.999s27.834 -8.5 42.501 -12.5l55 -16.5c19.333 -5.66699 37 -14 53 -25s29.167 -25.167 39.5 -42.5s15.5 -40 15.5 -68
c0 -50 -15.833 -89 -47.5 -117s-80.834 -42 -147.501 -42c-44 0 -82.167 5.66699 -114.5 17s-56.166 22 -71.499 32zM197.999 773.994h77l105 -168l-46 -31l-97 119l-100 -118l-47 32z" />
    <glyph glyph-name="Scedilla" unicode="&#x15e;" horiz-adv-x="573" 
d="M183 -156c10.667 -5.33301 23.332 -10.832 37.999 -16.499s30.334 -8.5 47.001 -8.5c14.667 0 26.334 3.66699 35.001 11s13 17 13 29c0 20.667 -8.16699 34 -24.5 40s-37.166 9 -62.499 9l19 74c-42 1.33301 -81 6.83301 -117 16.5s-68 23.834 -96 42.501l36 71
c28.667 -17.333 58.167 -30.5 88.5 -39.5s67.166 -13.5 110.499 -13.5c54 0 93.833 11.333 119.5 34s38.5 53 38.5 91c0 24 -4.33301 43.667 -13 59s-20.334 28.166 -35.001 38.499s-31.667 18.666 -51 24.999s-39.333 12.5 -60 18.5
c-25.333 6.66699 -50.666 14.334 -75.999 23.001s-48.166 20.334 -68.499 35.001s-36.833 34 -49.5 58s-19 55 -19 93c0 27.333 5 53.166 15 77.499s25.333 45.833 46 64.5s46.667 33.334 78 44.001s68 16 110 16c19.333 0 38.833 -1.5 58.5 -4.5s38.5 -7 56.5 -12
s34.667 -10.667 50 -17s29 -13.166 41 -20.499l-35 -67c-22 14 -47.833 25.5 -77.5 34.5s-59.167 13.5 -88.5 13.5c-52 0 -91.5 -10 -118.5 -30s-40.5 -49 -40.5 -87c0 -22.667 4.66699 -41.334 14 -56.001s22 -26.834 38 -36.501s34.167 -17.834 54.5 -24.501l63.5 -20
c24.667 -7.33301 49.167 -15.5 73.5 -24.5s46.333 -21 66 -36s35.5 -34 47.5 -57s18 -52.167 18 -87.5c0 -60.667 -17.833 -110.167 -53.5 -148.5s-86.834 -61.833 -153.501 -70.5l-9 -35c12 -1.33301 23.5 -3.83301 34.5 -7.5s20.833 -9 29.5 -16s15.667 -15.667 21 -26
s8 -22.833 8 -37.5c0 -30 -10.5 -54.667 -31.5 -74s-52.5 -29 -94.5 -29c-20.667 0 -42.334 3 -65.001 9s-40.667 13.667 -54 23z" />
    <glyph glyph-name="scedilla" unicode="&#x15f;" horiz-adv-x="453" 
d="M121 -156c10.667 -5.33301 23.3301 -10.8408 37.9971 -16.5078s30.334 -8.5 47.001 -8.5c14.667 0 26.334 3.66699 35.001 11s13 17 13 29c0 20.667 -8.16699 34 -24.5 40s-37.166 9 -62.499 9l19 76c-37.333 2.66699 -69.5 8.83398 -96.5 18.501
s-47.167 19.167 -60.5 28.5l30 63c15.333 -8.66699 36.166 -18 62.499 -28s56.5 -15 90.5 -15c35.333 0 63.333 6 84 18s31 31.667 31 59c0 15.333 -3.33301 27.833 -10 37.5s-15.667 17.667 -27 24s-24.5 11.5 -39.5 15.5l-47.5 13
c-18.667 4.66699 -37.167 10.334 -55.5 17.001s-34.666 15.334 -48.999 26.001s-26 24.334 -35 41.001s-13.5 37.667 -13.5 63c0 22 3.83301 42.333 11.5 61s19.5 34.834 35.5 48.501s35.833 24.5 59.5 32.5s51.5 12 83.5 12s62 -3.83301 90 -11.5
s51.333 -16.834 70 -27.501l-28 -61c-42 22.667 -86.333 34 -133 34c-32.667 0 -58.167 -5.66699 -76.5 -17s-27.5 -29.666 -27.5 -54.999c0 -14.667 3 -26.667 9 -36s14.167 -17.166 24.5 -23.499s22.333 -11.666 36 -15.999s27.834 -8.5 42.501 -12.5l55 -16.5
c19.333 -5.66699 37 -14 53 -25s29.167 -25.167 39.5 -42.5s15.5 -40 15.5 -68c0 -44 -12.667 -79.667 -38 -107s-64 -43.666 -116 -48.999l-8 -35c12 -1.33301 23.5 -3.83301 34.5 -7.5s20.833 -9 29.5 -16s15.667 -15.667 21 -26s8 -22.833 8 -37.5
c0 -30 -10.5 -54.667 -31.5 -74s-52.5 -29 -94.5 -29c-20.667 0 -42.334 3 -65.001 9s-40.667 13.667 -54 23z" />
    <glyph glyph-name="Scaron" unicode="&#x160;" horiz-adv-x="573" 
d="M71 112c28.667 -17.333 58.167 -30.498 88.5 -39.498s67.166 -13.5 110.499 -13.5c54 0 93.833 11.333 119.5 34s38.5 53 38.5 91c0 24 -4.33301 43.667 -13 59s-20.334 28.166 -35.001 38.499s-31.667 18.666 -51 24.999s-39.333 12.5 -60 18.5
c-25.333 6.66699 -50.666 14.334 -75.999 23.001s-48.166 20.334 -68.499 35.001s-36.833 34 -49.5 58s-19 55 -19 93c0 27.333 5 53.166 15 77.499s25.333 45.833 46 64.5s46.667 33.334 78 44.001s68 16 110 16c19.333 0 38.833 -1.5 58.5 -4.5s38.5 -7 56.5 -12
s34.667 -10.667 50 -17s29 -13.166 41 -20.499l-35 -67c-22 14 -47.833 25.5 -77.5 34.5s-59.167 13.5 -88.5 13.5c-52 0 -91.5 -10 -118.5 -30s-40.5 -49 -40.5 -87c0 -22.667 4.66699 -41.334 14 -56.001s22 -26.834 38 -36.501s34.167 -17.834 54.5 -24.501l63.5 -20
c24.667 -7.33301 49.167 -15.5 73.5 -24.5s46.333 -21 66 -36s35.5 -34 47.5 -57s18 -52.167 18 -87.5c0 -68 -22.333 -122 -67 -162s-109 -60 -193 -60c-46 0 -88.5 5 -127.5 15s-73.5 24.667 -103.5 44zM166 889.002l42 35l96 -83l98 83l40 -34l-102 -125h-77z" />
    <glyph glyph-name="scaron" unicode="&#x161;" horiz-adv-x="453" 
d="M59 94c15.333 -8.66699 36.165 -18.0059 62.498 -28.0059s56.5 -15 90.5 -15c35.333 0 63.333 6 84 18s31 31.667 31 59c0 15.333 -3.33301 27.833 -10 37.5s-15.667 17.667 -27 24s-24.5 11.5 -39.5 15.5l-47.5 13c-18.667 4.66699 -37.167 10.334 -55.5 17.001
s-34.666 15.334 -48.999 26.001s-26 24.334 -35 41.001s-13.5 37.667 -13.5 63c0 22 3.83301 42.333 11.5 61s19.5 34.834 35.5 48.501s35.833 24.5 59.5 32.5s51.5 12 83.5 12s62 -3.83301 90 -11.5s51.333 -16.834 70 -27.501l-28 -61c-42 22.667 -86.333 34 -133 34
c-32.667 0 -58.167 -5.66699 -76.5 -17s-27.5 -29.666 -27.5 -54.999c0 -14.667 3 -26.667 9 -36s14.167 -17.166 24.5 -23.499s22.333 -11.666 36 -15.999s27.834 -8.5 42.501 -12.5l55 -16.5c19.333 -5.66699 37 -14 53 -25s29.167 -25.167 39.5 -42.5s15.5 -40 15.5 -68
c0 -50 -15.833 -89 -47.5 -117s-80.834 -42 -147.501 -42c-44 0 -82.167 5.66699 -114.5 17s-56.166 22 -71.499 32zM95.999 746.994l47 32l100 -118l97 119l46 -31l-105 -168h-77z" />
    <glyph glyph-name="Tcommaaccent" unicode="&#x162;" horiz-adv-x="549" 
d="M225 647h-205v74h509v-74h-206v-647h-98v647zM223 -68l94 -21l-65 -183l-57 13z" />
    <glyph glyph-name="tcommaaccent" unicode="&#x163;" horiz-adv-x="384" 
d="M109 433l-91.0029 -0.000976562v68h94v149h90v-149h148v-68h-148v-289c0 -19.333 1.66699 -34.833 5 -46.5s8.16602 -20.667 14.499 -27s13.833 -10.666 22.5 -12.999s18.334 -3.5 29.001 -3.5s22.834 1.33301 36.501 4s26.834 6.66699 39.501 12l20 -61
c-11.333 -6 -27.333 -11.5 -48 -16.5s-41.667 -7.5 -63 -7.5c-23.333 0 -44.166 2.33301 -62.499 7s-33.833 12.5 -46.5 23.5s-22.5 26 -29.5 45s-10.5 42.833 -10.5 71.5v301zM190.997 -68.001l94 -21l-65 -183l-57 13z" />
    <glyph glyph-name="Tcaron" unicode="&#x164;" horiz-adv-x="549" 
d="M225 647h-205v74h509v-74h-206v-647h-98v647zM141 889l42 35l96 -83l98 83l40 -34l-102 -125h-77z" />
    <glyph glyph-name="tcaron" unicode="&#x165;" horiz-adv-x="384" 
d="M109 433l-91.0029 -0.000976562v68h94v149h90v-149h148v-68h-148v-289c0 -19.333 1.66699 -34.833 5 -46.5s8.16602 -20.667 14.499 -27s13.833 -10.666 22.5 -12.999s18.334 -3.5 29.001 -3.5s22.834 1.33301 36.501 4s26.834 6.66699 39.501 12l20 -61
c-11.333 -6 -27.333 -11.5 -48 -16.5s-41.667 -7.5 -63 -7.5c-23.333 0 -44.166 2.33301 -62.499 7s-33.833 12.5 -46.5 23.5s-22.5 26 -29.5 45s-10.5 42.833 -10.5 71.5v301zM280.997 798.999h88l-34 -229h-54v229z" />
    <glyph glyph-name="Tbar" unicode="&#x166;" horiz-adv-x="549" 
d="M225 329h-131v71h131v247h-205v74h509v-74h-206v-247h131v-71h-131v-329h-98v329z" />
    <glyph glyph-name="tbar" unicode="&#x167;" horiz-adv-x="384" 
d="M109 240l-91.0029 -0.000976562v68h91v125h-91v68h94v149h90v-149h148v-68h-148v-125h148v-68h-148v-96c0 -19.333 1.66699 -34.833 5 -46.5s8.16602 -20.667 14.499 -27s13.833 -10.666 22.5 -12.999s18.334 -3.5 29.001 -3.5s22.834 1.33301 36.501 4
s26.834 6.66699 39.501 12l20 -61c-11.333 -6 -27.333 -11.5 -48 -16.5s-41.667 -7.5 -63 -7.5c-23.333 0 -44.166 2.33301 -62.499 7s-33.833 12.5 -46.5 23.5s-22.5 26 -29.5 45s-10.5 42.833 -10.5 71.5v108z" />
    <glyph glyph-name="Utilde" unicode="&#x168;" horiz-adv-x="688" 
d="M86 721h98.0029v-433c0 -35.333 1.66699 -67.333 5 -96s10.5 -53 21.5 -73s27 -35.333 48 -46s49.167 -16 84.5 -16s64.166 5 86.499 15s39.666 24.667 51.999 44s20.833 43 25.5 71s7 60.333 7 97v437h88v-439c0 -44 -4 -84.5 -12 -121.5s-22 -68.667 -42 -95
s-46.833 -46.833 -80.5 -61.5s-76.167 -22 -127.5 -22c-50.667 0 -92.334 6.33301 -125.001 19s-58.5 31.167 -77.5 55.5s-32.333 54.5 -40 90.5s-11.5 77.333 -11.5 124v450zM168.003 782c0 40 6.50098 71.499 19.501 94.499s35.167 34.5 66.5 34.5
c11.333 0 23.833 -1.66699 37.5 -5s27.167 -7.66602 40.5 -12.999l42 -16c13.333 -5.33301 25.166 -9.83301 35.499 -13.5s19.5 -5.5 27.5 -5.5c12.667 0 22 3.83301 28 11.5s9 22.5 9 44.5h57c0 -86.667 -27.667 -130 -83 -130c-15.333 0 -29.666 2 -42.999 6
s-27.666 8.66699 -42.999 14l-37 14c-12.667 5.33301 -24.834 9.83301 -36.501 13.5s-21.834 5.5 -30.501 5.5c-12.667 0 -21.5 -3.66699 -26.5 -11s-7.5 -22 -7.5 -44h-56z" />
    <glyph glyph-name="utilde" unicode="&#x169;" horiz-adv-x="558" 
d="M70 501l93.0039 -0.00195312v-326c0 -39.333 7.5 -69.666 22.5 -90.999s40.167 -32 75.5 -32c29.333 0 53.166 4.66699 71.499 14s35.5 21 51.5 35v400h93v-406l41 -61l-67 -50l-46 56c-26.667 -20.667 -52.5 -35.5 -77.5 -44.5s-52.5 -13.5 -82.5 -13.5
c-36.667 0 -66.334 5.16699 -89.001 15.5s-40.334 24.333 -53.001 42s-21.334 38.334 -26.001 62.001s-7 48.5 -7 74.5v325zM93.0039 599.998c0 40 6.50098 71.499 19.501 94.499s35.167 34.5 66.5 34.5c11.333 0 23.833 -1.66699 37.5 -5s27.167 -7.66602 40.5 -12.999
l42 -16c13.333 -5.33301 25.166 -9.83301 35.499 -13.5s19.5 -5.5 27.5 -5.5c12.667 0 22 3.83301 28 11.5s9 22.5 9 44.5h57c0 -86.667 -27.667 -130 -83 -130c-15.333 0 -29.666 2 -42.999 6s-27.666 8.66699 -42.999 14l-37 14
c-12.667 5.33301 -24.834 9.83301 -36.501 13.5s-21.834 5.5 -30.501 5.5c-12.667 0 -21.5 -3.66699 -26.5 -11s-7.5 -22 -7.5 -44h-56z" />
    <glyph glyph-name="Umacron" unicode="&#x16a;" horiz-adv-x="688" 
d="M86 721h98.0029v-433c0 -35.333 1.66699 -67.333 5 -96s10.5 -53 21.5 -73s27 -35.333 48 -46s49.167 -16 84.5 -16s64.166 5 86.499 15s39.666 24.667 51.999 44s20.833 43 25.5 71s7 60.333 7 97v437h88v-439c0 -44 -4 -84.5 -12 -121.5s-22 -68.667 -42 -95
s-46.833 -46.833 -80.5 -61.5s-76.167 -22 -127.5 -22c-50.667 0 -92.334 6.33301 -125.001 19s-58.5 31.167 -77.5 55.5s-32.333 54.5 -40 90.5s-11.5 77.333 -11.5 124v450zM192.003 863h313v-73h-313v73z" />
    <glyph glyph-name="umacron" unicode="&#x16b;" horiz-adv-x="558" 
d="M70 501l93.0039 -0.00195312v-326c0 -39.333 7.5 -69.666 22.5 -90.999s40.167 -32 75.5 -32c29.333 0 53.166 4.66699 71.499 14s35.5 21 51.5 35v400h93v-406l41 -61l-67 -50l-46 56c-26.667 -20.667 -52.5 -35.5 -77.5 -44.5s-52.5 -13.5 -82.5 -13.5
c-36.667 0 -66.334 5.16699 -89.001 15.5s-40.334 24.333 -53.001 42s-21.334 38.334 -26.001 62.001s-7 48.5 -7 74.5v325zM115.004 689.998h313v-75h-313v75z" />
    <glyph glyph-name="Ubreve" unicode="&#x16c;" horiz-adv-x="688" 
d="M86 721h98.0029v-433c0 -35.333 1.66699 -67.333 5 -96s10.5 -53 21.5 -73s27 -35.333 48 -46s49.167 -16 84.5 -16s64.166 5 86.499 15s39.666 24.667 51.999 44s20.833 43 25.5 71s7 60.333 7 97v437h88v-439c0 -44 -4 -84.5 -12 -121.5s-22 -68.667 -42 -95
s-46.833 -46.833 -80.5 -61.5s-76.167 -22 -127.5 -22c-50.667 0 -92.334 6.33301 -125.001 19s-58.5 31.167 -77.5 55.5s-32.333 54.5 -40 90.5s-11.5 77.333 -11.5 124v450zM269.003 909c7.33301 -18 17.499 -32.5 30.499 -43.5s33.167 -16.5 60.5 -16.5
c24.667 0 43.834 5 57.501 15s24.5 25 32.5 45l58 -18c-9.33301 -38 -27.333 -66.167 -54 -84.5s-58 -27.5 -94 -27.5s-67.833 8.83301 -95.5 26.5s-45.167 45.5 -52.5 83.5z" />
    <glyph glyph-name="ubreve" unicode="&#x16d;" horiz-adv-x="558" 
d="M70 501l93.0039 -0.00195312v-326c0 -39.333 7.5 -69.666 22.5 -90.999s40.167 -32 75.5 -32c29.333 0 53.166 4.66699 71.499 14s35.5 21 51.5 35v400h93v-406l41 -61l-67 -50l-46 56c-26.667 -20.667 -52.5 -35.5 -77.5 -44.5s-52.5 -13.5 -82.5 -13.5
c-36.667 0 -66.334 5.16699 -89.001 15.5s-40.334 24.333 -53.001 42s-21.334 38.334 -26.001 62.001s-7 48.5 -7 74.5v325zM191.004 720.998c7.33301 -18 17.499 -32.5 30.499 -43.5s33.167 -16.5 60.5 -16.5c24.667 0 43.834 5 57.501 15s24.5 25 32.5 45l58 -18
c-9.33301 -38 -27.333 -66.167 -54 -84.5s-58 -27.5 -94 -27.5s-67.833 8.83301 -95.5 26.5s-45.167 45.5 -52.5 83.5z" />
    <glyph glyph-name="Uring" unicode="&#x16e;" horiz-adv-x="688" 
d="M86 721h98.0029v-433c0 -35.333 1.66699 -67.333 5 -96s10.5 -53 21.5 -73s27 -35.333 48 -46s49.167 -16 84.5 -16s64.166 5 86.499 15s39.666 24.667 51.999 44s20.833 43 25.5 71s7 60.333 7 97v437h88v-439c0 -44 -4 -84.5 -12 -121.5s-22 -68.667 -42 -95
s-46.833 -46.833 -80.5 -61.5s-76.167 -22 -127.5 -22c-50.667 0 -92.334 6.33301 -125.001 19s-58.5 31.167 -77.5 55.5s-32.333 54.5 -40 90.5s-11.5 77.333 -11.5 124v450zM358.003 822c18.667 0 34.167 6.5 46.5 19.5s18.5 28.5 18.5 46.5s-6.33301 33.5 -19 46.5
s-28 19.5 -46 19.5s-33.333 -6.5 -46 -19.5s-19 -28.5 -19 -46.5s6.16699 -33.5 18.5 -46.5s27.833 -19.5 46.5 -19.5zM229.003 888c0 18 3.33301 34.833 10 50.5s15.834 29.334 27.501 41.001s25.334 20.834 41.001 27.501s32.5 10 50.5 10s34.833 -3.33301 50.5 -10
s29.334 -15.834 41.001 -27.501s20.834 -25.334 27.501 -41.001s10 -32.5 10 -50.5s-3.33301 -34.833 -10 -50.5s-15.834 -29.334 -27.501 -41.001s-25.334 -20.834 -41.001 -27.501s-32.5 -10 -50.5 -10s-34.833 3.33301 -50.5 10s-29.334 15.834 -41.001 27.501
s-20.834 25.334 -27.501 41.001s-10 32.5 -10 50.5z" />
    <glyph glyph-name="uring" unicode="&#x16f;" horiz-adv-x="558" 
d="M70 501l93.0039 -0.00195312v-326c0 -39.333 7.5 -69.666 22.5 -90.999s40.167 -32 75.5 -32c29.333 0 53.166 4.66699 71.499 14s35.5 21 51.5 35v400h93v-406l41 -61l-67 -50l-46 56c-26.667 -20.667 -52.5 -35.5 -77.5 -44.5s-52.5 -13.5 -82.5 -13.5
c-36.667 0 -66.334 5.16699 -89.001 15.5s-40.334 24.333 -53.001 42s-21.334 38.334 -26.001 62.001s-7 48.5 -7 74.5v325zM281.004 643.998c18.667 0 34.167 6.5 46.5 19.5s18.5 28.5 18.5 46.5s-6.33301 33.5 -19 46.5s-28 19.5 -46 19.5s-33.333 -6.5 -46 -19.5
s-19 -28.5 -19 -46.5s6.16699 -33.5 18.5 -46.5s27.833 -19.5 46.5 -19.5zM152.004 709.998c0 18 3.33301 34.833 10 50.5s15.834 29.334 27.501 41.001s25.334 20.834 41.001 27.501s32.5 10 50.5 10s34.833 -3.33301 50.5 -10s29.334 -15.834 41.001 -27.501
s20.834 -25.334 27.501 -41.001s10 -32.5 10 -50.5s-3.33301 -34.833 -10 -50.5s-15.834 -29.334 -27.501 -41.001s-25.334 -20.834 -41.001 -27.501s-32.5 -10 -50.5 -10s-34.833 3.33301 -50.5 10s-29.334 15.834 -41.001 27.501s-20.834 25.334 -27.501 41.001
s-10 32.5 -10 50.5z" />
    <glyph glyph-name="Uhungarumlaut" unicode="&#x170;" horiz-adv-x="688" 
d="M86 721h98.0029v-433c0 -35.333 1.66699 -67.333 5 -96s10.5 -53 21.5 -73s27 -35.333 48 -46s49.167 -16 84.5 -16s64.166 5 86.499 15s39.666 24.667 51.999 44s20.833 43 25.5 71s7 60.333 7 97v437h88v-439c0 -44 -4 -84.5 -12 -121.5s-22 -68.667 -42 -95
s-46.833 -46.833 -80.5 -61.5s-76.167 -22 -127.5 -22c-50.667 0 -92.334 6.33301 -125.001 19s-58.5 31.167 -77.5 55.5s-32.333 54.5 -40 90.5s-11.5 77.333 -11.5 124v450zM489.003 968l72 -52l-135 -153l-45 31zM327.003 968l72 -52l-135 -153l-46 31z" />
    <glyph glyph-name="uhungarumlaut" unicode="&#x171;" horiz-adv-x="558" 
d="M70 501l93.0039 -0.00195312v-326c0 -39.333 7.5 -69.666 22.5 -90.999s40.167 -32 75.5 -32c29.333 0 53.166 4.66699 71.499 14s35.5 21 51.5 35v400h93v-406l41 -61l-67 -50l-46 56c-26.667 -20.667 -52.5 -35.5 -77.5 -44.5s-52.5 -13.5 -82.5 -13.5
c-36.667 0 -66.334 5.16699 -89.001 15.5s-40.334 24.333 -53.001 42s-21.334 38.334 -26.001 62.001s-7 48.5 -7 74.5v325zM439.004 795.998l73 -51l-143 -163l-46 34zM263.004 795.998l73 -51l-143 -163l-46 34z" />
    <glyph glyph-name="Uogonek" unicode="&#x172;" horiz-adv-x="688" 
d="M474 -230c-31.333 4 -57.4961 8.83594 -78.4961 14.5029s-38 12.5 -51 20.5s-22.167 17.167 -27.5 27.5s-8 22.166 -8 35.499c0 10 1.66699 19.5 5 28.5s8 18.167 14 27.5c7.33301 11.333 14.5 21.666 21.5 30.999l21.5 28c-5.33301 0 -10.5 -0.166992 -15.5 -0.5
s-10.167 -0.5 -15.5 -0.5c-50.667 0 -92.334 6.33301 -125.001 19s-58.5 31.167 -77.5 55.5s-32.333 54.5 -40 90.5s-11.5 77.333 -11.5 124v450h98v-433c0 -35.333 1.66699 -67.333 5 -96s10.5 -53 21.5 -73s27 -35.333 48 -46s49.167 -16 84.5 -16s64.166 5 86.499 15
s39.666 24.667 51.999 44s20.833 43 25.5 71s7 60.333 7 97v437h88v-439c0 -31.333 -1.83301 -59.5 -5.5 -84.5s-10 -48.333 -19 -70s-20.667 -42 -35 -61s-31.833 -38.167 -52.5 -57.5c-10 -9.33301 -21 -20.5 -33 -33.5s-23.667 -27.833 -35 -44.5
c-4.66699 -6.66699 -9.66699 -14.334 -15 -23.001s-8 -18.667 -8 -30c0 -6.66699 1.16699 -12.667 3.5 -18s6.66602 -10.333 12.999 -15s15.5 -9 27.5 -13s28 -8 48 -12z" />
    <glyph glyph-name="uogonek" unicode="&#x173;" horiz-adv-x="558" 
d="M70 501l93.0059 -0.000976562v-326c0 -39.333 7.5 -69.666 22.5 -90.999s40.167 -32 75.5 -32c29.333 0 53.166 4.66699 71.499 14s35.5 21 51.5 35v400h93v-406l53 -80c-11.333 -12 -22.333 -24.667 -33 -38s-22 -28.666 -34 -45.999
c-4.66699 -6.66699 -9.66699 -14.334 -15 -23.001s-8 -18.667 -8 -30c0 -6.66699 1.16699 -12.667 3.5 -18s6.66602 -10.333 12.999 -15s15.5 -9 27.5 -13s28 -8 48 -12l-17 -50c-31.333 4 -57.5 8.83301 -78.5 14.5s-38 12.5 -51 20.5s-22.167 17.167 -27.5 27.5
s-8 22.166 -8 35.499c0 10 1.66699 19.5 5 28.5s8 18.167 14 27.5l32.5 44c10.333 13.333 21.166 26.333 32.499 39l-29 33c-26.667 -20.667 -52.5 -35.5 -77.5 -44.5s-52.5 -13.5 -82.5 -13.5c-36.667 0 -66.334 5.16699 -89.001 15.5s-40.334 24.333 -53.001 42
s-21.334 38.334 -26.001 62.001s-7 48.5 -7 74.5v325z" />
    <glyph glyph-name="Wcircumflex" unicode="&#x174;" horiz-adv-x="912" 
d="M15 712l98.0029 16.002l142 -632c3.33301 -13.333 5.83301 -22.5 7.5 -27.5s5.5 -7.5 11.5 -7.5c7.33301 0 12.166 2.5 14.499 7.5s5.16602 14.167 8.49902 27.5l125 625h81l138 -625c3.33301 -13.333 6.16602 -22.5 8.49902 -27.5s6.16602 -7.5 11.499 -7.5
c7.33301 0 12 2.5 14 7.5s4.66699 14.167 8 27.5l129 632l85 -16l-129 -624c-15.333 -70.667 -52.333 -106 -111 -106c-17.333 0 -32.166 2 -44.499 6s-22.833 10.167 -31.5 18.5s-15.834 19.166 -21.501 32.499s-10.834 29.666 -15.501 48.999l-87 403l-75 -403
c-9.33301 -39.333 -22.166 -66.833 -38.499 -82.5s-40.166 -23.5 -71.499 -23.5c-35.333 0 -61.5 8.16699 -78.5 24.5s-29.833 43.5 -38.5 81.5zM428.003 924.002h77l97 -124l-40 -35l-96 83l-98 -83l-42 34z" />
    <glyph glyph-name="wcircumflex" unicode="&#x175;" horiz-adv-x="745" 
d="M23 499l92.002 11l89 -437c3.33301 -17.333 8.66602 -26 15.999 -26c5.33301 0 9 2 11 6s4.33301 10.667 7 20l103 428h75l102 -428c3.33301 -17.333 8.33301 -26 15 -26c5.33301 0 9 2 11 6s4 10.667 6 20l98 437l82 -11l-99 -416
c-7.33301 -33.333 -18.5 -58.5 -33.5 -75.5s-36.833 -25.5 -65.5 -25.5c-19.333 0 -34.833 1.83301 -46.5 5.5s-21.334 9.66699 -29.001 18s-13.667 18.833 -18 31.5s-8.5 28 -12.5 46l-55 235l-51 -235c-8 -33.333 -19.5 -58.5 -34.5 -75.5s-36.833 -25.5 -65.5 -25.5
c-19.333 0 -35 1.83301 -47 5.5s-21.667 9.5 -29 17.5s-13.333 18.5 -18 31.5s-9 28.5 -13 46.5zM342.002 774h77l105 -168l-46 -31l-97 119l-100 -118l-47 32z" />
    <glyph glyph-name="Ycircumflex" unicode="&#x176;" horiz-adv-x="569" 
d="M233 279c-8 4 -14.667 8.66699 -20 14s-10.333 11.833 -15 19.5s-9.33398 16.5 -14.001 26.5l-16 34l-153 339l92 18l156 -349c5.33301 -12 9.5 -20.833 12.5 -26.5s6.83301 -8.5 11.5 -8.5s8.5 2.66699 11.5 8l14.5 27l160 347l81 -19l-159 -336
c-11.333 -22 -21.666 -41 -30.999 -57s-20.333 -28 -33 -36v-280h-98v279zM258 924h77l97 -124l-40 -35l-96 83l-98 -83l-42 34z" />
    <glyph glyph-name="ycircumflex" unicode="&#x177;" horiz-adv-x="496" 
d="M66 -138c10.667 -4 24.1719 -8.50098 40.5049 -13.501s35.166 -7.5 56.499 -7.5c25.333 0 45 7.5 59 22.5s24.667 37.5 32 67.5l21 82h-17c-21.333 0 -39.833 2.5 -55.5 7.5s-29.334 13.333 -41.001 25s-21.834 26.667 -30.501 45s-16.667 40.833 -24 67.5l-92 339l92 15
l92 -346c4.66699 -18.667 9.83398 -33.667 15.501 -45s11.667 -20.166 18 -26.499s13.166 -10.5 20.499 -12.5s15.333 -3 24 -3h14l108 433l83 -16l-150 -575c-13.333 -50 -33.5 -86.833 -60.5 -110.5s-63.5 -35.5 -109.5 -35.5c-12 0 -24 1 -36 3s-23.333 4.5 -34 7.5
s-20.334 6 -29.001 9s-15.334 5.83301 -20.001 8.5zM220.005 773.999h77l105 -168l-46 -31l-97 119l-100 -118l-47 32z" />
    <glyph glyph-name="Ydieresis" unicode="&#x178;" horiz-adv-x="569" 
d="M233 279c-8 4 -14.667 8.66699 -20 14s-10.333 11.833 -15 19.5s-9.33398 16.5 -14.001 26.5l-16 34l-153 339l92 18l156 -349c5.33301 -12 9.5 -20.833 12.5 -26.5s6.83301 -8.5 11.5 -8.5s8.5 2.66699 11.5 8l14.5 27l160 347l81 -19l-159 -336
c-11.333 -22 -21.666 -41 -30.999 -57s-20.333 -28 -33 -36v-280h-98v279zM182 779c-21.333 0 -37.166 6.33301 -47.499 19s-15.5 27.667 -15.5 45c0 18 5.16699 33.333 15.5 46s26.166 19 47.499 19c20.667 0 36.167 -6.33301 46.5 -19s15.5 -28 15.5 -46
c0 -17.333 -5.16699 -32.333 -15.5 -45s-25.833 -19 -46.5 -19zM408 779c-21.333 0 -37.166 6.33301 -47.499 19s-15.5 27.667 -15.5 45c0 18 5.16699 33.333 15.5 46s26.166 19 47.499 19c20.667 0 36.167 -6.33301 46.5 -19s15.5 -28 15.5 -46
c0 -17.333 -5.16699 -32.333 -15.5 -45s-25.833 -19 -46.5 -19z" />
    <glyph glyph-name="Zacute" unicode="&#x179;" horiz-adv-x="548" 
d="M525 74v-74h-417c-32 -0 -54.833 6.33301 -68.5 19s-20.5 30.334 -20.5 53.001c0 10 2.5 21.333 7.5 34s14.833 29.667 29.5 51l335 490h-347v74h479v-55l-394 -565c-4.66699 -6.66699 -7 -12.334 -7 -17.001c0 -6.66699 5.33301 -10 16 -10h387zM354 962l67 -60
l-166 -139l-40 36z" />
    <glyph glyph-name="zacute" unicode="&#x17a;" horiz-adv-x="449" 
d="M300 434l-253.001 -0.000976562v67h368v-65l-279 -343c-3.33301 -4 -5.16602 -7.16699 -5.49902 -9.5s-0.5 -3.83301 -0.5 -4.5c0 -7.33301 5.66699 -11 17 -11h271v-68h-305c-28 0 -48.5 6.33301 -61.5 19s-19.5 28.667 -19.5 48c0 12.667 2 24.334 6 35.001
s11.667 23 23 37zM299.999 795.999l73 -51l-143 -163l-46 34z" />
    <glyph glyph-name="Zdotaccent" unicode="&#x17b;" horiz-adv-x="548" 
d="M525 74v-74h-417c-32 -0 -54.833 6.33301 -68.5 19s-20.5 30.334 -20.5 53.001c0 10 2.5 21.333 7.5 34s14.833 29.667 29.5 51l335 490h-347v74h479v-55l-394 -565c-4.66699 -6.66699 -7 -12.334 -7 -17.001c0 -6.66699 5.33301 -10 16 -10h387zM292 778
c-19.333 0 -34.5 6.33301 -45.5 19s-16.5 28.667 -16.5 48s5.5 35.5 16.5 48.5s26.167 19.5 45.5 19.5c20 0 35.5 -6.5 46.5 -19.5s16.5 -29.167 16.5 -48.5s-5.5 -35.333 -16.5 -48s-26.5 -19 -46.5 -19z" />
    <glyph glyph-name="zdotaccent" unicode="&#x17c;" horiz-adv-x="449" 
d="M300 434l-253.001 -0.000976562v67h368v-65l-279 -343c-3.33301 -4 -5.16602 -7.16699 -5.49902 -9.5s-0.5 -3.83301 -0.5 -4.5c0 -7.33301 5.66699 -11 17 -11h271v-68h-305c-28 0 -48.5 6.33301 -61.5 19s-19.5 28.667 -19.5 48c0 12.667 2 24.334 6 35.001
s11.667 23 23 37zM242.999 593.999c-19.333 0 -34.5 6.33301 -45.5 19s-16.5 28.667 -16.5 48s5.5 35.5 16.5 48.5s26.167 19.5 45.5 19.5c20 0 35.5 -6.5 46.5 -19.5s16.5 -29.167 16.5 -48.5s-5.5 -35.333 -16.5 -48s-26.5 -19 -46.5 -19z" />
    <glyph glyph-name="Zcaron" unicode="&#x17d;" horiz-adv-x="548" 
d="M525 74v-74h-417c-32 -0 -54.833 6.33301 -68.5 19s-20.5 30.334 -20.5 53.001c0 10 2.5 21.333 7.5 34s14.833 29.667 29.5 51l335 490h-347v74h479v-55l-394 -565c-4.66699 -6.66699 -7 -12.334 -7 -17.001c0 -6.66699 5.33301 -10 16 -10h387zM155 889l42 35l96 -83
l98 83l40 -34l-102 -125h-77z" />
    <glyph glyph-name="zcaron" unicode="&#x17e;" horiz-adv-x="449" 
d="M300 434l-253.001 -0.000976562v67h368v-65l-279 -343c-3.33301 -4 -5.16602 -7.16699 -5.49902 -9.5s-0.5 -3.83301 -0.5 -4.5c0 -7.33301 5.66699 -11 17 -11h271v-68h-305c-28 0 -48.5 6.33301 -61.5 19s-19.5 28.667 -19.5 48c0 12.667 2 24.334 6 35.001
s11.667 23 23 37zM94.999 746.999l47 32l100 -118l97 119l46 -31l-105 -168h-77z" />
    <glyph glyph-name="longs" unicode="&#x17f;" horiz-adv-x="352" 
d="M99 553c0 24.667 2.66797 48.167 8.00098 70.5s14.5 41.833 27.5 58.5s30.333 29.834 52 39.501s48.834 14.5 81.501 14.5c17.333 0 35.666 -2.33301 54.999 -7s37.333 -11 54 -19l-24 -59c-6.66699 3.33301 -17 7.16602 -31 11.499s-29.667 6.5 -47 6.5
c-18.667 0 -33.5 -3 -44.5 -9s-19.333 -14.5 -25 -25.5s-9.33398 -24.333 -11.001 -40s-2.5 -33.167 -2.5 -52.5v-542h-93v553z" />
    <glyph glyph-name="florin" unicode="&#x192;" horiz-adv-x="594" 
d="M-39 -140c13.333 -4.66699 28.833 -8.99902 46.5 -12.999s36.5 -6 56.5 -6c17.333 0 31.833 2.33301 43.5 7s21.334 11.667 29.001 21s13.667 20.666 18 33.999s8.16602 29 11.499 47l68 389h-103l11 68h104l26 147c9.33301 54 29.666 95.333 60.999 124
s76.333 43 135 43c24 0 46.333 -2.66699 67 -8s37.667 -11.333 51 -18l-25 -58c-17.333 6 -33 10.5 -47 13.5s-29.667 4.5 -47 4.5c-19.333 0 -35 -3 -47 -9s-21.667 -14 -29 -24s-13 -21.5 -17 -34.5s-7.33301 -26.5 -10 -40.5l-25 -140h141l-12 -68h-141l-69 -396
c-9.33301 -52 -28.666 -93 -57.999 -123s-72 -45 -128 -45c-27.333 0 -53.333 2.83301 -78 8.5s-42.667 11.167 -54 16.5z" />
    <glyph glyph-name="Scommaaccent" unicode="&#x218;" horiz-adv-x="573" 
d="M71 112c28.667 -17.333 58.167 -30.498 88.5 -39.498s67.166 -13.5 110.499 -13.5c54 0 93.833 11.333 119.5 34s38.5 53 38.5 91c0 24 -4.33301 43.667 -13 59s-20.334 28.166 -35.001 38.499s-31.667 18.666 -51 24.999s-39.333 12.5 -60 18.5
c-25.333 6.66699 -50.666 14.334 -75.999 23.001s-48.166 20.334 -68.499 35.001s-36.833 34 -49.5 58s-19 55 -19 93c0 27.333 5 53.166 15 77.499s25.333 45.833 46 64.5s46.667 33.334 78 44.001s68 16 110 16c19.333 0 38.833 -1.5 58.5 -4.5s38.5 -7 56.5 -12
s34.667 -10.667 50 -17s29 -13.166 41 -20.499l-35 -67c-22 14 -47.833 25.5 -77.5 34.5s-59.167 13.5 -88.5 13.5c-52 0 -91.5 -10 -118.5 -30s-40.5 -49 -40.5 -87c0 -22.667 4.66699 -41.334 14 -56.001s22 -26.834 38 -36.501s34.167 -17.834 54.5 -24.501l63.5 -20
c24.667 -7.33301 49.167 -15.5 73.5 -24.5s46.333 -21 66 -36s35.5 -34 47.5 -57s18 -52.167 18 -87.5c0 -68 -22.333 -122 -67 -162s-109 -60 -193 -60c-46 0 -88.5 5 -127.5 15s-73.5 24.667 -103.5 44zM220 -67.998l94 -21l-65 -183l-57 13z" />
    <glyph glyph-name="scommaaccent" unicode="&#x219;" horiz-adv-x="453" 
d="M59 94c15.333 -8.66699 36.165 -18.0059 62.498 -28.0059s56.5 -15 90.5 -15c35.333 0 63.333 6 84 18s31 31.667 31 59c0 15.333 -3.33301 27.833 -10 37.5s-15.667 17.667 -27 24s-24.5 11.5 -39.5 15.5l-47.5 13c-18.667 4.66699 -37.167 10.334 -55.5 17.001
s-34.666 15.334 -48.999 26.001s-26 24.334 -35 41.001s-13.5 37.667 -13.5 63c0 22 3.83301 42.333 11.5 61s19.5 34.834 35.5 48.501s35.833 24.5 59.5 32.5s51.5 12 83.5 12s62 -3.83301 90 -11.5s51.333 -16.834 70 -27.501l-28 -61c-42 22.667 -86.333 34 -133 34
c-32.667 0 -58.167 -5.66699 -76.5 -17s-27.5 -29.666 -27.5 -54.999c0 -14.667 3 -26.667 9 -36s14.167 -17.166 24.5 -23.499s22.333 -11.666 36 -15.999s27.834 -8.5 42.501 -12.5l55 -16.5c19.333 -5.66699 37 -14 53 -25s29.167 -25.167 39.5 -42.5s15.5 -40 15.5 -68
c0 -50 -15.833 -89 -47.5 -117s-80.834 -42 -147.501 -42c-44 0 -82.167 5.66699 -114.5 17s-56.166 22 -71.499 32zM177.999 -68.0059l94 -21l-65 -183l-57 13z" />
    <glyph glyph-name="uni021A" unicode="&#x21a;" horiz-adv-x="549" 
d="M225 647h-205v74h509v-74h-206v-647h-98v647zM222 -68l94 -21l-65 -183l-57 13z" />
    <glyph glyph-name="uni021B" unicode="&#x21b;" horiz-adv-x="384" 
d="M109 433l-91.0029 -0.000976562v68h94v149h90v-149h148v-68h-148v-289c0 -19.333 1.66699 -34.833 5 -46.5s8.16602 -20.667 14.499 -27s13.833 -10.666 22.5 -12.999s18.334 -3.5 29.001 -3.5s22.834 1.33301 36.501 4s26.834 6.66699 39.501 12l20 -61
c-11.333 -6 -27.333 -11.5 -48 -16.5s-41.667 -7.5 -63 -7.5c-23.333 0 -44.166 2.33301 -62.499 7s-33.833 12.5 -46.5 23.5s-22.5 26 -29.5 45s-10.5 42.833 -10.5 71.5v301zM182.997 -68.001l94 -21l-65 -183l-57 13z" />
    <glyph glyph-name="dotlessj" unicode="&#x237;" horiz-adv-x="258" 
d="M-82 -136c12.667 -4.66699 25.501 -9.16895 38.501 -13.502s29.167 -6.5 48.5 -6.5c18.667 0 33.334 4.16699 44.001 12.5s18.667 19 24 32s8.66602 27.5 9.99902 43.5s2 31.333 2 46v523h93v-540c0 -23.333 -2.5 -46.166 -7.5 -68.499s-13.833 -42.166 -26.5 -59.499
s-29.667 -31.333 -51 -42s-48.333 -16 -81 -16c-16.667 0 -36.334 2.5 -59.001 7.5s-42 11.5 -58 19.5z" />
    <glyph glyph-name="apostrophe" unicode="&#x2bc;" horiz-adv-x="500" 
d="M226 783l94 -21l-76 -230l-65 16z" />
    <glyph glyph-name="circumflex" unicode="&#x2c6;" horiz-adv-x="500" 
d="M214 774h77l105 -168l-46 -31l-97 119l-100 -118l-47 32z" />
    <glyph glyph-name="caron" unicode="&#x2c7;" horiz-adv-x="500" 
d="M104 747l47 32l100 -118l97 119l46 -31l-105 -168h-77z" />
    <glyph glyph-name="uni02C9" unicode="&#x2c9;" horiz-adv-x="500" 
d="M93 690h313v-75h-313v75z" />
    <glyph glyph-name="breve" unicode="&#x2d8;" horiz-adv-x="500" 
d="M159 721c7.33301 -18 17.499 -32.5 30.499 -43.5s33.167 -16.5 60.5 -16.5c24.667 0 43.834 5 57.501 15s24.5 25 32.5 45l58 -18c-9.33301 -38 -27.333 -66.167 -54 -84.5s-58 -27.5 -94 -27.5s-67.833 8.83301 -95.5 26.5s-45.167 45.5 -52.5 83.5z" />
    <glyph glyph-name="dotaccent" unicode="&#x2d9;" horiz-adv-x="500" 
d="M248 594c-19.333 0 -34.5 6.33301 -45.5 19s-16.5 28.667 -16.5 48s5.5 35.5 16.5 48.5s26.167 19.5 45.5 19.5c20 0 35.5 -6.5 46.5 -19.5s16.5 -29.167 16.5 -48.5s-5.5 -35.333 -16.5 -48s-26.5 -19 -46.5 -19z" />
    <glyph glyph-name="ring" unicode="&#x2da;" horiz-adv-x="500" 
d="M250 644c18.667 0 34.167 6.5 46.5 19.5s18.5 28.5 18.5 46.5s-6.33301 33.5 -19 46.5s-28 19.5 -46 19.5s-33.333 -6.5 -46 -19.5s-19 -28.5 -19 -46.5s6.16699 -33.5 18.5 -46.5s27.833 -19.5 46.5 -19.5zM121 710c0 18 3.33301 34.833 10 50.5
s15.834 29.334 27.501 41.001s25.334 20.834 41.001 27.501s32.5 10 50.5 10s34.833 -3.33301 50.5 -10s29.334 -15.834 41.001 -27.501s20.834 -25.334 27.501 -41.001s10 -32.5 10 -50.5s-3.33301 -34.833 -10 -50.5s-15.834 -29.334 -27.501 -41.001
s-25.334 -20.834 -41.001 -27.501s-32.5 -10 -50.5 -10s-34.833 3.33301 -50.5 10s-29.334 15.834 -41.001 27.501s-20.834 25.334 -27.501 41.001s-10 32.5 -10 50.5z" />
    </font>
</defs>
</svg>
