<?xml version="1.0" standalone="no"?>
<!DOCTYPE svg PUBLIC "-//W3C//DTD SVG 20010904//EN"
 "http://www.w3.org/TR/2001/REC-SVG-20010904/DTD/svg10.dtd">
<svg version="1.0" xmlns="http://www.w3.org/2000/svg"
 width="1200.000000pt" height="1200.000000pt" viewBox="0 0 1200.000000 1200.000000"
 preserveAspectRatio="xMidYMid meet">
<metadata>
Created by potrace 1.11, written by Peter Selinger 2001-2013
</metadata>
<g transform="translate(0.000000,1200.000000) scale(0.100000,-0.100000)"
fill="#000000" stroke="none">
<path d="M5526 10482 c-2 -1 -34 -5 -72 -7 -96 -7 -192 -15 -239 -20 -22 -2
-69 -7 -105 -10 -36 -4 -76 -8 -90 -10 -14 -2 -45 -6 -70 -9 -25 -3 -124 -19
-220 -35 -220 -38 -223 -39 -345 -67 -38 -8 -81 -18 -95 -20 -146 -29 -528
-151 -764 -245 -366 -145 -787 -383 -1031 -583 -27 -23 -54 -44 -60 -49 -104
-77 -350 -329 -457 -467 -152 -198 -294 -443 -363 -630 -1 -3 -7 -18 -14 -34
-50 -122 -120 -393 -136 -531 -1 -11 -3 -20 -4 -20 -2 0 -6 -36 -16 -160 -9
-101 -9 -296 -1 -400 7 -76 9 -94 22 -167 3 -18 7 -44 9 -58 5 -40 44 -190 68
-260 11 -36 22 -68 23 -72 1 -5 3 -10 4 -13 1 -3 3 -8 5 -12 1 -5 6 -19 12
-33 6 -14 19 -45 29 -70 55 -141 220 -419 324 -546 174 -215 268 -312 485
-500 17 -14 84 -66 150 -115 66 -49 125 -92 130 -97 25 -19 229 -145 315 -194
175 -100 440 -222 665 -308 98 -37 371 -128 409 -135 10 -3 60 -16 110 -31 50
-14 98 -27 106 -29 31 -6 67 -15 150 -34 47 -11 96 -22 110 -25 25 -4 187 -35
225 -42 17 -3 45 -8 125 -20 14 -2 43 -6 64 -9 21 -2 55 -7 75 -10 20 -2 59
-7 86 -10 28 -3 61 -8 75 -10 24 -3 126 -13 215 -21 273 -22 786 -22 1010 0
22 3 74 7 115 11 41 3 89 7 105 9 36 4 150 17 185 21 39 4 114 16 130 20 8 2
38 6 65 10 28 3 57 8 65 10 8 2 31 6 50 9 37 6 70 12 110 22 14 3 39 8 55 10
17 3 57 12 90 20 33 8 71 17 85 20 22 5 84 21 255 69 134 37 441 146 590 210
371 158 740 365 980 549 44 33 82 63 85 66 3 3 19 16 35 29 26 20 169 147 199
177 170 171 293 320 408 494 95 144 236 416 253 490 2 8 16 48 30 89 38 110
72 252 91 381 8 58 18 231 18 305 -1 110 -17 317 -29 375 -3 14 -7 39 -9 55
-3 17 -7 46 -11 65 -8 48 -61 249 -73 280 -5 14 -10 27 -10 30 0 3 -5 18 -11
33 -6 16 -11 33 -11 38 0 5 -4 17 -9 27 -16 29 -41 90 -41 97 0 13 -129 265
-150 295 -11 16 -20 33 -20 39 0 6 -3 11 -8 11 -4 0 -13 12 -19 28 -16 35
-171 241 -248 329 -90 102 -259 266 -354 343 -24 19 -49 40 -55 45 -6 6 -51
40 -101 75 -49 36 -91 68 -93 73 -2 4 -7 7 -12 7 -5 0 -42 22 -82 49 -144 95
-392 227 -603 321 -304 135 -721 268 -1050 334 -44 9 -91 19 -105 21 -21 5
-95 18 -225 41 -16 3 -41 7 -55 9 -14 2 -62 8 -107 15 -111 15 -139 18 -203
25 -133 13 -169 16 -235 20 -38 3 -106 7 -150 11 -78 6 -834 12 -839 6z m-156
-593 c12 -22 14 -18 -76 -144 -67 -94 -194 -324 -194 -352 0 -7 -5 -13 -10
-13 -6 0 -9 -3 -8 -7 1 -8 -3 -19 -37 -98 -17 -41 -85 -222 -89 -240 -2 -5 -5
-17 -8 -25 -3 -8 -11 -33 -17 -55 -6 -22 -20 -71 -31 -110 -12 -38 -23 -83
-25 -100 -2 -16 -9 -50 -15 -75 -12 -48 -17 -70 -25 -110 -3 -14 -7 -36 -10
-50 -5 -24 -21 -119 -32 -185 -8 -54 -29 -59 -158 -40 -53 8 -148 24 -182 31
-16 3 -39 7 -53 9 -14 2 -56 10 -95 19 -38 9 -79 18 -90 20 -61 10 -288 73
-405 112 -416 138 -620 320 -604 540 13 185 288 406 709 572 55 21 109 43 120
47 11 4 25 9 30 11 211 67 338 105 405 119 8 2 58 13 110 24 52 11 109 23 125
26 66 13 192 36 220 40 17 2 41 6 55 9 14 3 43 7 65 10 22 3 56 8 75 11 19 2
60 7 90 11 30 3 57 8 59 10 2 2 24 4 47 4 34 0 46 -5 54 -21z m1310 7 c14 -3
45 -7 70 -10 51 -6 113 -15 150 -22 14 -3 41 -7 60 -10 19 -2 46 -6 60 -9 35
-7 66 -13 130 -25 90 -17 229 -48 335 -75 33 -9 76 -20 95 -24 51 -12 303 -98
374 -127 122 -51 142 -60 244 -112 224 -113 390 -249 447 -367 24 -49 29 -71
29 -130 -1 -38 -7 -83 -14 -100 -7 -16 -14 -32 -14 -35 -2 -13 -54 -79 -90
-115 -73 -73 -168 -132 -316 -198 -86 -39 -335 -118 -445 -142 -11 -3 -41 -9
-66 -15 -26 -6 -55 -13 -65 -15 -11 -2 -20 -4 -21 -5 -3 -3 -7 -4 -53 -13 -19
-4 -46 -9 -60 -12 -14 -3 -38 -8 -55 -11 -16 -3 -39 -7 -50 -9 -101 -21 -250
-41 -283 -39 -49 3 -50 4 -67 124 -2 14 -7 41 -10 60 -4 19 -9 44 -11 55 -10
59 -52 245 -73 325 -35 130 -73 252 -98 310 -3 8 -7 22 -9 30 -2 8 -7 23 -12
35 -22 46 -42 93 -42 99 0 7 -97 202 -140 281 -32 60 -93 153 -151 231 -27 36
-29 45 -19 64 11 20 17 21 78 16 37 -3 78 -8 92 -10z m-660 -734 c25 -11 54
-29 65 -39 26 -23 95 -108 95 -116 0 -4 13 -28 30 -55 46 -75 114 -264 145
-402 2 -8 10 -44 19 -80 31 -132 40 -194 32 -225 l-6 -25 -454 0 c-386 0 -456
3 -466 15 -11 13 -9 63 3 125 88 421 195 674 330 776 73 55 129 63 207 26z
m-3505 -858 c96 -141 314 -324 545 -456 80 -46 332 -168 346 -168 3 0 20 -7
37 -15 102 -46 566 -183 680 -200 23 -4 45 -9 50 -12 4 -3 18 -6 30 -8 30 -4
89 -15 107 -20 8 -2 35 -7 60 -10 25 -3 53 -8 63 -11 16 -5 32 -8 112 -19 17
-2 48 -8 70 -12 22 -4 44 -6 49 -4 5 1 22 -3 38 -10 26 -11 28 -16 29 -68 1
-31 2 -69 4 -86 2 -16 6 -77 10 -135 7 -110 9 -133 20 -240 4 -36 9 -78 11
-95 1 -16 5 -48 8 -70 3 -22 8 -60 11 -85 8 -67 43 -274 61 -365 18 -89 18
-90 27 -125 3 -14 13 -56 22 -95 79 -346 252 -732 434 -970 52 -67 58 -80 48
-97 -11 -17 -20 -19 -82 -13 -38 3 -117 13 -175 21 -58 9 -116 17 -130 19 -24
3 -267 52 -300 60 -8 2 -60 16 -115 30 -115 30 -128 33 -152 39 -49 12 -330
109 -419 144 -165 66 -363 164 -513 253 -70 41 -266 173 -269 180 -2 5 -8 9
-13 9 -5 0 -17 6 -26 14 -10 8 -58 47 -108 87 -413 334 -685 718 -811 1148
-14 47 -27 95 -29 106 -2 11 -6 31 -9 45 -3 14 -8 42 -11 64 -3 21 -7 41 -9
45 -6 9 -18 186 -17 256 1 103 13 259 22 276 5 9 6 19 3 21 -2 3 0 25 5 49 5
24 13 60 16 79 9 52 43 177 62 230 4 8 7 20 9 25 1 6 10 28 20 50 10 22 18 42
18 45 1 3 14 33 29 67 27 60 60 97 82 90 5 -2 28 -30 50 -63z m6931 58 c22
-15 124 -237 124 -270 0 -10 4 -22 9 -27 12 -13 62 -214 76 -305 3 -20 8 -47
10 -60 4 -19 16 -207 17 -265 1 -31 -13 -235 -17 -255 -3 -14 -7 -38 -10 -55
-2 -16 -6 -39 -9 -50 -2 -11 -9 -42 -15 -70 -7 -27 -24 -86 -38 -130 -15 -44
-28 -82 -28 -85 -8 -29 -80 -189 -117 -259 -44 -82 -128 -214 -140 -219 -5 -2
-8 -8 -8 -13 0 -5 -6 -17 -14 -26 -8 -10 -36 -45 -63 -78 -345 -433 -921 -823
-1513 -1025 -36 -12 -74 -26 -85 -31 -20 -8 -152 -47 -170 -50 -5 -1 -20 -5
-33 -10 -12 -5 -33 -11 -45 -14 -12 -2 -67 -16 -122 -30 -124 -32 -124 -32
-215 -50 -126 -25 -134 -26 -160 -30 -14 -1 -38 -5 -55 -8 -84 -15 -136 -22
-241 -32 -67 -6 -73 -5 -87 16 -15 21 -14 24 22 68 209 251 407 711 486 1131
3 14 8 36 11 50 9 40 13 60 30 155 22 129 23 138 28 176 3 19 7 48 10 64 2 17
7 53 10 80 4 28 8 61 11 75 11 59 41 441 44 570 2 48 11 59 56 65 65 10 278
44 301 49 12 2 37 7 55 10 73 12 140 27 309 68 47 11 92 21 100 23 65 15 300
87 345 105 11 4 54 20 95 35 158 59 468 212 478 237 2 4 8 8 14 8 9 0 159 101
184 124 7 6 27 22 45 36 58 43 184 173 219 225 60 88 69 95 96 77z m-3000
-1074 c19 -13 -6 -310 -41 -483 -2 -11 -9 -47 -15 -80 -6 -33 -27 -122 -46
-197 -30 -123 -46 -173 -74 -243 -4 -11 -18 -45 -30 -75 -52 -129 -134 -244
-204 -285 -167 -98 -327 62 -457 456 -21 65 -40 128 -43 141 -3 13 -14 64 -26
113 -11 50 -22 104 -24 120 -3 17 -7 46 -11 65 -10 62 -14 84 -20 140 -4 30
-10 74 -15 98 -4 24 -4 42 2 42 5 0 5 7 0 18 -13 23 -21 146 -11 164 6 12 86
14 506 13 274 0 503 -3 509 -7z"/>
<path d="M3037 3453 c-1 -1 -22 -4 -47 -8 -297 -41 -566 -231 -719 -507 -34
-62 -86 -209 -96 -273 -3 -22 -8 -53 -11 -70 -7 -48 -7 -175 1 -235 12 -82 12
-84 17 -100 3 -8 13 -42 23 -75 39 -134 119 -268 225 -378 128 -134 281 -224
460 -271 86 -23 111 -25 255 -22 88 1 170 6 183 9 23 7 50 14 80 21 35 8 157
59 173 73 8 7 19 13 23 13 24 0 184 125 241 189 110 123 210 311 231 436 2 16
7 37 10 46 2 9 7 36 9 60 46 418 -165 808 -535 992 -47 23 -92 44 -100 46 -70
20 -161 43 -190 47 -32 6 -229 12 -233 7z m255 -392 c170 -60 315 -228 364
-421 22 -86 22 -226 -1 -320 -48 -199 -184 -358 -361 -421 -75 -27 -217 -34
-273 -14 -21 7 -41 12 -43 10 -8 -8 -131 61 -177 100 -27 22 -65 63 -86 90
-43 57 -100 174 -109 223 -3 17 -9 47 -12 65 -15 76 -6 230 18 297 3 8 13 36
22 61 59 164 218 306 393 348 60 15 201 5 265 -18z"/>
<path d="M6897 3454 c-1 -1 -24 -4 -52 -7 -165 -18 -286 -63 -431 -159 -258
-171 -424 -473 -426 -779 -2 -125 1 -155 19 -239 50 -231 193 -447 385 -583
60 -42 167 -106 178 -106 3 0 19 -5 35 -12 104 -41 172 -52 330 -55 203 -3
290 14 445 90 138 67 265 173 357 297 216 290 250 699 84 1021 -96 187 -236
327 -434 432 -37 19 -67 33 -67 29 0 -3 -6 -1 -12 5 -7 6 -15 10 -18 11 -3 0
-12 2 -20 5 -106 34 -181 47 -293 50 -43 1 -79 1 -80 0z m176 -380 c241 -62
407 -280 424 -554 5 -85 1 -117 -23 -230 -14 -68 -89 -194 -155 -261 -37 -38
-72 -69 -78 -69 -5 0 -16 -6 -23 -13 -7 -8 -45 -27 -83 -42 -61 -25 -83 -28
-170 -29 -120 0 -139 4 -230 49 -132 64 -241 194 -292 349 -21 64 -27 103 -29
189 -3 166 35 289 131 415 46 61 139 142 163 142 7 0 12 4 12 8 0 8 115 48
155 55 61 9 144 5 198 -9z"/>
<path d="M525 3392 c-20 -3 -20 -9 -19 -175 1 -95 2 -175 3 -178 0 -3 121 -6
269 -7 147 0 276 0 287 -1 20 -1 20 -8 19 -728 0 -401 2 -735 4 -743 3 -13 32
-15 205 -15 l202 0 2 715 c1 393 2 729 3 745 l0 30 288 -1 289 0 -1 172 c-1
95 -4 176 -9 180 -7 7 -1495 13 -1542 6z"/>
<path d="M4125 3390 c-9 -3 72 -139 271 -450 156 -245 293 -461 304 -480 11
-19 48 -78 82 -130 l62 -95 1 -345 0 -344 205 -1 205 0 2 349 c2 253 6 352 14
363 7 7 53 79 103 158 50 79 159 250 241 380 83 129 157 246 165 259 8 14 56
90 107 169 51 79 95 150 98 158 4 12 -30 14 -222 12 -126 -1 -231 -2 -234 -2
-4 -1 -46 -63 -94 -138 -47 -76 -129 -203 -181 -283 -51 -80 -98 -154 -104
-165 -6 -11 -30 -51 -54 -89 l-45 -68 -50 78 c-65 103 -130 206 -284 447 -70
108 -127 202 -127 207 0 12 14 11 -243 13 -114 1 -214 0 -222 -3z"/>
<path d="M7983 3385 c-2 -6 -2 -87 -1 -180 l3 -170 285 -1 285 -1 0 -421 c0
-232 4 -422 8 -422 5 0 5 -5 1 -11 -9 -16 -9 -617 0 -627 4 -4 97 -7 207 -7
193 0 199 0 200 20 0 11 1 345 1 742 l1 721 26 4 c14 1 144 3 289 2 l262 0 0
25 c1 46 1 275 1 306 l-1 30 -781 0 c-530 0 -783 -3 -786 -10z"/>
<path d="M10210 3392 c-9 -3 -50 -82 -50 -97 0 -3 -9 -25 -19 -48 -10 -23 -47
-112 -81 -197 -34 -85 -68 -168 -76 -185 -7 -16 -23 -55 -34 -85 -12 -30 -28
-68 -35 -85 -7 -16 -40 -97 -73 -180 -117 -289 -223 -550 -232 -570 -5 -11
-39 -94 -75 -185 -37 -90 -71 -173 -77 -183 -5 -10 -7 -22 -3 -25 11 -11 456
-9 464 3 4 5 20 44 35 85 15 41 32 84 37 95 9 20 46 120 76 205 9 25 20 47 24
50 12 8 743 5 756 -3 7 -4 16 -22 22 -40 11 -40 125 -337 143 -375 l13 -27
225 -1 c124 0 228 1 232 3 4 2 -15 56 -42 121 -56 137 -174 428 -267 657 -35
88 -70 174 -78 190 -7 17 -65 161 -130 320 -64 160 -122 304 -129 320 -7 17
-30 73 -51 125 -21 52 -42 99 -47 104 -7 9 -504 16 -528 8z m268 -408 c-5 -5
3 -28 42 -119 5 -11 25 -65 45 -120 20 -55 41 -111 47 -125 40 -98 107 -284
104 -289 -3 -5 -432 -6 -494 -2 -10 1 -10 6 -1 22 11 22 212 546 232 607 6 17
15 32 20 32 6 0 8 -3 5 -6z"/>
</g>
</svg>
